<svg width="74" height="22" viewBox="0 0 74 22" fill="none" xmlns="http://www.w3.org/2000/svg">
<path fill-rule="evenodd" clip-rule="evenodd" d="M33.9167 0.114135H32.2147V0.164861C32.1777 1.43302 32.19 2.70119 32.2147 3.95667V14.3302C32.0173 16.3339 30.9197 18.0079 28.6257 18.084C27.5909 18.0662 26.8768 17.8811 26.3958 17.7429C26.1245 17.6325 25.8531 17.4829 25.5053 17.2597C24.975 18.1728 24.457 19.0985 23.9267 20.0116C23.9365 20.0116 23.9464 20.0129 23.955 20.0141C23.9489 20.0217 23.9439 20.0294 23.939 20.037C28.1323 23.8034 33.6207 21.4319 35.187 17.3865C36.186 14.8121 35.8653 3.34795 35.668 0.0507265L33.9167 0.114135ZM0 21.2798V21.7236L4.033 21.8504L5.61167 18.2615L15.4783 18.2996L16.983 21.9646L20.942 21.6856L10.3847 0.583355L0 21.2798ZM7.56033 14.6219L10.2243 8.11624L13.5173 14.6219H7.56033ZM63.2947 0C57.387 0 52.6017 4.92047 52.6017 10.995C52.6017 17.0695 57.387 21.9899 63.2947 21.9899C69.2023 21.9899 74 17.0695 74 10.995C74 4.92047 69.2023 0 63.2947 0ZM63.2947 18.2362C59.4097 18.2362 56.2523 14.9897 56.2523 10.995C56.2523 7.00026 59.4097 3.75376 63.2947 3.75376C67.1797 3.75376 70.337 7.00026 70.337 10.995C70.337 14.9897 67.192 18.2362 63.2947 18.2362Z" fill="black"/>
<path d="M43.1406 0.0480957H46.4583V22H43.1406V0.0480957Z" fill="black"/>
</svg>
