<svg width="24" height="24" viewBox="0 0 24 24" fill="none" xmlns="http://www.w3.org/2000/svg">
<path d="M21.4 4.6C21 4.2 20.5 4 20 4H4C3.5 4 3 4.2 2.6 4.6C2.2 5 2 5.5 2 6V18C2 18.5 2.2 19 2.6 19.4C3 19.8 3.5 20 4 20H13.05C13.64 20 14.12 19.5 14.04 18.92C14.01 18.72 14 18.52 14 18.32C13.96 15.84 15.83 13.62 18.29 13.29C19.14 13.17 19.96 13.27 20.7 13.54C21.34 13.77 22 13.27 22 12.59V6C22 5.5 21.8 5 21.4 4.6ZM5 8C4.45 8 4 7.55 4 7C4 6.45 4.45 6 5 6C5.55 6 6 6.45 6 7C6 7.55 5.56 8 5 8ZM8 8C7.45 8 7 7.55 7 7C7 6.45 7.45 6 8 6C8.55 6 9 6.45 9 7C9 7.55 8.56 8 8 8ZM11 8C10.45 8 10 7.55 10 7C10 6.45 10.45 6 11 6C11.55 6 12 6.45 12 7C12 7.55 11.56 8 11 8ZM17.4 21.32C17.3 21.46 17.17 21.51 17.02 21.46C16.87 21.41 16.78 21.3 16.77 21.13L16.6 15.61C16.59 15.47 16.65 15.37 16.77 15.3C16.89 15.23 17.02 15.23 17.13 15.3L21.83 18.2C21.97 18.3 22.03 18.43 21.99 18.59C21.95 18.75 21.85 18.84 21.68 18.85L19.27 18.99C19.05 19 18.85 19.12 18.73 19.3L17.41 21.32H17.4Z" fill="#4C4C4C"/>
</svg>
