<svg width="120" height="22" viewBox="0 0 120 22" fill="none" xmlns="http://www.w3.org/2000/svg">
<g clip-path="url(#clip0_39585_28035)">
<path fill-rule="evenodd" clip-rule="evenodd" d="M107.741 4.91458H110.827C113.28 4.91458 115.276 5.23525 117.211 6.8461C119.086 8.41966 119.931 10.5675 119.931 12.9464C119.931 15.2732 119.063 17.339 117.257 18.9125C115.299 20.6129 113.341 20.9261 110.781 20.9261H107.733C107.741 20.9261 107.741 4.91458 107.741 4.91458ZM110.88 19.2705C112.884 19.2705 114.552 18.9946 116.061 17.6149C117.402 16.3769 118.095 14.7064 118.095 12.9166C118.095 11.0895 117.379 9.32949 115.97 8.1139C114.469 6.82373 112.815 6.57017 110.88 6.57017H109.554V19.2705H110.88ZM98.141 4.90712H106.636V6.57017H99.9695V11.3207H106.438V12.9763H99.9695V19.2705H106.636V20.9261H98.141V4.90712ZM78.5905 0L86.0343 16.802L93.5086 0L97.661 21.1573H95.3295L92.6857 7.61424H92.6324L86.0343 21.9776L79.4591 7.61424H79.4057L76.7772 21.1573H74.4381L78.5905 0ZM59.4057 4.22847L72.1905 17.3166V4.91458H74.0114V21.6495L61.2343 8.58373V20.9261H59.4057V4.22847ZM50.301 21.202C45.5772 21.202 41.76 17.503 41.76 12.9166C41.76 8.33763 45.5772 4.63119 50.301 4.63119C55.0172 4.63119 58.8343 8.33763 58.8343 12.9166C58.8343 17.503 55.0172 21.202 50.301 21.202ZM57.0133 12.9166C57.0133 9.25491 54.0114 6.29424 50.301 6.29424C46.5829 6.29424 43.5886 9.25491 43.5886 12.9166C43.5886 16.5858 46.5829 19.5464 50.301 19.5464C54.0114 19.5464 57.0133 16.5858 57.0133 12.9166ZM41.6 5.3322C39.9772 3.69153 37.7219 2.68475 35.3524 2.68475C30.7962 2.68475 27.101 6.56271 27.101 10.9627C27.101 15.3702 30.8191 19.2481 35.4133 19.2481C37.7219 19.2481 39.9771 18.1892 41.6076 16.5932V19.36C39.84 20.6054 37.661 21.3214 35.4972 21.3214C29.7067 21.3214 24.8152 16.7275 24.8152 11.0522C24.8152 5.32475 29.6305 0.618983 35.4972 0.618983C37.7752 0.618983 39.7867 1.26034 41.6076 2.5878C41.6 2.5878 41.6 5.3322 41.6 5.3322Z" fill="black"/>
<path d="M0 0.551758H21.5924V21.1945H0V0.551758Z" fill="white"/>
<path d="M18.3695 0.551758H21.6V8.8521C18.7733 10.8806 12.4266 13.7518 10.1638 11.3728C6.68951 7.74837 14.4381 2.66972 18.3695 0.551758Z" fill="black"/>
<path d="M21.5924 16.608V21.1945H0V0.551758H18.0267C8.85333 4.0643 -1.74476 12.029 2.07238 17.3836C5.61524 22.3951 15.741 19.345 21.5924 16.608Z" fill="black"/>
</g>
<defs>
<clipPath id="clip0_39585_28035">
<rect width="120" height="22" fill="white"/>
</clipPath>
</defs>
</svg>
