<svg width="20" height="20" viewBox="0 0 20 20" fill="none" xmlns="http://www.w3.org/2000/svg">
<path fill-rule="evenodd" clip-rule="evenodd" d="M10.2437 2.06065C8.69882 2.00921 7.13795 2.4307 5.79036 3.33022C4.27684 4.34157 3.21911 5.83505 2.73191 7.50461C2.59737 7.48819 2.43626 7.49544 2.24495 7.54954C1.5307 7.7522 0.993504 8.33747 0.751958 8.85292C0.438673 9.52466 0.306547 10.4131 0.445919 11.3302C0.584325 12.2445 0.970557 12.9981 1.45365 13.466C1.93819 13.9341 2.48529 14.0863 3.02877 13.972C3.83795 13.7993 4.23916 13.6701 4.12587 12.9162L3.57732 9.26186C3.68795 7.28408 4.71186 5.42225 6.42442 4.27732C8.71669 2.74616 11.722 2.84423 13.9085 4.52273C15.4295 5.68891 16.3126 7.43626 16.4145 9.27056L16.0309 11.8268C15.1754 14.1681 13.0544 15.7899 10.6 16.0201H8.96573C8.54399 16.0201 8.20437 16.3597 8.20437 16.7809V17.1824C8.20437 17.6039 8.54399 17.9435 8.96573 17.9435H11.0264C11.4479 17.9435 11.786 17.6039 11.786 17.1824V16.9725C13.6367 16.5208 15.2522 15.3834 16.3041 13.7971L16.9643 13.9722C17.5015 14.1116 18.0551 13.9341 18.5394 13.4662C19.0225 12.9981 19.4085 12.2447 19.5471 11.3305C19.687 10.4133 19.551 9.52635 19.2413 8.85317C18.9305 8.17998 18.4674 7.75244 17.9329 7.59906C17.709 7.53457 17.466 7.5109 17.2575 7.50461C16.8169 5.99495 15.9099 4.62201 14.6027 3.61959C13.3174 2.63336 11.7887 2.11138 10.2437 2.06065Z" fill="url(#paint0_linear_39274_61825)"/>
<path fill-rule="evenodd" clip-rule="evenodd" d="M12.655 8.63503C13.1997 8.63503 13.6412 9.07658 13.6424 9.62272C13.6412 10.1674 13.1997 10.6102 12.655 10.6102C12.1089 10.6102 11.6661 10.1674 11.6661 9.62272C11.6661 9.07682 12.1091 8.63503 12.655 8.63503ZM9.99558 8.63503C10.5415 8.63503 10.983 9.07658 10.983 9.62272C10.983 10.1674 10.5415 10.6102 9.99558 10.6102C9.4492 10.6102 9.00765 10.1674 9.00765 9.62272C9.00765 9.07682 9.4492 8.63503 9.99558 8.63503ZM7.33712 8.63503C7.88181 8.63503 8.32456 9.07658 8.32456 9.62272C8.32456 10.1674 7.88181 10.6102 7.33712 10.6102C6.79123 10.6102 6.34944 10.1674 6.34944 9.62272C6.34944 9.07682 6.79123 8.63503 7.33712 8.63503ZM9.99558 4.39301C7.09944 4.39301 4.76562 6.65001 4.76562 9.62272C4.76562 11.0505 5.30548 12.3123 6.18495 13.2382L5.87287 14.6372C5.76997 15.0976 6.0893 15.4073 6.50306 15.1768L7.86925 14.4147C8.51852 14.6966 9.23664 14.8524 9.99558 14.8524C12.8927 14.8524 15.225 12.5969 15.225 9.62272C15.225 6.65001 12.8927 4.39301 9.99558 4.39301Z" fill="url(#paint1_linear_39274_61825)"/>
<defs>
<linearGradient id="paint0_linear_39274_61825" x1="0.390625" y1="9.99996" x2="19.6021" y2="10.007" gradientUnits="userSpaceOnUse">
<stop stop-color="#9276FF"/>
<stop offset="1" stop-color="#652FFF"/>
</linearGradient>
<linearGradient id="paint1_linear_39274_61825" x1="4.76563" y1="9.82392" x2="15.225" y2="9.82698" gradientUnits="userSpaceOnUse">
<stop stop-color="#9276FF"/>
<stop offset="1" stop-color="#652FFF"/>
</linearGradient>
</defs>
</svg>
