<svg width="21" height="20" viewBox="0 0 21 20" fill="none" xmlns="http://www.w3.org/2000/svg">
<g clip-path="url(#clip0_34283_68707)">
<path d="M10.3828 20C15.9057 20 20.3828 15.5228 20.3828 10C20.3828 4.47715 15.9057 0 10.3828 0C4.85997 0 0.382812 4.47715 0.382812 10C0.382812 15.5228 4.85997 20 10.3828 20Z" fill="#FF776B"/>
<path d="M14.9563 7.66685H13.2563C13.2896 7.40018 13.4563 7.23351 13.7896 7.06685L14.0896 6.90018C14.6563 6.63351 14.9563 6.30018 14.9563 5.76685C14.9603 5.61437 14.9293 5.46301 14.8657 5.32434C14.8022 5.18568 14.7077 5.0634 14.5896 4.96685C14.3111 4.78914 13.9867 4.69647 13.6563 4.70018C13.3876 4.69853 13.1233 4.7675 12.8896 4.90018C12.6712 5.04621 12.4888 5.23998 12.3563 5.46685L12.8563 5.96685C12.9264 5.80255 13.0422 5.66182 13.1899 5.56138C13.3376 5.46093 13.5111 5.40499 13.6896 5.40018C14.023 5.40018 14.1896 5.56685 14.1896 5.76685C14.1896 5.96685 14.0896 6.13351 13.7563 6.30018L13.5563 6.40018C13.1807 6.56516 12.8578 6.83042 12.623 7.16685C12.4378 7.49117 12.3456 7.86022 12.3563 8.23351V8.36685H14.9563V7.66685Z" fill="white"/>
<path d="M14.7216 9.19983H11.8883L10.4883 11.6332H13.3216L14.7216 14.0665L16.1216 11.6332L14.7216 9.19983Z" fill="white"/>
<path d="M10.7234 13.2661C9.85706 13.2661 9.02617 12.9219 8.41356 12.3093C7.80094 11.6967 7.45677 10.8658 7.45677 9.99941C7.45677 9.13304 7.80094 8.30215 8.41356 7.68953C9.02617 7.07691 9.85706 6.73275 10.7234 6.73275L11.8568 4.39941C11.4828 4.3316 11.1035 4.29813 10.7234 4.29941C9.2117 4.29941 7.76189 4.89995 6.69293 5.9689C5.62397 7.03786 5.02344 8.48768 5.02344 9.99941C5.02344 11.5111 5.62397 12.961 6.69293 14.0299C7.76189 15.0989 9.2117 15.6994 10.7234 15.6994C11.9296 15.7047 13.1071 15.3316 14.0901 14.6327L12.8568 12.4661C12.2663 12.9828 11.5081 13.2671 10.7234 13.2661Z" fill="white"/>
</g>
<defs>
<clipPath id="clip0_34283_68707">
<rect width="20" height="20" fill="white" transform="translate(0.382812)"/>
</clipPath>
</defs>
</svg>
