<svg width="110" height="22" viewBox="0 0 110 22" fill="none" xmlns="http://www.w3.org/2000/svg">
<path d="M79.8043 1.89388C77.8499 2.16104 76.3316 3.49279 75.8188 5.3872C75.7259 5.74341 75.7138 5.84866 75.7138 6.54894C75.7097 7.22494 75.7218 7.35852 75.8026 7.66211C75.9237 8.12357 76.2751 8.81575 76.5981 9.24888C77.1271 9.95321 77.7449 10.4349 79.5741 11.5683C81.5204 12.7746 82.4451 13.406 82.966 13.8918C83.6444 14.5192 83.9513 15.434 83.81 16.4055C83.709 17.0775 83.4142 17.6118 82.9499 17.964C82.3805 18.393 81.8596 18.563 81.1206 18.563C79.2066 18.563 77.7328 17.5106 76.6627 15.3855C76.5133 15.0859 76.3275 14.673 76.2508 14.4706L76.1135 14.0982H75.5361C75.0031 14.0982 74.9587 14.1023 74.9789 14.1711C74.9869 14.2075 75.1848 15.5636 75.4109 17.1827L75.8268 20.1296H76.3599H76.8969L76.9211 19.9758C76.9575 19.7612 77.0544 19.4981 77.1432 19.3929C77.2765 19.2269 77.5349 19.2674 78.5565 19.6155C79.9133 20.0729 80.6401 20.1984 81.7263 20.1579C83.2244 20.1053 84.4762 19.6317 85.5099 18.729C86.6527 17.7292 87.2342 16.2477 87.0807 14.7176C86.9636 13.5518 86.4387 12.5277 85.4575 11.5562C84.7225 10.8235 84.1613 10.4268 81.9282 9.04648C80.2484 8.01023 79.8406 7.72283 79.3197 7.2047C78.8028 6.68657 78.6131 6.28583 78.5686 5.61793C78.5283 4.99051 78.6817 4.56953 79.1057 4.1526C79.6427 3.62637 80.4261 3.3835 81.266 3.49279C82.4613 3.64256 83.7292 4.42381 84.351 5.39125C84.7145 5.95795 85.0335 6.70276 85.2434 7.48805L85.3525 7.90498H85.9501H86.5477L86.5275 7.71068C86.5154 7.60544 86.3741 6.24535 86.2126 4.68692L85.9259 1.8534L85.4009 1.84126L84.876 1.83316L84.7831 2.13271C84.7347 2.30272 84.6499 2.48892 84.5974 2.54964C84.5085 2.65488 84.4762 2.66298 84.2218 2.65893C83.9957 2.65488 83.7938 2.60226 83.0387 2.34724C81.5648 1.8534 80.8501 1.75221 79.8043 1.89388Z" fill="black"/>
<path d="M99.1463 1.89409C97.9753 2.05601 97.1031 2.49722 96.3036 3.33513C95.6413 4.03137 95.2012 4.9219 95.0679 5.83672C94.9993 6.33461 95.0397 7.3142 95.1487 7.7028C95.2739 8.14402 95.6332 8.8443 95.9401 9.24909C96.461 9.94127 97.0546 10.4108 98.7021 11.4349C102.191 13.6046 102.72 14.0458 103.051 15.0537C103.156 15.3776 103.168 15.4666 103.164 15.9402C103.164 16.7943 102.986 17.2639 102.482 17.7618C102.142 18.0937 101.71 18.3406 101.23 18.4742C100.971 18.5471 100.81 18.5633 100.402 18.5633C99.1665 18.5552 98.1933 18.1423 97.2727 17.2356C96.6024 16.5717 96.0088 15.6124 95.5525 14.4547L95.4152 14.0984H94.8458H94.2805L94.7045 17.1141L95.1325 20.1298H95.6656H96.2026L96.2228 20.0164C96.348 19.4336 96.3964 19.3324 96.5781 19.3C96.7477 19.2676 96.8568 19.2959 97.9188 19.644C99.2553 20.0812 99.9822 20.2026 101.024 20.1581C102.256 20.1095 103.261 19.8019 104.17 19.1988C104.961 18.6685 105.522 18.0492 105.894 17.276C106.273 16.4988 106.403 15.8269 106.366 14.8473C106.298 13.1391 105.688 12.1231 103.935 10.8035C103.297 10.3218 102.708 9.93318 101.129 8.95764C100.362 8.48809 99.5986 7.99829 99.433 7.87281C99.0009 7.54898 98.4356 6.99442 98.2539 6.71511C97.8622 6.10793 97.7976 5.25788 98.0924 4.62641C98.2862 4.21352 98.8233 3.77635 99.3644 3.59825C100.111 3.34728 101.068 3.46062 101.957 3.90589C102.958 4.40782 103.6 5.06358 104.085 6.08364C104.25 6.42772 104.61 7.47207 104.662 7.75137L104.69 7.90519H105.296H105.902L105.878 7.71089C105.833 7.36682 105.288 2.00743 105.288 1.91838C105.288 1.83337 105.28 1.82932 104.755 1.84147L104.222 1.85361L104.157 2.07624C104.016 2.54175 103.891 2.68343 103.604 2.68343C103.495 2.68343 103.075 2.56604 102.51 2.38388C101.408 2.01958 101.202 1.96695 100.648 1.89004C100.132 1.82123 99.6632 1.82528 99.1463 1.89409Z" fill="black"/>
<path d="M11.1823 1.90227C9.36921 2.06014 7.70152 2.7078 6.39725 3.7643C6.23169 3.89788 5.88846 4.22171 5.63811 4.48077C4.27326 5.89348 3.40913 7.64217 3.10224 9.60539C3.01341 10.1761 2.99726 11.8034 3.07802 12.3984C3.34856 14.4264 4.16827 16.1022 5.51697 17.4016C6.53454 18.3771 7.70556 19.0896 9.00579 19.5186C10.0153 19.8506 10.8512 19.9963 12.0303 20.0368C13.6333 20.0894 15.1193 19.8546 16.8355 19.2636C18.1963 18.7981 18.9191 18.4176 19.1048 18.0695L19.1977 17.8914V15.1105C19.1977 12.4551 19.2017 12.3175 19.2785 12.0098C19.3713 11.6496 19.5086 11.4148 19.6742 11.3298C19.8074 11.261 20.2799 11.1638 20.6635 11.1233L20.934 11.095V10.5728V10.0507H17.4008H13.8675V10.5728V11.095L14.1421 11.1193C15.0264 11.2003 15.6039 11.3419 15.7896 11.5281C15.9027 11.6455 15.9996 11.9613 16.0481 12.4025C16.0723 12.5887 16.0884 13.7787 16.0884 15.0417C16.0884 17.7133 16.1127 17.5473 15.7089 17.7376C14.4773 18.3205 12.5673 18.5107 11.263 18.1828C10.5402 17.9966 9.73263 17.608 9.13501 17.1506C8.75948 16.8632 8.2305 16.3087 7.93572 15.8958C7.48751 15.2643 7.07967 14.3374 6.88585 13.4914C6.66376 12.5563 6.583 11.1881 6.67587 9.98184C6.85758 7.64217 7.49558 6.05135 8.6666 5.03128C9.99914 3.86954 11.5417 3.35546 13.1528 3.52952C14.3602 3.6631 15.2889 4.09218 16.0723 4.88556C16.5528 5.3713 16.9203 5.93801 17.4492 7.0026L17.8732 7.8648H18.4143H18.9554V7.5774C18.9554 7.24547 18.81 3.15712 18.7697 2.40826L18.7454 1.91442H18.2084H17.6673L17.5462 2.16538C17.3685 2.54184 17.2352 2.65518 16.9364 2.67542C16.6336 2.69566 16.4115 2.65518 15.4949 2.39611C14.0735 1.99942 13.2053 1.86989 12.0504 1.88203C11.6628 1.88608 11.2711 1.89418 11.1823 1.90227Z" fill="black"/>
<path d="M27.4638 2.18536C27.4477 2.1975 27.4355 2.44442 27.4355 2.72777V3.2459L27.6698 3.27019C28.2149 3.32686 28.764 3.42401 29.0063 3.50497C29.3536 3.61831 29.503 3.76808 29.6201 4.12024L29.713 4.40359L29.7412 9.34201C29.7655 14.6609 29.7655 14.6204 29.9876 15.5757C30.5206 17.883 32.1075 19.401 34.4819 19.8827C35.1723 20.0244 35.6246 20.0608 36.5008 20.0608C38.0514 20.0608 39.0932 19.8543 40.1754 19.3241C41.7422 18.555 42.7032 17.2475 43.0868 15.3653C43.2928 14.3371 43.3049 14.0578 43.3049 9.90871C43.3049 7.79167 43.3251 5.80011 43.3453 5.47628C43.422 4.26192 43.5956 3.83689 44.1205 3.56973C44.3184 3.46853 44.9281 3.30662 45.2633 3.27019C45.3966 3.25805 45.5581 3.23376 45.6186 3.22566L45.7317 3.20137L45.7196 2.69134L45.7075 2.17726H42.4569H39.2063L39.1942 2.71158L39.1821 3.2459L39.3759 3.27019C39.7716 3.31876 40.345 3.44425 40.5631 3.52925C41.084 3.7276 41.2576 3.96238 41.3949 4.64647C41.4635 4.98649 41.4676 5.33056 41.4676 9.62536C41.4676 14.5557 41.4676 14.6083 41.2616 15.4664C40.8861 17.0613 39.8645 17.9721 38.1403 18.2433C37.6476 18.3243 36.5695 18.3364 36.1172 18.2676C34.5586 18.0328 33.5935 17.2151 33.1937 15.7781C32.9434 14.8836 32.9555 15.1912 32.9393 9.69012C32.9232 4.23763 32.9232 4.23358 33.1372 3.84499C33.2947 3.55759 33.6783 3.40782 34.4576 3.33091C34.6918 3.30662 34.9624 3.27424 35.0593 3.26614L35.2289 3.2459V2.69944V2.15702H31.3605C29.2325 2.15702 27.4759 2.16917 27.4638 2.18536Z" fill="black"/>
<path d="M52.1059 2.69947V3.24594L52.2998 3.27023C53.7454 3.44833 54.0199 3.56572 54.1895 4.08385C54.2622 4.31458 54.2663 4.54126 54.2784 10.779C54.2864 15.2358 54.2743 17.3245 54.2461 17.5188C54.2218 17.6726 54.1572 17.8993 54.1047 18.0166C54.0199 18.2069 53.9796 18.2433 53.7857 18.3283C53.5515 18.4295 52.9499 18.5672 52.5299 18.6117C52.3967 18.6238 52.2392 18.6481 52.1786 18.6562L52.0656 18.6805V19.2027V19.7249L59.2209 19.7168L66.3722 19.7046L67.0304 17.2556C67.3938 15.9077 67.6926 14.8026 67.6926 14.7945C67.6926 14.7905 67.3938 14.7864 67.0263 14.7864C66.457 14.7864 66.3601 14.7945 66.3601 14.8472C66.3601 14.8795 66.251 15.1224 66.1218 15.3855C65.5888 16.4501 64.971 17.1828 64.3411 17.4904C63.7555 17.7778 63.0651 17.9357 62.0071 18.0288C61.2641 18.0936 58.1791 18.0571 57.9005 17.9802C57.5572 17.8831 57.5774 18.1138 57.5653 14.5112L57.5572 11.3457H59.5843C62.0556 11.3457 62.5361 11.3903 62.9358 11.6493C63.1498 11.791 63.38 12.2849 63.5375 12.9447C63.6061 13.2321 63.6829 13.5397 63.7031 13.6207L63.7394 13.7745H64.3209H64.9064V10.5362V7.29382L64.3128 7.30596L63.7192 7.3181L63.6021 7.84028C63.3962 8.77939 63.1781 9.25299 62.8551 9.47158C62.7824 9.52015 62.6007 9.58896 62.4513 9.62944C62.213 9.69421 61.9102 9.7023 59.867 9.71445L57.5532 9.73064L57.5653 6.81212C57.5774 3.97456 57.5815 3.88955 57.6541 3.83288C57.7228 3.78431 58.1145 3.77621 60.0446 3.77621C62.7622 3.77621 63.3437 3.81669 63.9857 4.05956C64.4501 4.23362 64.7691 4.77199 65.0275 5.82039L65.1769 6.42757L65.7907 6.43971C66.352 6.44781 66.4004 6.44376 66.4004 6.379C66.4045 6.13612 66.2712 2.54161 66.2551 2.36755L66.2349 2.15706H59.1684H52.1059V2.69947Z" fill="black"/>
</svg>
