<svg width="120" height="27" viewBox="0 0 120 27" fill="none" xmlns="http://www.w3.org/2000/svg">
<path d="M27.1644 7.26636C27.7652 7.26637 28.2676 7.37924 28.682 7.59546L28.8549 7.69507C29.294 7.97449 29.6513 8.40998 29.9183 9.02124L30.1224 9.48999L30.2904 9.00659L30.766 7.63159H35.7367L31.9252 18.6365H27.1576L27.6615 17.1814L27.3392 16.9666C26.5317 17.6923 25.7741 18.2227 25.0629 18.5623C24.3536 18.9006 23.645 19.0661 22.9388 19.0662C22.2929 19.0662 21.7643 18.9311 21.3422 18.6736C20.9737 18.4488 20.6748 18.124 20.4486 17.6902L20.3568 17.4978C19.8915 16.4373 19.9348 15.0446 20.5394 13.2986C21.1731 11.4693 22.1053 10.0087 23.3275 8.90894C24.5553 7.80486 25.8307 7.26636 27.1644 7.26636ZM66.682 7.63159L66.1869 11.7644C66.1536 12.0439 66.1035 12.3498 66.0336 12.6824C65.9587 13.0191 65.8762 13.3667 65.7836 13.7214L66.1566 13.8611C66.3626 13.4434 66.546 13.0762 66.7162 12.7595L66.7172 12.7585C66.8721 12.4639 67.0414 12.1757 67.223 11.8962L67.225 11.8933L69.8656 7.63159H73.2338L72.7777 11.8982C72.7561 12.1014 72.7225 12.3609 72.6664 12.6755V12.6775C72.6136 12.9938 72.5447 13.3447 72.4642 13.7312L72.8412 13.8572C73.0171 13.483 73.2018 13.1122 73.3959 12.7468C73.592 12.3843 73.7958 12.0257 74.0072 11.6716L74.0082 11.6726L76.4388 7.63159H81.8568L73.2396 18.6365H69.1234L69.3656 15.2664V15.2625C69.3683 15.2113 69.3728 15.1336 69.3812 15.0222V15.0193C69.4187 14.3953 69.4766 13.904 69.5482 13.5476L69.1722 13.4226C68.9964 13.7898 68.7335 14.2535 68.39 14.8162L68.1908 15.1375L66.0179 18.6365H61.7455L61.1722 7.63159H66.682ZM54.7797 1.93823L53.2367 6.39429C53.0127 7.04104 52.8306 7.54289 52.6927 7.89722C52.5583 8.24383 52.4161 8.58772 52.267 8.92847L52.5853 9.15601C53.2866 8.51161 53.9796 8.03564 54.6566 7.72632C55.3314 7.41781 56.0238 7.26636 56.7328 7.26636C57.9316 7.26636 58.699 7.62211 59.1136 8.27612L59.1146 8.2771C59.5357 8.93662 59.5652 9.86882 59.1332 11.116L56.5287 18.6365H51.2982L53.2006 13.1453V13.1443C53.3018 12.8517 53.3749 12.6003 53.4164 12.3923C53.4568 12.1897 53.4726 12.0078 53.4427 11.864L53.4418 11.8621C53.4087 11.7098 53.3274 11.5821 53.1937 11.4978C53.0665 11.4176 52.9101 11.3884 52.7435 11.3884C52.4054 11.3884 52.1022 11.5013 51.8353 11.7205L51.724 11.821C51.435 12.0995 51.2081 12.504 51.0316 13.0134L49.0844 18.6365H43.8646L49.6488 1.93823H54.7797ZM45.3461 3.85815L44.1302 7.36597L44.0385 7.63159H45.6429L44.3256 11.4333H42.722L42.6752 11.5681L40.2269 18.6365H35.0189L37.4222 11.699L37.514 11.4333H35.9105L37.2279 7.63159H38.8314L38.8783 7.49683L40.139 3.85815H45.3461ZM14.6351 1.93823L13.0922 6.39429C12.9801 6.7178 12.8781 7.00499 12.7875 7.25562L12.5482 7.89722C12.4088 8.25602 12.2675 8.60004 12.1234 8.92847L12.4418 9.15601C13.1429 8.51172 13.8352 8.0356 14.5121 7.72632C15.1868 7.41785 15.8792 7.26641 16.5883 7.26636C17.7868 7.26636 18.5544 7.62213 18.9691 8.27612L18.9701 8.2771C19.3911 8.93657 19.4215 9.86892 18.9896 11.116L16.3842 18.6365H11.1537L13.056 13.1453C13.1574 12.8526 13.2303 12.6004 13.2719 12.3923C13.3123 12.1897 13.3281 12.0079 13.2982 11.864L13.2972 11.8621C13.2642 11.7098 13.1829 11.582 13.0492 11.4978C12.922 11.4177 12.7655 11.3884 12.599 11.3884C12.2613 11.3885 11.9584 11.5016 11.6918 11.7205L11.5795 11.821C11.2903 12.0995 11.0635 12.5042 10.8871 13.0134L8.93982 18.6365H3.72107L9.50427 1.93823H14.6351ZM27.8099 11.2449C27.3261 11.2449 26.8763 11.4188 26.475 11.7498C26.0749 12.0798 25.7825 12.5114 25.6019 13.033C25.4467 13.481 25.4141 13.8861 25.5414 14.2263L25.6058 14.3679C25.8118 14.7482 26.1929 14.9206 26.6752 14.9207C27.1636 14.9207 27.6098 14.7558 28.0052 14.4353L28.0062 14.4363C28.405 14.1161 28.6919 13.6875 28.8734 13.1638C29.0541 12.6422 29.0761 12.1747 28.8793 11.8035C28.6746 11.4179 28.2922 11.2449 27.8099 11.2449Z" fill="black" stroke="white" stroke-width="0.4"/>
<path d="M94.7063 2.17773C96.8457 2.04398 98.7741 2.41169 100.214 3.16016C101.654 3.90838 102.598 5.03239 102.794 6.41504C103.274 9.79638 100.971 16.3035 93.6243 17.665C93.0674 17.7681 92.1987 17.7232 91.5872 17.3701C91.2844 17.1953 91.0488 16.9479 90.9397 16.6084C90.8303 16.2678 90.8436 15.8202 91.0657 15.2383L90.9055 15.1279C89.6394 16.2735 88.5181 16.8182 87.3665 16.8184C86.3779 16.8184 85.6446 16.3713 85.2756 15.5762C84.9036 14.774 84.8933 13.5986 85.3997 12.1338C86.4452 9.10934 88.6366 7.2793 90.7327 7.2793C91.2679 7.27935 91.714 7.38113 92.0813 7.60742C92.4479 7.83336 92.7452 8.18956 92.9719 8.71582L93.0745 8.95215L93.1584 8.70898L93.552 7.56738H97.6331L95.3245 14.418L95.3157 14.4443L95.3215 14.4717C95.3277 14.4992 95.3409 14.5783 95.3713 14.6592C95.402 14.7407 95.4542 14.8378 95.5481 14.9062C95.7484 15.0519 96.062 15.0229 96.5422 14.6934C100.277 12.1314 101.29 8.7016 99.9055 6.49219C98.5216 4.28354 94.8049 3.39735 89.2952 5.7832C86.1074 7.16378 82.9467 10.6835 82.2151 14.4668C81.9056 16.0676 82.2261 17.328 82.9875 18.2578C83.7465 19.1846 84.933 19.7703 86.3323 20.0469C89.1057 20.5949 92.7521 19.9348 95.7151 18.2529L96.3303 19.8369C92.2086 22.4931 86.7161 23.0837 83.1682 21.4775C81.3944 20.6745 80.1127 19.326 79.72 17.416C79.3267 15.5034 79.8207 13.0075 81.6448 9.90332C85.3269 4.71487 90.4292 2.44524 94.7063 2.17773ZM91.2395 10.5771C90.5112 10.5773 89.8251 11.1369 89.5403 11.96C89.3984 12.3704 89.3967 12.7282 89.5413 12.9883C89.6889 13.2537 89.9729 13.3906 90.3362 13.3906C91.0822 13.3906 91.7448 12.8491 92.0295 12.0254C92.171 11.6159 92.179 11.2547 92.0393 10.9902C91.896 10.719 91.6125 10.5771 91.2395 10.5771Z" fill="#272727" stroke="white" stroke-width="0.2"/>
<path d="M109.615 7.52905L109.494 10.2341C109.451 11.0306 109.438 12.0514 109.151 13.4099L109.521 13.5515C110.538 11.7941 111.216 10.69 111.471 10.2839L113.242 7.52905H118.509L104.845 24.9353L1.36731 24.9285L2.76575 21.1628L82.0021 21.1707C83.7179 22.1089 85.7917 22.5457 88.0421 22.5457C90.2878 22.5457 92.2781 22.0438 94.0236 21.2097L102.368 21.2195H102.463L102.523 21.1472L105.244 17.8718L105.301 17.8035L105.288 17.7166L103.873 7.52905H109.615Z" fill="black" stroke="white" stroke-width="0.4"/>
</svg>
