<svg width="24" height="24" viewBox="0 0 24 24" fill="none" xmlns="http://www.w3.org/2000/svg">
<path d="M2.5 12.1914C2.45249 9.61423 3.41162 7.18438 5.19629 5.36133C6.98123 3.54799 9.37274 2.55078 11.9502 2.55078C17.2138 2.55099 21.4999 6.83694 21.5 12.1006V17.8008C21.5 17.9346 21.3838 18.0507 21.25 18.0508C21.1161 18.0508 21 17.9346 21 17.8008V12.1006C20.9999 7.11504 16.9465 3.05099 11.9502 3.05078C9.50847 3.05078 7.2385 3.99337 5.55273 5.71094C3.96278 7.33087 3.07318 9.45354 3.00293 11.7314L3 12.1807V17.8906C3 18.0431 2.88517 18.1503 2.75 18.1504C2.61614 18.1504 2.5 18.0342 2.5 17.9004V12.1914Z" fill="#A64DEF" stroke="#A64DEF"/>
<path d="M5.80957 12.9492H5.94043C7.76395 12.9495 9.24977 14.4353 9.25 16.2588V18.1396C9.24977 19.9632 7.76395 21.449 5.94043 21.4492H5.80957C3.98605 21.449 2.50023 19.9632 2.5 18.1396V16.2588L2.50391 16.0889C2.59298 14.3439 4.04303 12.9494 5.80957 12.9492Z" fill="#A64DEF" stroke="#A64DEF"/>
<path d="M18.0596 12.9492H18.1904C20.0139 12.9495 21.4998 14.4353 21.5 16.2588V18.1396C21.4998 19.9632 20.0139 21.449 18.1904 21.4492H18.0596C16.2361 21.449 14.7502 19.9632 14.75 18.1396V16.2588L14.7539 16.0889C14.843 14.3439 16.293 12.9494 18.0596 12.9492Z" fill="#A64DEF" stroke="#A64DEF"/>
</svg>
