<svg width="62" height="28" viewBox="0 0 62 28" fill="none" xmlns="http://www.w3.org/2000/svg">
<path d="M32.3494 18.8307V11.3539C32.3494 7.16897 29.7698 5.84619 26.3001 5.84619C21.572 5.84619 19.6373 8.21579 19.484 11.2305H22.6155C22.7689 9.19972 23.7205 8.39977 26.3001 8.39977C28.4498 8.39977 29.1249 9.26144 29.1249 10.4002C29.1249 11.9082 27.6503 12.2156 25.2253 12.6767C21.2955 13.4464 18.7461 14.5235 18.7461 17.969C18.7461 20.6157 20.711 22.4613 23.9041 22.4613C26.3303 22.4613 28.1105 21.5077 29.0935 20.1232H29.1551C29.4618 21.6614 30.2601 22.2773 31.9799 22.2773C32.5945 22.2773 33.1163 22.2156 33.853 21.9385V20.4003C32.5945 20.5237 32.3482 19.9392 32.3482 18.8307H32.3494ZM29.1249 16.0302C29.1249 18.5838 27.282 19.9077 24.6118 19.9077C22.8618 19.9077 22.002 19.1078 22.002 17.6616C22.002 16.0617 23.1686 15.292 25.84 14.7074C27.3447 14.4 28.6031 14.0309 29.126 13.6618V16.0314L29.1249 16.0302Z" fill="black"/>
<path d="M16.675 -0.000488281H13.418C13.1473 5.21146 8.82937 9.36961 3.56213 9.36961V-0.000488281H0.308594V22.0001H3.56213V12.63C8.82937 12.63 13.1473 16.787 13.418 22.0001H16.675C16.4903 17.2632 13.7922 13.1621 9.88445 10.9998C13.7922 8.83747 16.4903 4.73638 16.675 -0.000488281Z" fill="black"/>
<path d="M37.5371 0.214844C36.6459 0.214844 35.7256 0.799383 35.7256 1.90675C35.7256 3.01411 36.647 3.63009 37.5371 3.63009C38.4888 3.63009 39.38 3.01528 39.38 1.90675C39.38 0.798219 38.4888 0.214844 37.5371 0.214844Z" fill="#6043FF"/>
<path d="M58.1716 6.27588V15.4795C58.1716 17.2133 56.8179 18.6805 55.0877 18.7317C53.2902 18.7853 51.8121 17.3356 51.8121 15.547V6.27588H48.5586V15.4539C48.5586 18.9704 51.3299 21.9106 54.8379 21.9932C56.0522 22.0224 57.1909 21.7103 58.1716 21.149V22.0014C58.1716 23.2368 57.1723 24.2394 55.9383 24.2394H48.5586V27.4998H55.9383C58.9687 27.4998 61.4252 25.0382 61.4252 22.0014V6.27588H58.1716Z" fill="black"/>
<path d="M45.5201 -0.000488281H42.2666V22.0001H45.5201V-0.000488281Z" fill="black"/>
<path d="M39.1793 6.27588H35.9258V21.9991H39.1793V6.27588Z" fill="black"/>
</svg>
