<svg width="32" height="32" viewBox="0 0 32 32" fill="none" xmlns="http://www.w3.org/2000/svg">
<path d="M26.3875 19.9058C23.6408 22.6391 19.7075 23.4791 16.2542 22.3991L9.97418 28.6658C9.52085 29.1324 8.62751 29.4124 7.98751 29.3191L5.08085 28.9191C4.12085 28.7858 3.22751 27.8791 3.08085 26.9191L2.68085 24.0124C2.58751 23.3724 2.89418 22.4791 3.33418 22.0258L9.60085 15.7591C8.53418 12.2924 9.36085 8.35911 12.1075 5.62578C16.0408 1.69245 22.4275 1.69245 26.3742 5.62578C30.3208 9.55911 30.3208 15.9724 26.3875 19.9058Z" stroke="#FA6E20" stroke-width="2" stroke-miterlimit="10" stroke-linecap="round" stroke-linejoin="round"/>
<path d="M9.1875 23.3203L12.2542 26.387" stroke="#FA6E20" stroke-width="2" stroke-miterlimit="10" stroke-linecap="round" stroke-linejoin="round"/>
<path d="M19.332 14.668C20.4366 14.668 21.332 13.7725 21.332 12.668C21.332 11.5634 20.4366 10.668 19.332 10.668C18.2275 10.668 17.332 11.5634 17.332 12.668C17.332 13.7725 18.2275 14.668 19.332 14.668Z" stroke="#FA6E20" stroke-width="2" stroke-linecap="round" stroke-linejoin="round"/>
</svg>
