<svg width="32" height="32" viewBox="0 0 32 32" fill="none" xmlns="http://www.w3.org/2000/svg">
<path d="M8 13.3346V10.668C8 6.25464 9.33333 2.66797 16 2.66797C22.6667 2.66797 24 6.25464 24 10.668V13.3346" stroke="#059A52" stroke-width="2" stroke-linecap="round" stroke-linejoin="round"/>
<path d="M16.0013 24.6667C17.8423 24.6667 19.3346 23.1743 19.3346 21.3333C19.3346 19.4924 17.8423 18 16.0013 18C14.1604 18 12.668 19.4924 12.668 21.3333C12.668 23.1743 14.1604 24.6667 16.0013 24.6667Z" stroke="#059A52" stroke-width="2" stroke-linecap="round" stroke-linejoin="round"/>
<path d="M22.668 29.332H9.33464C4.0013 29.332 2.66797 27.9987 2.66797 22.6654V19.9987C2.66797 14.6654 4.0013 13.332 9.33464 13.332H22.668C28.0013 13.332 29.3346 14.6654 29.3346 19.9987V22.6654C29.3346 27.9987 28.0013 29.332 22.668 29.332Z" stroke="#059A52" stroke-width="2" stroke-linecap="round" stroke-linejoin="round"/>
</svg>
