<svg width="48" height="48" viewBox="0 0 48 48" fill="none" xmlns="http://www.w3.org/2000/svg">
<path d="M43.6383 5.14062H23C23 7.6115 23.9816 9.98117 25.7287 11.7283C27.4759 13.4755 29.8456 14.4571 32.3164 14.4571H36.1183V18.1278C36.1216 23.2684 40.288 27.435 45.4286 27.4383V6.931C45.4286 5.94248 44.6273 5.14062 43.6383 5.14062Z" fill="#2684FF"/>
<path d="M33.4272 15.4297H12.7891C12.7923 20.5703 16.9586 24.7369 22.0995 24.7403H25.9013V28.4227C25.9078 33.5634 30.0771 37.7271 35.2177 37.7271V17.2204C35.2177 16.2315 34.416 15.4297 33.4272 15.4297Z" fill="url(#paint0_linear_1467_15867)"/>
<path d="M23.2086 25.7031H2.57031C2.57031 30.8485 6.74158 35.0196 11.8868 35.0196H15.7005V38.6901C15.7038 43.8261 19.863 47.9908 24.9991 48.0005V27.4937C24.9991 26.5048 24.1974 25.7031 23.2086 25.7031Z" fill="url(#paint1_linear_1467_15867)"/>
<defs>
<linearGradient id="paint0_linear_1467_15867" x1="5626.61" y1="25.6953" x2="3400.16" y2="2627.63" gradientUnits="userSpaceOnUse">
<stop offset="0.18" stop-color="#0052CC"/>
<stop offset="1" stop-color="#2684FF"/>
</linearGradient>
<linearGradient id="paint1_linear_1467_15867" x1="5767.27" y1="54.7143" x2="3191.84" y2="2892.61" gradientUnits="userSpaceOnUse">
<stop offset="0.18" stop-color="#0052CC"/>
<stop offset="1" stop-color="#2684FF"/>
</linearGradient>
</defs>
</svg>
