<svg width="48" height="48" viewBox="0 0 48 48" fill="none" xmlns="http://www.w3.org/2000/svg">
<path d="M37.5613 25.3085C31.7952 25.3085 27.1216 29.982 27.1216 35.7472C27.1216 41.5128 31.7952 46.1873 37.5613 46.1873C43.3265 46.1873 48 41.5128 48 35.7472C48 29.982 43.3265 25.3085 37.5613 25.3085ZM10.4392 25.309C4.67402 25.3095 0 29.982 0 35.7477C0 41.5128 4.67402 46.1868 10.4392 46.1868C16.2048 46.1868 20.8789 41.5128 20.8789 35.7477C20.8789 29.982 16.2053 25.309 10.4392 25.309ZM34.4392 12.2595C34.4392 18.0247 29.7657 22.6997 24.0005 22.6997C18.2343 22.6997 13.5608 18.0247 13.5608 12.2595C13.5608 6.49434 18.2343 1.82031 24.0005 1.82031C29.7657 1.82031 34.4387 6.49434 34.4387 12.2595H34.4392Z" fill="url(#paint0_radial_1466_15832)"/>
<defs>
<radialGradient id="paint0_radial_1466_15832" cx="0" cy="0" r="1" gradientUnits="userSpaceOnUse" gradientTransform="translate(24.0001 2426.57) scale(3180.62 2939.89)">
<stop stop-color="#FFB900"/>
<stop offset="0.6" stop-color="#F95D8F"/>
<stop offset="0.9991" stop-color="#F95353"/>
</radialGradient>
</defs>
</svg>
