<svg width="120" height="49" viewBox="0 0 120 49" fill="none" xmlns="http://www.w3.org/2000/svg">
<path d="M34.0365 12.4297C30.7386 12.4297 29.5552 14.7382 29.5552 16.911V18.2302H28.8374C28.3136 18.2302 27.9062 18.6182 27.9062 19.1613C27.9062 19.6851 28.2942 20.0925 28.8374 20.0925H29.5552V29.1909C29.5552 29.7147 29.9432 30.1221 30.4864 30.1221C31.0296 30.1221 31.4176 29.7341 31.4176 29.1909V20.0149H33.5321C34.0559 20.0149 34.4633 19.6269 34.4633 19.0837C34.4633 18.5406 34.0753 18.1526 33.5321 18.1526H31.4176V16.8334C31.4176 15.65 31.8832 14.1951 33.9977 14.1951C34.5215 14.1951 34.9289 13.8071 34.9289 13.2639C34.9289 12.7207 34.5603 12.4297 34.0365 12.4297Z" fill="#4D4D4D"/>
<path d="M41.4884 17.8984C40.0334 17.8984 38.8501 18.4998 38.1905 19.4892V18.9654C38.1905 18.4416 37.8025 18.0342 37.2593 18.0342C36.7161 18.0342 36.3281 18.4222 36.3281 18.9654V29.1308C36.3281 29.6546 36.7161 30.062 37.2593 30.062C37.8025 30.062 38.1905 29.674 38.1905 29.1308V23.5243C38.1905 21.1576 39.4515 19.7608 41.4884 19.7608C42.0122 19.7608 42.4196 19.3728 42.4196 18.8296C42.4196 18.2864 42.0122 17.8984 41.4884 17.8984Z" fill="#4D4D4D"/>
<path d="M53.2279 22.9343C53.2279 22.4105 53.1697 20.9555 52.2967 19.7721C51.4431 18.5111 50.1239 17.8516 48.3392 17.8516C44.9831 17.8516 43.0625 20.1019 43.0625 23.9818C43.0625 27.9975 44.9831 30.1897 48.6108 30.1897C51.0551 30.1897 52.3743 29.0063 52.6265 28.7347C52.7623 28.5989 52.9563 28.4049 52.9563 28.0751C52.9563 27.6096 52.5683 27.2216 52.1027 27.2216C51.8311 27.2216 51.7147 27.2798 51.5789 27.4156C50.8611 27.9393 50.0657 28.4631 48.669 28.4631C46.4962 28.4631 45.0995 27.0082 45.0413 24.6996H52.1027C53.2279 24.6414 53.2279 23.5938 53.2279 22.9343ZM48.3392 19.6363C50.3179 19.6363 51.3073 20.7615 51.3655 22.9343H44.9637C45.1771 20.8197 46.3604 19.6363 48.3392 19.6363Z" fill="#4D4D4D"/>
<path d="M59.6735 23.0393C58.2185 22.5737 57.0351 22.1081 57.0351 21.0606C57.0351 19.8772 58.3543 19.7414 59.0721 19.7414C60.4494 19.7414 61.109 20.207 61.7104 20.7308C61.9044 20.9248 62.0984 21.0024 62.37 21.0024C62.8356 21.0024 63.2236 20.6144 63.2236 20.1488C63.2236 19.8772 63.0878 19.6832 63.0296 19.5474C62.2342 18.4998 60.8568 17.8984 59.1303 17.8984C56.6859 17.8984 55.1728 19.0818 55.1728 21.0606C55.1728 23.4273 57.2873 24.1645 59.1303 24.8241C60.5076 25.2897 61.7686 25.6777 61.7686 26.7446C61.7686 28.122 60.1778 28.3936 59.2661 28.3936C58.0051 28.3936 57.0157 28.0056 56.2397 27.2102C55.9681 26.9386 55.7741 26.9386 55.5801 26.9386C55.1146 26.9386 54.7266 27.3266 54.7266 27.7922C54.7266 27.9862 54.7848 28.122 54.9206 28.3936C55.6383 29.3248 57.2873 30.2366 59.3437 30.2366C62.1178 30.2366 63.7668 28.9174 63.7668 26.8028C63.5728 24.3585 61.5164 23.6989 59.6735 23.0393Z" fill="#4D4D4D"/>
<path d="M71.0792 17.8454C69.76 17.8454 68.5766 18.3692 67.917 19.2227V12.6851C67.917 12.1613 67.5291 11.7539 66.9859 11.7539C66.4621 11.7539 66.0547 12.1419 66.0547 12.6851V29.0971C66.0547 29.6209 66.4427 30.0283 66.9859 30.0283C67.5097 30.0283 67.917 29.6403 67.917 29.0971V22.8893C67.917 20.6389 68.9646 19.5331 71.0792 19.5331C73.1161 19.5331 73.9115 20.4643 73.9115 22.6953V29.0195C73.9115 29.5433 74.2995 29.9507 74.8427 29.9507C75.3859 29.9507 75.7739 29.5627 75.7739 29.0195V22.4237C75.8321 19.4167 74.2413 17.8454 71.0792 17.8454Z" fill="#4D4D4D"/>
<path d="M86.4413 27.2019C86.2473 27.2019 86.1115 27.2601 85.8399 27.3959C85.3161 27.7839 84.4625 28.4435 83.0657 28.4435C80.8154 28.4435 79.7096 26.9885 79.7096 24.0204C79.7096 21.1104 80.8348 19.5973 83.0657 19.5973C84.6565 19.5973 85.3161 20.315 85.6459 20.7224C85.8399 20.994 86.1115 21.0522 86.3637 21.0522C86.8875 21.0522 87.2173 20.6642 87.2173 20.1986C87.2173 20.0047 87.1591 19.8689 87.0233 19.5973C86.8293 19.2675 85.5683 17.8125 83.0657 17.8125C79.5738 17.8125 77.7891 19.9271 77.7891 23.9428C77.7891 27.9585 79.632 30.1506 83.0657 30.1506C85.2385 30.1506 86.4995 29.1031 86.9651 28.7733C87.2367 28.5017 87.3531 28.3077 87.3531 28.0555C87.2949 27.5899 86.9069 27.2019 86.4413 27.2019Z" fill="#4D4D4D"/>
<path d="M94.3526 17.8454C93.0334 17.8454 91.8501 18.3692 91.1905 19.2227V12.6851C91.1905 12.1613 90.8025 11.7539 90.2593 11.7539C89.7355 11.7539 89.3281 12.1419 89.3281 12.6851V29.0971C89.3281 29.6209 89.7161 30.0283 90.2593 30.0283C90.7831 30.0283 91.1905 29.6403 91.1905 29.0971V22.8893C91.1905 20.6389 92.2381 19.5331 94.3526 19.5331C96.3896 19.5331 97.185 20.4643 97.185 22.6953V29.0195C97.185 29.5433 97.5729 29.9507 98.1161 29.9507C98.6593 29.9507 99.0473 29.5627 99.0473 29.0195V22.4237C99.1055 19.4167 97.5147 17.8454 94.3526 17.8454Z" fill="#4D4D4D"/>
<path d="M106.086 17.8516C103.506 17.8516 102.264 19.1125 101.799 19.8885C101.741 20.0243 101.663 20.1601 101.663 20.4123C101.663 20.8779 102.051 21.2659 102.517 21.2659C102.788 21.2659 103.04 21.1301 103.312 20.8779C104.107 20.0243 104.903 19.6169 106.086 19.6169C107.871 19.6169 108.86 20.6063 108.86 22.1971V22.7209H105.504C102.73 22.7209 100.945 24.0982 100.945 26.4068C100.945 28.7153 102.594 30.1703 105.427 30.1703C106.882 30.1703 108.123 29.6465 108.86 28.7153V29.1033C108.86 29.6271 109.248 30.0345 109.792 30.0345C110.315 30.0345 110.723 29.6465 110.723 29.1033V22.2359C110.781 19.5587 108.996 17.8516 106.086 17.8516ZM105.621 28.4631C104.36 28.4631 102.924 28.1333 102.924 26.4844C102.924 24.7772 104.573 24.5056 105.504 24.5056H108.86V25.4368C108.919 27.4738 107.211 28.4631 105.621 28.4631Z" fill="#4D4D4D"/>
<path d="M117.291 28.264C116.496 28.264 115.972 27.7402 115.972 26.7508V20.0191H117.427C117.95 20.0191 118.358 19.6311 118.358 19.088C118.358 18.5448 117.97 18.1568 117.427 18.1568H115.972V15.7124C115.972 15.1886 115.506 14.7812 115.041 14.7812C114.517 14.7812 114.109 15.2468 114.109 15.7124V18.1762H113.314C112.79 18.1762 112.383 18.5642 112.383 19.1074C112.383 19.6505 112.771 20.0385 113.314 20.0385H114.109V26.7702C114.109 28.749 115.37 30.0681 117.349 30.0681C117.873 30.0681 118.28 29.6801 118.28 29.1369C118.222 28.652 117.756 28.264 117.291 28.264Z" fill="#4D4D4D"/>
<path d="M13.1747 37.7551C6.98592 37.7551 2 32.7498 2 26.5416C2 20.3335 7.00533 15.3281 13.1747 15.3281H21.5945C23.1659 15.3281 24.427 16.5892 24.427 18.1606V26.5416C24.4076 32.7498 19.4216 37.7551 13.1747 37.7551Z" fill="#25C16F"/>
<path d="M16.7044 21.9219H11.098C9.5072 21.9219 8.26562 23.1828 8.26562 24.7542V29.5653C8.26562 29.8951 8.53722 30.1667 8.86701 30.1667H16.6462C18.237 30.1667 19.4786 28.9057 19.4786 27.3344V24.7542C19.4592 23.1828 18.2176 21.9219 16.7044 21.9219ZM14.6481 27.9163H10.5548C10.225 27.9163 10.031 27.6448 10.031 27.3926C10.031 27.1404 10.3026 26.8688 10.5548 26.8688H14.6481C14.9779 26.8688 15.1719 27.1404 15.1719 27.3926C15.1719 27.6448 14.9779 27.9163 14.6481 27.9163ZM17.1506 25.278H10.5548C10.225 25.278 10.031 25.0064 10.031 24.7542C10.031 24.4244 10.3026 24.2304 10.5548 24.2304H17.1506C17.4804 24.2304 17.6744 24.502 17.6744 24.7542C17.6744 25.0064 17.4222 25.278 17.1506 25.278Z" fill="white"/>
</svg>
