<svg width="191" height="28" viewBox="0 0 191 28" fill="none" xmlns="http://www.w3.org/2000/svg">
<g clip-path="url(#clip0_33871_43606)">
<path d="M26.7477 4.27804L23.5148 1.61996C22.1128 0.466541 20.0784 0.466541 18.6763 1.61996L14.7652 4.8352L10.8572 1.61996C9.45529 0.466541 7.42393 0.464958 6.02038 1.6168L2.77952 4.27804C1.55096 5.2863 0.841309 6.78315 0.841309 8.3627V14.9826C0.841309 16.5592 1.54985 18.0541 2.77485 19.062L11.3336 26.1043C13.3206 27.7385 16.2035 27.7385 18.1891 26.1043L26.7479 19.062C27.9738 18.0532 28.6829 16.5571 28.6829 14.9793V8.35953C28.6829 6.78315 27.9732 5.2863 26.7479 4.27804H26.7477ZM26.1595 14.5419C26.1595 15.6548 25.6581 16.7114 24.7938 17.4231L17.1813 23.6866C15.7793 24.8401 13.7449 24.8401 12.3413 23.6866L4.72881 17.4231C3.86461 16.7114 3.36464 15.6548 3.36464 14.5419V8.80125C3.36464 7.6868 3.86621 6.63019 4.73361 5.91848L7.02659 4.03617C7.84514 3.36356 9.03113 3.36502 9.84796 4.03776L12.7908 6.4586L8.49646 9.98755C7.43512 10.8616 7.43352 12.4739 8.49486 13.348L13.3412 17.3452C14.1596 18.0195 15.3472 18.021 16.1658 17.3468L21.0262 13.348C22.0876 12.4739 22.0876 10.8616 21.0262 9.98755L18.6667 8.0463C18.5499 7.95022 18.3804 7.95009 18.2636 8.0463L16.7826 9.26379C16.6308 9.38862 16.6308 9.61915 16.7826 9.74398L18.5377 11.188C18.8422 11.4378 18.8422 11.8981 18.5377 12.1479L15.1597 14.9292C14.9246 15.1211 14.5856 15.1211 14.3522 14.9276L10.9836 12.1494C10.6808 11.8997 10.6808 11.4392 10.9852 11.1894L13.712 8.94812L14.3617 8.41434L16.7383 6.46018L18.6261 4.90876L19.6844 4.03788C20.5028 3.36514 21.6888 3.36514 22.5057 4.03788L24.794 5.9186C25.6582 6.63031 26.1598 7.68546 26.1598 8.79979V14.5419H26.1595Z" fill="black"/>
<path d="M38.5996 3.5332H44.6685C44.8237 3.5332 44.9495 3.65767 44.9495 3.81136V5.62924C44.9495 5.78281 44.8238 5.9074 44.6685 5.9074H38.9536C37.7509 5.9074 36.776 6.8723 36.776 8.06262V9.98427C36.776 10.1378 36.9017 10.2624 37.057 10.2624H43.3767C43.5318 10.2624 43.6577 10.3869 43.6577 10.5406V12.2266C43.6577 12.3801 43.532 12.5047 43.3767 12.5047H37.057C36.9018 12.5047 36.776 12.6292 36.776 12.7829V19.195C36.776 19.3485 36.6502 19.4731 36.4949 19.4731H34.5252C34.37 19.4731 34.2441 19.3487 34.2441 19.195V7.84378C34.2441 5.46313 36.1942 3.5332 38.5996 3.5332Z" fill="black"/>
<path d="M66.1255 8.76604C65.3998 8.12144 64.4076 7.79883 63.1492 7.79883C63.1146 7.79883 63.0804 7.79956 63.0462 7.80041C63.0128 7.79968 62.9793 7.79883 62.9459 7.79883C61.7121 7.79883 60.592 8.28 59.7663 9.06295C59.677 9.14772 59.5288 9.08548 59.5288 8.96297V8.38461C59.5288 8.23104 59.403 8.10646 59.2478 8.10646H57.4109C57.2558 8.10646 57.1299 8.23092 57.1299 8.38461V19.193C57.1299 19.3466 57.2556 19.4712 57.4109 19.4712H59.381C59.5362 19.4712 59.6621 19.3467 59.6621 19.193V12.7667C59.6621 12.3565 59.7288 11.9681 59.862 11.6017C59.9953 11.2356 60.1803 10.9168 60.4173 10.6454C60.6539 10.3745 60.9427 10.1618 61.2834 10.0079C61.6239 9.85407 62.0087 9.7771 62.4384 9.7771C63.1936 9.7771 63.7488 9.97878 64.1043 10.3816C64.4597 10.7849 64.6519 11.4334 64.6818 12.327V19.193C64.6818 19.3466 64.8076 19.4712 64.9628 19.4712H66.9329C67.0881 19.4712 67.214 19.3467 67.214 19.193V11.6676C67.214 10.3782 66.851 9.41102 66.1256 8.76592L66.1255 8.76604Z" fill="black"/>
<path d="M55.2721 8.38228V20.5006C55.2721 22.8817 53.3222 24.8115 50.917 24.8115H46.0827C45.9273 24.8115 45.8012 24.6867 45.8012 24.5329V22.7157C45.8012 22.5619 45.9273 22.4371 46.0827 22.4371H50.5623C51.7653 22.4371 52.8729 21.4491 52.8729 20.2584V18.6179C52.8729 18.4946 52.7237 18.4299 52.633 18.5151C51.8076 19.2961 50.6885 19.7766 49.4562 19.7766C49.4224 19.7766 49.3893 19.7759 49.3554 19.7751C49.3216 19.7759 49.287 19.7766 49.2532 19.7766C47.9948 19.7766 47.0025 19.4546 46.2764 18.8099C45.551 18.1643 45.188 17.1976 45.188 15.908V8.38228C45.188 8.22932 45.3141 8.10449 45.4695 8.10449H47.4394C47.5948 8.10449 47.7201 8.22932 47.7201 8.38228V15.2488C47.7501 16.1424 47.9424 16.791 48.2977 17.1938C48.653 17.5972 49.2084 17.7982 49.9637 17.7982C50.3929 17.7982 50.7783 17.7213 51.1183 17.5675C51.459 17.4137 51.7482 17.2013 51.9843 16.9304C52.2212 16.6587 52.4067 16.3404 52.5397 15.9742C52.6727 15.6073 52.7396 15.219 52.7396 14.8087V8.38228C52.7396 8.22932 52.8658 8.10449 53.0203 8.10449H54.9909C55.1456 8.10449 55.2717 8.22932 55.2717 8.38228H55.2721Z" fill="black"/>
<path d="M77.3359 3.81136V8.96809C77.3359 9.09012 77.1881 9.15333 77.0991 9.06869C76.6772 8.66753 76.1778 8.34565 75.6257 8.12644C75.6074 8.11779 75.5878 8.10914 75.5667 8.1005C74.308 7.58145 72.713 7.85742 72.713 7.85742L72.7135 7.85839C72.3515 7.91331 71.9932 8.00685 71.6389 8.14093C71.0392 8.3683 70.5062 8.72343 70.0397 9.20703C69.5733 9.69064 69.1991 10.3061 68.918 11.0535C68.6366 11.8009 68.4961 12.6878 68.4961 13.7133C68.4961 14.5634 68.6072 15.3585 68.8293 16.0983C69.0514 16.8386 69.3845 17.4798 69.8289 18.0217C70.2731 18.564 70.8318 18.9927 71.5059 19.3076C72.1794 19.6226 72.968 19.7801 73.8713 19.7801C73.8944 19.7801 73.9171 19.7787 73.9402 19.7784C73.9773 19.7793 74.0142 19.7801 74.0515 19.7801C75.2858 19.7801 76.4063 19.2985 77.2321 18.5149C77.3215 18.4302 77.4696 18.4923 77.4696 18.6148V19.1942C77.4696 19.3478 77.5954 19.4724 77.7507 19.4724H79.5875C79.7427 19.4724 79.8686 19.3479 79.8686 19.1942V3.81136C79.8686 3.65779 79.7428 3.5332 79.5875 3.5332H77.6174C77.4623 3.5332 77.3364 3.65767 77.3364 3.81136H77.3359ZM71.7943 16.593C71.535 16.227 71.3424 15.8092 71.2168 15.3401C71.0908 14.8712 71.028 14.3948 71.028 13.9113C71.028 13.3985 71.0835 12.8967 71.1947 12.4056C71.3058 11.9148 71.4907 11.4752 71.7499 11.0867C72.0088 10.6985 72.342 10.3832 72.7494 10.1415C73.1565 9.89962 73.6562 9.77881 74.2487 9.77881C75.226 9.77881 75.9995 10.1305 76.5698 10.834C77.1396 11.5374 77.4248 12.5193 77.4248 13.7796C77.4248 14.2779 77.3617 14.7653 77.2361 15.2413C77.1101 15.7178 76.9175 16.1465 76.6586 16.5273C76.3993 16.9085 76.0662 17.2163 75.659 17.4505C75.2516 17.6851 74.7668 17.8022 74.2043 17.8022C73.6563 17.8022 73.1826 17.6924 72.7828 17.4724C72.383 17.2526 72.0533 16.9596 71.7944 16.5932L71.7943 16.593Z" fill="black"/>
<path d="M92.4443 5.90484C89.7086 5.90484 87.4908 8.09977 87.4908 10.8075V11.9589C87.4908 14.7787 89.8006 17.0642 92.65 17.0642H96.024C96.1729 17.0642 96.293 17.1839 96.293 17.3308V19.1671C96.293 19.3141 96.1729 19.4333 96.024 19.4333H92.0632C88.142 19.4333 84.9634 16.2877 84.9634 12.4069V10.5596C84.9634 6.67878 88.142 3.5332 92.0632 3.5332H96.024C96.1729 3.5332 96.293 3.65207 96.293 3.79894V5.63898C96.293 5.78598 96.1729 5.90521 96.024 5.90521H92.4442L92.4443 5.90484Z" fill="black"/>
<path d="M108.124 11.3317C108.381 12.0613 108.511 12.8562 108.511 13.717C108.511 14.5919 108.381 15.3943 108.124 16.1232C107.866 16.8533 107.49 17.4803 106.996 18.005C106.503 18.5302 105.898 18.9425 105.184 19.2412C104.469 19.5401 103.655 19.6897 102.741 19.6897C101.827 19.6897 101.013 19.5401 100.298 19.2412C99.5834 18.9425 98.9791 18.5303 98.4856 18.005C97.9918 17.4799 97.6157 16.8533 97.3579 16.1232C97.0999 15.3945 96.9712 14.5919 96.9712 13.717C96.9712 12.8561 97.0999 12.0613 97.3579 11.3317C97.6157 10.6025 97.9917 9.97553 98.4856 9.45027C98.9791 8.92514 99.5832 8.51314 100.298 8.21416C101.013 7.91518 101.827 7.76562 102.741 7.76562C103.655 7.76562 104.469 7.91518 105.184 8.21416C105.898 8.51314 106.503 8.9255 106.996 9.45027C107.49 9.97541 107.866 10.6025 108.124 11.3317ZM105.991 13.7166C105.991 13.2353 105.928 12.7541 105.803 12.2726C105.677 11.7913 105.482 11.3645 105.217 10.9927C104.952 10.6204 104.612 10.318 104.2 10.0845C103.787 9.85155 103.301 9.7344 102.741 9.7344C102.181 9.7344 101.694 9.85155 101.282 10.0845C100.869 10.318 100.53 10.6204 100.265 10.9927C99.9992 11.3645 99.8038 11.7913 99.6787 12.2726C99.5532 12.7539 99.4908 13.2352 99.4908 13.7166C99.4908 14.2129 99.5532 14.698 99.6787 15.1717C99.804 15.6458 99.9994 16.0722 100.265 16.4517C100.53 16.8312 100.869 17.1375 101.282 17.3704C101.694 17.6039 102.181 17.7206 102.741 17.7206C103.301 17.7206 103.787 17.6039 104.2 17.3704C104.612 17.1375 104.952 16.8312 105.217 16.4517C105.482 16.0722 105.677 15.6458 105.803 15.1717C105.928 14.6981 105.991 14.2125 105.991 13.7166Z" fill="black"/>
<path d="M123.107 7.80176C124.316 7.80176 125.255 8.09392 125.926 8.67751C126.597 9.2611 126.933 10.2385 126.933 11.6102V19.1477C126.933 19.2998 126.808 19.4228 126.654 19.4228H124.69C124.537 19.4228 124.412 19.2997 124.412 19.1477V12.8134C124.412 12.3615 124.397 11.9493 124.368 11.577C124.338 11.2052 124.254 10.8844 124.114 10.6144C123.973 10.3444 123.763 10.1365 123.483 9.99035C123.203 9.84506 122.82 9.77187 122.333 9.77187C121.478 9.77187 120.859 10.0342 120.476 10.5598C120.092 11.085 119.901 11.8292 119.901 12.7918V19.1477C119.901 19.2998 119.776 19.4233 119.622 19.4233H117.659C117.505 19.4233 117.38 19.2998 117.38 19.1477V12.1575C117.38 11.3696 117.236 10.7749 116.949 10.3736C116.661 9.97282 116.134 9.77175 115.368 9.77175C115.043 9.77175 114.73 9.83739 114.428 9.96855C114.126 10.1002 113.86 10.2897 113.632 10.5377C113.403 10.786 113.219 11.0923 113.079 11.4569C112.939 11.8219 112.869 12.2376 112.869 12.7044V19.1477C112.869 19.2998 112.744 19.4233 112.591 19.4233H110.627C110.473 19.4233 110.348 19.2998 110.348 19.1477V8.38401C110.348 8.2319 110.473 8.10841 110.627 8.10841H112.458C112.612 8.10841 112.736 8.2319 112.736 8.38401V8.95774C112.736 9.07916 112.883 9.14176 112.972 9.05785C113.791 8.28049 114.902 7.80298 116.126 7.80298C116.159 7.80298 116.192 7.80383 116.226 7.80468H116.241V7.80346H116.234C116.262 7.8031 116.29 7.80225 116.319 7.80225C116.346 7.80225 116.373 7.8031 116.4 7.80346H116.42C117.074 7.81796 117.686 7.97006 118.254 8.26137C118.782 8.53271 119.175 8.9357 119.432 9.47021H119.432C119.454 9.5171 119.502 9.54949 119.558 9.54949C119.603 9.54949 119.643 9.52867 119.668 9.49578H119.669C120.062 9.00122 120.508 8.60432 121.007 8.3057C121.567 7.97006 122.267 7.80176 123.107 7.80176H123.107Z" fill="black"/>
<path d="M141.931 7.80176C143.14 7.80176 144.08 8.09392 144.751 8.67751C145.422 9.2611 145.757 10.2385 145.757 11.6102V19.1477C145.757 19.2998 145.632 19.4228 145.479 19.4228H143.515C143.361 19.4228 143.236 19.2997 143.236 19.1477V12.8134C143.236 12.3615 143.221 11.9493 143.192 11.577C143.163 11.2052 143.078 10.8844 142.938 10.6144C142.798 10.3444 142.588 10.1365 142.308 9.99035C142.027 9.84506 141.644 9.77187 141.158 9.77187C140.302 9.77187 139.683 10.0342 139.3 10.5598C138.916 11.085 138.725 11.8292 138.725 12.7918V19.1477C138.725 19.2998 138.6 19.4233 138.447 19.4233H136.483C136.329 19.4233 136.204 19.2998 136.204 19.1477V12.1575C136.204 11.3696 136.061 10.7749 135.773 10.3736C135.485 9.97282 134.958 9.77175 134.192 9.77175C133.867 9.77175 133.554 9.83739 133.252 9.96855C132.95 10.1002 132.684 10.2897 132.456 10.5377C132.228 10.786 132.043 11.0923 131.903 11.4569C131.763 11.8219 131.693 12.2376 131.693 12.7044V19.1477C131.693 19.2998 131.568 19.4233 131.415 19.4233H129.451C129.297 19.4233 129.172 19.2998 129.172 19.1477V8.38401C129.172 8.2319 129.297 8.10841 129.451 8.10841H131.282C131.436 8.10841 131.561 8.2319 131.561 8.38401V8.95774C131.561 9.07916 131.707 9.14176 131.796 9.05785C132.615 8.28049 133.726 7.80298 134.95 7.80298C134.984 7.80298 135.017 7.80383 135.05 7.80468H135.065V7.80346H135.058C135.086 7.8031 135.114 7.80225 135.143 7.80225C135.17 7.80225 135.197 7.8031 135.224 7.80346H135.244C135.899 7.81796 136.51 7.97006 137.078 8.26137C137.606 8.53271 137.999 8.9357 138.256 9.47021H138.257C138.279 9.5171 138.326 9.54949 138.382 9.54949C138.427 9.54949 138.467 9.52867 138.493 9.49578H138.493C138.887 9.00122 139.332 8.60432 139.831 8.3057C140.391 7.97006 141.091 7.80176 141.932 7.80176H141.931H141.931Z" fill="black"/>
<path d="M150.065 14.7785C150.077 15.1256 150.14 15.3323 150.251 15.6952C150.376 16.1054 150.565 16.4645 150.817 16.772C151.068 17.0795 151.387 17.3249 151.772 17.5081C152.156 17.6913 152.615 17.7828 153.148 17.7828C153.888 17.7828 154.483 17.6256 154.935 17.3104C155.344 17.0251 155.659 16.6102 155.88 16.0658C155.922 15.9614 156.025 15.8932 156.139 15.8932H157.984C158.169 15.8932 158.305 16.067 158.255 16.2425C158.117 16.7183 157.917 17.151 157.655 17.5407C157.329 18.0242 156.937 18.4305 156.478 18.7602C156.019 19.0898 155.505 19.339 154.935 19.5073C154.366 19.6751 153.77 19.7599 153.148 19.7599C152.245 19.7599 151.446 19.6134 150.75 19.3204C150.055 19.0274 149.466 18.6175 148.986 18.0899C148.504 17.5625 148.142 16.9334 147.898 16.2007C147.654 15.4681 147.532 14.6626 147.532 13.7839C147.532 12.9784 147.661 12.213 147.92 11.488C148.179 10.763 148.549 10.1259 149.03 9.57637C149.511 9.02736 150.092 8.59162 150.773 8.26962C151.453 7.94762 152.223 7.78613 153.082 7.78613C153.984 7.78613 154.794 7.97271 155.512 8.34622C156.23 8.71973 156.826 9.21382 157.3 9.82895C157.773 10.444 158.117 11.151 158.332 11.9493C158.525 12.6692 158.589 13.5845 158.524 14.3802C158.512 14.5241 158.391 14.6353 158.244 14.6353H150.204C150.125 14.6353 150.062 14.7005 150.065 14.7784L150.065 14.7785ZM155.814 12.7732C155.896 12.7732 155.962 12.7033 155.953 12.6228C155.915 12.2812 155.834 11.9502 155.712 11.6308C155.571 11.2649 155.379 10.9462 155.134 10.6754C154.89 10.4045 154.594 10.1847 154.247 10.0164C153.899 9.84807 153.51 9.76331 153.081 9.76331C152.637 9.76331 152.234 9.8404 151.871 9.99421C151.509 10.148 151.198 10.3605 150.939 10.6314C150.68 10.9027 150.473 11.2213 150.318 11.5872C150.18 11.9113 150.097 12.2584 150.07 12.6282C150.064 12.707 150.129 12.7735 150.209 12.7735H155.814L155.815 12.7731L155.814 12.7732Z" fill="black"/>
<path d="M167.121 8.12525V9.967C167.121 10.1353 166.97 10.2634 166.802 10.2404C166.728 10.2302 166.654 10.2208 166.579 10.2119C166.394 10.1897 166.214 10.1792 166.037 10.1792C165.609 10.1792 165.208 10.2631 164.832 10.4305C164.457 10.5988 164.128 10.8463 163.849 11.1746C163.568 11.5026 163.348 11.9076 163.185 12.3889C163.023 12.8702 162.943 13.4248 162.943 14.0518V19.158C162.943 19.3101 162.818 19.4336 162.664 19.4336H160.701C160.547 19.4336 160.422 19.3101 160.422 19.158V8.39781C160.422 8.2457 160.547 8.1227 160.701 8.1227H162.509C162.663 8.1227 162.787 8.24619 162.787 8.39866V8.97202C162.787 9.09295 162.934 9.15519 163.023 9.07164C163.841 8.29514 164.952 7.81726 166.176 7.81726C166.209 7.81726 166.242 7.81811 166.275 7.81896H166.29V7.81726H166.096C166.12 7.81689 166.145 7.81641 166.17 7.81641C166.465 7.81641 166.667 7.82359 166.777 7.83808C166.81 7.84235 166.844 7.84697 166.877 7.85124C167.016 7.8695 167.12 7.9863 167.12 8.12513L167.121 8.12525Z" fill="black"/>
<path d="M171.328 10.562C171.019 10.8615 170.761 11.2772 170.555 11.8092C170.348 12.3421 170.245 13.0385 170.245 13.8989C170.245 14.3657 170.3 14.8327 170.411 15.299C170.522 15.7663 170.699 16.1816 170.942 16.5462C171.185 16.9108 171.498 17.206 171.881 17.4322C172.264 17.6588 172.728 17.7717 173.273 17.7717C174.01 17.7717 174.618 17.5455 175.097 17.0931C175.531 16.6838 175.817 16.1241 175.955 15.4149C175.98 15.2846 176.094 15.1896 176.227 15.1896H178.179C178.356 15.1896 178.487 15.3503 178.453 15.5219C178.189 16.8334 177.645 17.8496 176.822 18.5699C175.93 19.3506 174.747 19.7404 173.274 19.7404C172.375 19.7404 171.582 19.5908 170.897 19.2918C170.212 18.9932 169.633 18.5844 169.162 18.0668C168.69 17.5488 168.333 16.9325 168.09 16.2177C167.846 15.5035 167.725 14.7299 167.725 13.8985C167.725 13.0525 167.843 12.2573 168.078 11.5135C168.314 10.7698 168.668 10.1246 169.139 9.57766C169.611 9.03036 170.197 8.60058 170.897 8.28662C171.597 7.97314 172.419 7.81641 173.362 7.81641C174.025 7.81641 174.655 7.90032 175.252 8.06777C175.849 8.23559 176.38 8.48732 176.844 8.82296C177.308 9.1586 177.687 9.58156 177.982 10.0918C178.232 10.5245 178.397 11.0251 178.478 11.5937C178.501 11.7594 178.37 11.9076 178.201 11.9076H176.226C176.094 11.9076 175.98 11.8165 175.953 11.6887C175.826 11.0966 175.556 10.6408 175.141 10.3214C174.677 9.96445 174.091 9.78554 173.384 9.78554C173.06 9.78554 172.713 9.8401 172.345 9.94995C171.976 10.0594 171.637 10.2639 171.328 10.5624L171.328 10.562Z" fill="black"/>
<path d="M182.36 14.7785C182.372 15.1256 182.435 15.3323 182.546 15.6952C182.671 16.1054 182.86 16.4645 183.112 16.772C183.363 17.0795 183.681 17.3249 184.066 17.5081C184.451 17.6913 184.91 17.7828 185.443 17.7828C186.183 17.7828 186.778 17.6256 187.23 17.3104C187.639 17.0251 187.954 16.6102 188.175 16.0658C188.217 15.9614 188.32 15.8932 188.434 15.8932H190.279C190.464 15.8932 190.601 16.067 190.55 16.2425C190.412 16.7183 190.212 17.151 189.95 17.5407C189.624 18.0242 189.232 18.4305 188.773 18.7602C188.314 19.0898 187.8 19.339 187.23 19.5073C186.66 19.6751 186.065 19.7599 185.443 19.7599C184.54 19.7599 183.741 19.6134 183.045 19.3204C182.35 19.0274 181.761 18.6175 181.281 18.0899C180.799 17.5625 180.437 16.9334 180.193 16.2007C179.948 15.4681 179.827 14.6626 179.827 13.7839C179.827 12.9784 179.956 12.213 180.215 11.488C180.474 10.763 180.844 10.1259 181.325 9.57637C181.806 9.02736 182.387 8.59162 183.068 8.26962C183.748 7.94762 184.518 7.78613 185.377 7.78613C186.279 7.78613 187.089 7.97271 187.807 8.34622C188.525 8.71973 189.121 9.21382 189.595 9.82895C190.068 10.444 190.412 11.151 190.627 11.9493C190.82 12.6692 190.884 13.5845 190.819 14.3802C190.807 14.5241 190.686 14.6353 190.539 14.6353H182.499C182.42 14.6353 182.357 14.7005 182.36 14.7784L182.36 14.7785ZM188.109 12.7732C188.191 12.7732 188.257 12.7033 188.248 12.6228C188.21 12.2812 188.129 11.9502 188.007 11.6308C187.866 11.2649 187.674 10.9462 187.429 10.6754C187.185 10.4045 186.889 10.1847 186.541 10.0164C186.193 9.84807 185.805 9.76331 185.376 9.76331C184.932 9.76331 184.529 9.8404 184.166 9.99421C183.804 10.148 183.492 10.3605 183.234 10.6314C182.975 10.9027 182.768 11.2213 182.612 11.5872C182.475 11.9113 182.392 12.2584 182.365 12.6282C182.359 12.707 182.424 12.7735 182.504 12.7735H188.109L188.109 12.7731L188.109 12.7732Z" fill="black"/>
</g>
<defs>
<clipPath id="clip0_33871_43606">
<rect width="190" height="26.5762" fill="white" transform="translate(0.840332 0.753906)"/>
</clipPath>
</defs>
</svg>
