<svg width="48" height="48" viewBox="0 0 48 48" fill="none" xmlns="http://www.w3.org/2000/svg">
<g clip-path="url(#clip0_1467_16365)">
<path d="M26.11 42.52C23.42 42.564 21.46 41.7 21.338 39.35C21.288 38.47 21.302 37.53 21.342 36.966C21.616 33.534 24.008 31.066 26.402 30.586C29.366 29.998 31.312 31.346 31.312 35.206C31.312 37.812 30.592 42.442 26.132 42.52H26.1H26.11ZM23.846 0C10.64 0 0 10.594 0 24.448C0 31.636 3.84 38.572 9.246 42.742C10.286 43.542 11.522 43.476 12.24 42.782C12.834 42.212 12.784 40.814 11.67 39.832C7.35 36.06 4.366 30.312 4.366 24.562C4.366 14.262 13.526 5.582 23.846 5.582C36.406 5.582 43.118 15.786 43.118 24.442C43.118 29.742 40.538 36.122 35.866 40.19C35.896 40.19 36.852 38.306 36.852 34.622C36.852 28.362 32.9 24.95 28.292 24.95C24.966 24.95 22.958 26.146 21.612 27.254C21.612 24.71 21.702 19.95 21.702 19.95C21.702 16.806 20.622 14.29 16.762 14.23C14.542 14.2 12.898 15.216 11.882 17.524C11.522 18.396 11.642 19.356 12.39 19.774C12.99 20.134 14.01 19.866 14.482 19.206C14.812 18.786 14.99 18.698 15.29 18.726C15.77 18.786 15.804 19.536 15.804 20.046C15.832 20.432 16.19 25.852 15.98 39.776C15.96 43.596 18.986 48 26.2 48C29.32 48 31.712 47.13 35.186 45.156C40.486 42.16 48 35.516 48 24.256C47.906 10.09 36.53 0 23.866 0" fill="black"/>
</g>
<defs>
<clipPath id="clip0_1467_16365">
<rect width="48" height="48" fill="white"/>
</clipPath>
</defs>
</svg>
