<svg width="48" height="48" viewBox="0 0 48 48" fill="none" xmlns="http://www.w3.org/2000/svg">
<g clip-path="url(#clip0_1466_15814)">
<path d="M44.5619 19.6421C45.0986 18.0259 45.2842 16.3137 45.1064 14.62C44.9285 12.9263 44.3913 11.29 43.5305 9.82055C42.2545 7.5994 40.306 5.84086 37.9661 4.79847C35.6262 3.75607 33.0157 3.48367 30.5109 4.02055C29.0879 2.43768 27.2735 1.25709 25.2499 0.597375C23.2262 -0.0623434 21.0646 -0.17797 18.9821 0.262108C16.8996 0.702186 14.9696 1.68247 13.3859 3.10452C11.8021 4.52656 10.6205 6.34029 9.95953 8.36355C8.29087 8.70573 6.71445 9.40012 5.33564 10.4003C3.95683 11.4005 2.80739 12.6835 1.96413 14.1636C0.674203 16.381 0.122896 18.9512 0.389915 21.5026C0.656935 24.054 1.72845 26.4544 3.44953 28.3567C2.91086 29.9722 2.72338 31.6841 2.89963 33.3778C3.07588 35.0716 3.6118 36.7082 4.47153 38.1781C5.74921 40.4001 7.69937 42.159 10.041 43.2014C12.3825 44.2438 14.9946 44.5159 17.5007 43.9783C18.6313 45.2515 20.0204 46.2687 21.5754 46.9622C23.1303 47.6557 24.8154 48.0095 26.5179 47.9999C29.0852 48.0023 31.5868 47.1888 33.6617 45.6769C35.7365 44.165 37.2773 42.0329 38.0615 39.5883C39.73 39.2456 41.3062 38.5509 42.6849 37.5507C44.0637 36.5505 45.2132 35.2678 46.0569 33.7881C47.3316 31.574 47.8734 29.0134 47.6049 26.4727C47.3364 23.9319 46.2713 21.541 44.5619 19.6421ZM26.5179 44.8583C24.4154 44.8617 22.3787 44.1247 20.7651 42.7767L21.0489 42.6159L30.6055 37.0995C30.8434 36.9601 31.0409 36.7611 31.1786 36.5222C31.3163 36.2833 31.3894 36.0127 31.3909 35.7369V22.2631L35.4309 24.6003C35.4509 24.6105 35.4682 24.6252 35.4814 24.6432C35.4946 24.6613 35.5034 24.6822 35.5069 24.7043V35.8695C35.5019 38.252 34.5532 40.5354 32.8685 42.2201C31.1838 43.9047 28.9004 44.8533 26.5179 44.8583ZM7.19653 36.6075C6.14208 34.7868 5.76348 32.6525 6.12733 30.5801L6.41133 30.7505L15.9773 36.2669C16.214 36.4058 16.4835 36.4791 16.7579 36.4791C17.0324 36.4791 17.3018 36.4058 17.5385 36.2669L29.2241 29.5299V34.1947C29.223 34.2189 29.2165 34.2425 29.205 34.2638C29.1935 34.2851 29.1773 34.3036 29.1577 34.3177L19.4781 39.9003C17.4124 41.0904 14.9588 41.412 12.6562 40.7946C10.3535 40.1773 8.3899 38.6714 7.19653 36.6075ZM4.67973 15.7912C5.7415 13.9587 7.4174 12.561 9.41073 11.8456V23.1999C9.40714 23.4743 9.47723 23.7445 9.61369 23.9825C9.75015 24.2205 9.94798 24.4175 10.1865 24.5529L21.8153 31.2615L17.7751 33.5985C17.7533 33.6102 17.7289 33.6162 17.7041 33.6162C17.6794 33.6162 17.655 33.6102 17.6331 33.5985L7.97253 28.0255C5.91066 26.8304 4.40643 24.8668 3.78927 22.5649C3.1721 20.263 3.4923 17.8103 4.67973 15.744V15.7912ZM37.8723 23.5027L26.2057 16.728L30.2365 14.4C30.2584 14.3883 30.2828 14.3823 30.3075 14.3823C30.3323 14.3823 30.3567 14.3883 30.3785 14.4L40.0391 19.9825C41.5162 20.8349 42.7204 22.0898 43.5111 23.6008C44.3017 25.1118 44.6462 26.8165 44.5044 28.516C44.3625 30.2154 43.7401 31.8394 42.7099 33.1984C41.6797 34.5574 40.2841 35.5953 38.6861 36.191V24.8365C38.6778 24.5627 38.5983 24.2957 38.4556 24.0619C38.3129 23.828 38.112 23.6354 37.8723 23.5027ZM41.8937 17.4565L41.6097 17.2861L32.0627 11.7226C31.8246 11.5828 31.5535 11.5091 31.2773 11.5091C31.0012 11.5091 30.7301 11.5828 30.4919 11.7226L18.8161 18.4593V13.7948C18.8137 13.771 18.8176 13.7471 18.8276 13.7254C18.8376 13.7038 18.8533 13.6852 18.8729 13.6718L28.5335 8.09855C30.0142 7.24559 31.707 6.83183 33.4142 6.90566C35.1213 6.9795 36.7722 7.53789 38.1736 8.51552C39.5751 9.49314 40.6692 10.8496 41.328 12.4262C41.9868 14.0028 42.1831 15.7345 41.8939 17.4185L41.8937 17.4565ZM16.6111 25.7259L12.5711 23.3983C12.5509 23.3862 12.5336 23.3697 12.5205 23.3501C12.5074 23.3305 12.4987 23.3083 12.4951 23.2849V12.1484C12.4974 10.4399 12.9859 8.76738 13.9036 7.32635C14.8214 5.88532 16.1304 4.73532 17.6776 4.01083C19.2248 3.28633 20.9464 3.01727 22.6409 3.23511C24.3354 3.45294 25.9329 4.14867 27.2465 5.24095L26.9625 5.40195L17.4061 10.918C17.1683 11.0574 16.9708 11.2564 16.8331 11.4953C16.6954 11.7342 16.6222 12.0048 16.6207 12.2806L16.6111 25.7259ZM18.8063 20.9951L24.0103 17.9955L29.2241 20.9951V26.9939L24.0293 29.9933L18.8159 26.9939L18.8063 20.9951Z" fill="black"/>
</g>
<defs>
<clipPath id="clip0_1466_15814">
<rect width="48" height="48" fill="white"/>
</clipPath>
</defs>
</svg>
