<svg width="48" height="48" viewBox="0 0 48 48" fill="none" xmlns="http://www.w3.org/2000/svg">
<g clip-path="url(#clip0_1466_15750)">
<path fill-rule="evenodd" clip-rule="evenodd" d="M17.599 0C14.9456 0.00195719 12.7982 2.15095 12.8001 4.79902C12.7982 7.4471 14.9475 9.59609 17.6009 9.59804H22.4017V4.80098C22.4037 2.15291 20.2543 0.00391437 17.599 0C17.6009 0 17.6009 0 17.599 0ZM17.599 12.8H4.80079C2.14741 12.802 -0.00195575 14.9509 5.35946e-06 17.599C-0.00391685 20.2471 2.14545 22.3961 4.79883 22.4H17.599C20.2523 22.398 22.4017 20.2491 22.3997 17.601C22.4017 14.9509 20.2523 12.802 17.599 12.8Z" fill="#36C5F0"/>
<path fill-rule="evenodd" clip-rule="evenodd" d="M48.0013 17.599C48.0033 14.9509 45.8539 12.802 43.2005 12.8C40.5471 12.802 38.3978 14.9509 38.3997 17.599V22.4H43.2005C45.8539 22.398 48.0033 20.2491 48.0013 17.599ZM35.2012 17.599V4.79902C35.2031 2.15291 33.0557 0.00391437 30.4024 0C27.749 0.00195719 25.5996 2.15095 25.6016 4.79902V17.599C25.5976 20.2471 27.747 22.3961 30.4004 22.4C33.0538 22.398 35.2031 20.2491 35.2012 17.599Z" fill="#2EB67D"/>
<path fill-rule="evenodd" clip-rule="evenodd" d="M30.3984 48.0035C33.0518 48.0016 35.2012 45.8526 35.1992 43.2045C35.2012 40.5564 33.0518 38.4074 30.3984 38.4055H25.5977V43.2045C25.5957 45.8506 27.7451 47.9996 30.3984 48.0035ZM30.3984 35.2016H43.1986C45.8519 35.1996 48.0013 33.0506 47.9994 30.4025C48.0033 27.7545 45.8539 25.6055 43.2005 25.6016H30.4004C27.747 25.6035 25.5977 27.7525 25.5996 30.4006C25.5977 33.0506 27.7451 35.1996 30.3984 35.2016Z" fill="url(#paint0_linear_1466_15750)"/>
<path fill-rule="evenodd" clip-rule="evenodd" d="M1.34093e-06 30.4006C-0.00195976 33.0487 2.14741 35.1976 4.80079 35.1996C7.45416 35.1976 9.60353 33.0487 9.60157 30.4006V25.6016H4.80079C2.14741 25.6035 -0.00195976 27.7525 1.34093e-06 30.4006ZM12.8001 30.4006V43.2006C12.7962 45.8487 14.9456 47.9976 17.599 48.0016C20.2523 47.9996 22.4017 45.8506 22.3997 43.2025V30.4045C22.4037 27.7564 20.2543 25.6074 17.6009 25.6035C14.9456 25.6035 12.7982 27.7525 12.8001 30.4006Z" fill="url(#paint1_linear_1466_15750)"/>
</g>
<defs>
<linearGradient id="paint0_linear_1466_15750" x1="36.7985" y1="25.6016" x2="36.7985" y2="48.0035" gradientUnits="userSpaceOnUse">
<stop stop-color="#ECB22E"/>
<stop offset="1" stop-color="#ECB22E"/>
</linearGradient>
<linearGradient id="paint1_linear_1466_15750" x1="11.1999" y1="25.6016" x2="11.1999" y2="48.0016" gradientUnits="userSpaceOnUse">
<stop stop-color="#E01E5A"/>
<stop offset="1" stop-color="#E01E5A"/>
</linearGradient>
<clipPath id="clip0_1466_15750">
<rect width="48" height="48" fill="white"/>
</clipPath>
</defs>
</svg>
