<svg width="48" height="48" viewBox="0 0 48 48" fill="none" xmlns="http://www.w3.org/2000/svg">
<g clip-path="url(#clip0_1466_13415)">
<path d="M44.9788 41.3034H3.0113C1.37202 41.3034 0 40.0062 0 38.3194V9.18563C0 7.54119 1.33415 6.16406 3.0113 6.16406H44.9788C46.6181 6.16406 47.9901 7.50276 47.9901 9.18563V38.281C47.9518 40.0018 46.6176 41.3034 44.9788 41.3034Z" fill="url(#paint0_linear_1466_13415)"/>
<path opacity="0.1" d="M5.98439 41.2976L23.9377 28.1129L24.0522 27.3485L5.56565 14L5.52734 40.6429L5.98439 41.2976Z" fill="#221F1F"/>
<path d="M3.0113 41.2976C1.33415 41.2976 0 40.0004 0 38.3136V9.13748C0 7.45461 1.33415 7.14844 3.0113 7.14844C4.68844 7.14844 6.02259 7.49261 6.02259 9.13748V41.2924L3.0113 41.2976Z" fill="url(#paint1_linear_1466_13415)"/>
<path d="M3.0113 7.61592C5.14593 7.61592 5.56511 8.27107 5.56511 9.14592V40.8806H3.0113C2.33409 40.8803 1.68472 40.6102 1.20586 40.1297C0.727002 39.6492 0.45783 38.9976 0.457484 38.3181V9.14592C0.419179 8.22783 0.876662 7.61592 3.0113 7.61592ZM3.0113 7.19531C1.33415 7.19531 0 7.53949 0 9.14592V38.2793C0 40.0001 1.33415 41.3008 3.0113 41.3008H6.02259V9.14592C5.98429 7.50149 4.68845 7.19531 3.0113 7.19531ZM44.9788 7.61592C46.9228 7.61592 47.5326 7.99853 47.5326 9.06949V38.3561C47.5322 39.0356 47.2631 39.6872 46.7842 40.1677C46.3054 40.6482 45.656 40.9183 44.9788 40.9186H42.425V9.06949C42.3867 7.96009 43.0344 7.61592 44.9788 7.61592ZM44.9788 7.19531C43.3016 7.19531 41.9675 7.42462 41.9675 9.07342V41.3436H44.9788C46.6559 41.3436 47.9901 40.0049 47.9901 38.3221V9.03105C47.9518 7.38618 46.6176 7.19531 44.9788 7.19531Z" fill="url(#paint2_linear_1466_13415)"/>
<path d="M44.98 41.2978H41.9688V9.0656C41.9688 7.38274 43.3029 7.1875 44.98 7.1875C46.6572 7.1875 47.9913 7.4168 47.9913 9.0656V38.3522C47.953 39.9971 46.6189 41.2978 44.98 41.2978Z" fill="url(#paint3_linear_1466_13415)"/>
<path opacity="0.08" d="M32.1315 41.3025L0.265625 10.4085L1.94277 11.0969L24.1266 27.1228L47.9889 9.5625V38.3521C47.9889 39.997 46.6547 41.3352 44.9776 41.3352L32.1315 41.3025Z" fill="#221F1F"/>
<path d="M23.9401 28.1557L1.29837 11.6707C-0.0357804 10.6762 -0.417089 8.76401 0.574053 7.42531C1.56519 6.08662 3.47087 5.78088 4.84288 6.77496L23.9736 20.735L43.2232 6.58366C44.5626 5.58957 46.4343 5.89531 47.4206 7.27244C48.4118 8.61114 48.1066 10.4853 46.7346 11.4798L23.9401 28.1557Z" fill="url(#paint4_linear_1466_13415)"/>
<path d="M44.9805 6.46686C45.7814 6.46686 46.5815 6.84947 47.0768 7.53781C47.8778 8.6852 47.6488 10.2916 46.5049 11.1333L23.9398 27.6182L1.56441 11.3246C0.420919 10.4829 0.115785 8.83851 0.911484 7.72912C1.36853 7.04077 2.17381 6.61973 3.04612 6.61973C3.61808 6.61973 4.15174 6.77259 4.57092 7.11677L23.6681 21.0392L23.935 21.1921L24.2018 21.0392L43.4131 6.8879C43.9084 6.62016 44.4042 6.46729 44.9801 6.46729L44.9805 6.46686ZM44.9805 6.00825C44.3711 6.00825 43.7182 6.16112 43.2272 6.58216L23.9728 20.7326L4.80423 6.73416C4.30888 6.35199 3.66074 6.16068 3.01304 6.16068C2.05541 6.19912 1.10736 6.61929 0.535399 7.42731C-0.422226 8.76601 -0.0365647 10.6402 1.29715 11.6347L23.9389 28.1577L46.7382 11.4818C47.3797 11.011 47.8111 10.3061 47.9395 9.51903C48.0678 8.73198 47.8827 7.92585 47.4242 7.27444C46.8148 6.47079 45.8994 6.00781 44.9849 6.00781L44.9805 6.00825Z" fill="#D44C3D"/>
</g>
<defs>
<linearGradient id="paint0_linear_1466_13415" x1="23.995" y1="6.16406" x2="23.995" y2="41.3034" gradientUnits="userSpaceOnUse">
<stop stop-color="#F2F2F2"/>
<stop offset="1" stop-color="#F2F2F2"/>
</linearGradient>
<linearGradient id="paint1_linear_1466_13415" x1="3.0113" y1="7.14844" x2="3.0113" y2="41.2976" gradientUnits="userSpaceOnUse">
<stop stop-color="#D44C3D"/>
<stop offset="1" stop-color="#D44C3D"/>
</linearGradient>
<linearGradient id="paint2_linear_1466_13415" x1="23.995" y1="7.19531" x2="23.995" y2="41.3436" gradientUnits="userSpaceOnUse">
<stop stop-color="#D44C3D"/>
<stop offset="1" stop-color="#D44C3D"/>
</linearGradient>
<linearGradient id="paint3_linear_1466_13415" x1="44.98" y1="7.1875" x2="44.98" y2="41.2978" gradientUnits="userSpaceOnUse">
<stop stop-color="#D44C3D"/>
<stop offset="1" stop-color="#D44C3D"/>
</linearGradient>
<linearGradient id="paint4_linear_1466_13415" x1="24.0091" y1="6" x2="24.0091" y2="28.1557" gradientUnits="userSpaceOnUse">
<stop stop-color="#D44C3D"/>
<stop offset="0.641551" stop-color="#D44C3D"/>
</linearGradient>
<clipPath id="clip0_1466_13415">
<rect width="48" height="36" fill="white" transform="translate(0 6)"/>
</clipPath>
</defs>
</svg>
