<svg width="48" height="48" viewBox="0 0 48 48" fill="none" xmlns="http://www.w3.org/2000/svg">
<g clip-path="url(#clip0_1466_15824)">
<path d="M23.9209 0.625219H41.4774C42.2536 0.618498 43.0235 0.766433 43.7419 1.06039C44.4604 1.35436 45.1131 1.78846 45.662 2.33737C46.2109 2.88628 46.645 3.53901 46.939 4.25748C47.233 4.97595 47.3809 5.74577 47.3742 6.52202V24.0785C47.3727 30.2558 44.918 36.1797 40.55 40.5478C36.182 44.9158 30.2581 47.3704 24.0807 47.3719H23.9483C20.8873 47.3753 17.8556 46.7756 15.0266 45.6069C12.1975 44.4382 9.62641 42.7235 7.46027 40.5607C5.29428 38.3978 3.57604 35.8289 2.40384 33.0012C1.23164 30.1735 0.628495 27.1424 0.628906 24.0814C0.628906 11.1732 11.0401 0.762018 23.9223 0.629538L23.9209 0.625219Z" fill="url(#paint0_linear_1466_15824)"/>
<path d="M24.0001 11.0391C17.9682 11.0391 13.0781 15.8314 13.0781 21.7426V29.0203C13.0998 29.9577 13.4895 30.8509 14.166 31.5139C14.8426 32.1769 15.7539 32.5588 16.7105 32.58H19.8006V24.228H15.6275V21.8909C15.8817 17.4888 19.5978 14.0472 24.0971 14.0472C28.5963 14.0472 32.3256 17.5032 32.5666 21.8909V24.228H28.3392V32.58H31.131V32.7125C31.1016 34.5197 29.6146 35.977 27.7705 36.0058H24.435C24.1647 36.0058 23.8664 36.1383 23.8664 36.4047C23.8811 36.6927 24.1265 36.949 24.435 36.9619H27.7955C28.9433 36.9548 30.0419 36.5048 30.8536 35.7094C31.6652 34.914 32.1244 33.8373 32.1317 32.7125V32.4475C33.7774 32.0847 34.9235 30.6475 34.9235 28.9944V21.8765C35.0749 15.8458 30.1965 11.0391 24.0001 11.0391Z" fill="white"/>
</g>
<defs>
<linearGradient id="paint0_linear_1466_15824" x1="24.0017" y1="0.625" x2="24.0017" y2="47.372" gradientUnits="userSpaceOnUse">
<stop stop-color="#25C16F"/>
<stop offset="1" stop-color="#25C16F"/>
</linearGradient>
<clipPath id="clip0_1466_15824">
<rect width="48" height="48" fill="white"/>
</clipPath>
</defs>
</svg>
