<svg width="48" height="48" viewBox="0 0 48 48" fill="none" xmlns="http://www.w3.org/2000/svg">
<g clip-path="url(#clip0_1466_15765)">
<path fill-rule="evenodd" clip-rule="evenodd" d="M103.746 12.7057L103.293 10.5547H96.999V36.0607H104.271V18.7507C105.991 16.5007 108.894 16.9387 109.818 17.2252V10.5577C108.849 10.2097 105.449 9.57066 103.746 12.7027V12.7057ZM89.151 4.23666L82.047 5.74566L82.017 29.0887C82.017 33.3937 85.254 36.5782 89.574 36.5782C91.9515 36.5782 93.708 36.1252 94.6815 35.6137V29.6887C93.7485 30.0607 89.157 31.3957 89.157 27.1087V16.7587H94.6815V10.5532H89.157L89.151 4.23666ZM69.45 17.9557C69.45 16.8187 70.395 16.3807 71.922 16.3807C74.4497 16.4354 76.9301 17.0773 79.167 18.2557V11.4007C76.8605 10.4937 74.4003 10.0414 71.922 10.0687C66.036 10.0687 62.0865 13.1527 62.0865 18.3007C62.0865 26.3557 73.149 25.0477 73.149 28.5202C73.149 29.8792 71.979 30.2992 70.3545 30.2992C67.9455 30.2992 64.8345 29.3032 62.394 27.9742V34.9192C64.9063 36.0119 67.6148 36.582 70.3545 36.5947C76.404 36.5947 80.574 33.6067 80.574 28.3672C80.574 19.6732 69.4485 21.2272 69.4485 17.9527L69.45 17.9557ZM20.82 14.2732C20.82 12.2182 22.53 11.4232 25.293 11.4232C29.8659 11.522 34.3531 12.683 38.4 14.8147V2.40966C34.227 0.769726 29.7763 -0.0477806 25.293 0.00215723C14.643 0.00215723 7.5 5.58066 7.5 14.8957C7.5 29.4697 27.513 27.1027 27.513 33.3847C27.513 35.8417 25.413 36.6037 22.458 36.6037C18.1005 36.6037 12.4725 34.8007 8.058 32.4007V44.9677C12.603 46.9452 17.5029 47.9772 22.4595 48.0007C33.405 48.0007 40.95 42.5932 40.95 33.1162C40.95 17.3872 20.82 20.1967 20.82 14.2762V14.2732Z" fill="#6772E5"/>
</g>
<defs>
<clipPath id="clip0_1466_15765">
<rect width="48" height="48" fill="white"/>
</clipPath>
</defs>
</svg>
