<svg width="48" height="48" viewBox="0 0 48 48" fill="none" xmlns="http://www.w3.org/2000/svg">
<g clip-path="url(#clip0_1467_15860)">
<path d="M23.9648 0.03125C10.7526 0.03125 0 10.7838 0 23.9961C0 37.2084 10.7526 47.9609 23.9648 47.9609C37.2474 48.0312 48 37.2787 48 23.9961C48 10.7135 37.2474 0.03125 23.9648 0.03125ZM23.9648 41.7062C14.2665 41.7062 6.32503 33.7648 6.32503 23.9961C6.32503 14.2977 14.2665 6.35628 23.9648 6.35628C33.7335 6.35628 41.6749 14.2977 41.6749 23.9961C41.6749 33.7648 33.7335 41.7062 23.9648 41.7062Z" fill="#E31E26"/>
<path d="M29.939 23.0107C32.6947 23.0107 34.9287 20.7768 34.9287 18.021C34.9287 15.2652 32.6947 13.0312 29.939 13.0312C27.1832 13.0312 24.9492 15.2652 24.9492 18.021C24.9492 20.7768 27.1832 23.0107 29.939 23.0107Z" fill="#E31E26"/>
<path d="M29.939 34.9639C32.6947 34.9639 34.9287 32.7299 34.9287 29.9741C34.9287 27.2184 32.6947 24.9844 29.939 24.9844C27.1832 24.9844 24.9492 27.2184 24.9492 29.9741C24.9492 32.7299 27.1832 34.9639 29.939 34.9639Z" fill="#E31E26"/>
<path d="M17.9897 34.9639C20.7455 34.9639 22.9795 32.7299 22.9795 29.9741C22.9795 27.2184 20.7455 24.9844 17.9897 24.9844C15.234 24.9844 13 27.2184 13 29.9741C13 32.7299 15.234 34.9639 17.9897 34.9639Z" fill="#E31E26"/>
<path d="M17.9897 23.0107C20.7455 23.0107 22.9795 20.7768 22.9795 18.021C22.9795 15.2652 20.7455 13.0312 17.9897 13.0312C15.234 13.0312 13 15.2652 13 18.021C13 20.7768 15.234 23.0107 17.9897 23.0107Z" fill="#E31E26"/>
</g>
<defs>
<clipPath id="clip0_1467_15860">
<rect width="48" height="48" fill="white"/>
</clipPath>
</defs>
</svg>
