<svg width="50" height="48" viewBox="0 0 50 48" fill="none" xmlns="http://www.w3.org/2000/svg">
<path d="M41.8 0H8.2C4.22355 0 1 3.22355 1 7.2V40.8C1 44.7765 4.22355 48 8.2 48H41.8C45.7765 48 49 44.7765 49 40.8V7.2C49 3.22355 45.7765 0 41.8 0Z" fill="white"/>
<path d="M0.25 36.75H12.0437V11.3313H38.5V0H6.14687C2.21563 0 0.25 1.78646 0.25 5.35938" fill="#4285F4"/>
<path d="M38.5 0V11.25H49.75V5.18092C49.75 1.72697 47.9764 0 44.4291 0" fill="#1967D2"/>
<path d="M38.5 11.25H49.75V36.75H38.5" fill="#FBBC04"/>
<path d="M0.25 36.75V42.6791C0.25 46.2264 2.20724 48 6.12171 48H13V36.75" fill="#188038"/>
<path d="M11.5 36.75H38.5V48H11.5" fill="#34A853"/>
<path d="M38.5 48V36.75H49.75" fill="#EA4335"/>
<path d="M19 20.6214C19.121 20.1834 19.3881 19.783 19.7707 19.4656C20.1534 19.1482 20.6363 18.9266 21.1645 18.8259C21.6928 18.7252 22.2452 18.7495 22.759 18.8961C23.2727 19.0426 23.7272 19.3055 24.0707 19.6549C24.4142 20.0043 24.6329 20.4261 24.7021 20.8724C24.7712 21.3187 24.6879 21.7715 24.4617 22.1794C24.2356 22.5873 23.8755 22.934 23.4225 23.1798C22.9696 23.4257 22.4419 23.5611 21.8995 23.5704M21.8995 23.5704H20.8557M21.8995 23.5704C22.4405 23.5847 22.9665 23.7241 23.4181 23.973C23.8697 24.2218 24.2288 24.5702 24.4548 24.9786C24.6807 25.387 24.7646 25.8391 24.6968 26.2839C24.629 26.7286 24.4122 27.1482 24.0711 27.4952C23.73 27.8421 23.2781 28.1026 22.7665 28.2471C22.255 28.3916 21.7042 28.4144 21.1765 28.3128C20.6489 28.2113 20.1653 27.9895 19.7807 27.6726C19.396 27.3556 19.1256 26.9562 19 26.5194M26.6546 20.8398L29.7861 18.7646H30.25V18V29.25" stroke="#4285F4" stroke-width="1.875" stroke-linejoin="bevel"/>
</svg>
