<svg width="88" height="48" viewBox="0 0 88 48" fill="none" xmlns="http://www.w3.org/2000/svg">
<g clip-path="url(#clip0_1467_16929)">
<path d="M2 41.9698H4.79011V30.9557L9.10947 40.5609C9.61895 41.7188 10.317 42.1348 11.685 42.1348C13.0529 42.1348 13.7237 41.7233 14.234 40.5609L18.5538 30.9557V41.9739H21.3443V30.9739C21.3443 29.9008 20.9142 29.3818 20.0292 29.1139C17.9099 28.4522 16.4877 29.0245 15.8443 30.4554L11.6056 39.9348L7.5 30.4512C6.88301 29.0204 5.4344 28.4481 3.31504 29.1097C2.42925 29.3781 2 29.8971 2 30.9698V41.9698ZM23.6634 33.0019H26.4527V39.0726C26.4266 39.4026 26.5585 40.1767 28.0869 40.2003C28.8669 40.2127 34.1055 40.2003 34.1543 40.2003V32.9717H36.9498C36.9622 32.9717 36.9469 42.8279 36.9473 42.8701C36.9626 45.3008 33.931 45.8289 32.5341 45.8698H23.7242V43.9924L32.5498 43.992C34.3454 43.8018 34.1336 42.9098 34.1336 42.6091V41.8772H28.2036C25.4445 41.8524 23.6878 40.6477 23.6659 39.2624C23.6638 39.1383 23.7254 33.0615 23.6642 33.0015L23.6634 33.0019Z" fill="#00618A"/>
<path d="M39.1016 41.9679H47.1233C48.062 41.9679 48.9747 41.7715 49.6996 41.4312C50.9071 40.877 51.4972 40.1256 51.4972 39.1418V37.1031C51.4972 36.298 50.8265 35.547 49.5123 35.0462C48.8146 34.7774 47.9561 34.6347 47.1245 34.6347H43.7439C42.6174 34.6347 42.0807 34.2948 41.9467 33.5438C41.9198 33.4545 41.9198 33.3784 41.9198 33.2932V32.0237C41.9198 31.9521 41.9198 31.8802 41.9467 31.7909C42.0807 31.2185 42.3759 31.0573 43.3684 30.9638C43.449 30.9638 43.5561 30.9456 43.6372 30.9456H51.6052V29.0859H43.7712C42.6443 29.0859 42.0542 29.1575 41.5174 29.3183C39.8525 29.8373 39.128 30.6644 39.128 32.0952V33.7229C39.128 34.9751 40.5506 36.0482 42.9375 36.2984C43.2063 36.3162 43.4743 36.3339 43.7422 36.3339H46.6399C46.7474 36.3339 46.8549 36.3339 46.9351 36.3521C47.8201 36.4237 48.1964 36.5845 48.4644 36.9063C48.6298 37.0717 48.6794 37.2288 48.6794 37.4025V39.0302C48.6794 39.227 48.5454 39.4776 48.277 39.6918C48.0355 39.9069 47.6332 40.0495 47.0964 40.0855C46.9889 40.0855 46.9087 40.1033 46.8016 40.1033H39.1016V41.9634V41.9679ZM68.9025 38.7308C68.9025 40.6446 70.3242 41.7177 73.1949 41.9324C73.4627 41.9531 73.7311 41.965 73.9997 41.9679H81.2704V40.1079H73.9459C72.3096 40.1079 71.6922 39.6964 71.6922 38.7126V29.0897H68.902V38.73L68.9025 38.7308ZM53.2771 38.8276V32.1965C53.2771 30.5118 54.4598 29.49 56.7987 29.1674C57.0482 29.1318 57.2998 29.1138 57.5518 29.1136H62.8479C63.1088 29.1138 63.3694 29.1318 63.6278 29.1674C65.9668 29.49 67.1495 30.5114 67.1495 32.1965V38.8276C67.1495 40.1943 66.647 40.9258 65.4892 41.4026L68.2375 43.8838H64.9979L62.7743 41.8765L60.5358 42.0184H57.5518C57.0411 42.0184 56.5035 41.9464 55.9117 41.7851C54.1335 41.3013 53.2771 40.3692 53.2771 38.8276ZM56.2889 38.6621C56.2889 38.7519 56.3157 38.8412 56.3426 38.9491C56.508 39.72 57.2296 40.15 58.3276 40.15H60.8625L58.5343 38.048H61.774L63.8003 39.8812C64.1745 39.6819 64.4206 39.3767 64.5033 38.9851C64.5302 38.8958 64.5302 38.8061 64.5302 38.7163V32.3582C64.5302 32.2867 64.5302 32.1928 64.5033 32.1072C64.3379 31.3906 63.6158 30.9783 62.5407 30.9783H58.3325C57.0919 30.9783 56.2897 31.5159 56.2897 32.3582V38.6671L56.2889 38.6621Z" fill="#E48E00"/>
<path d="M83.7238 26.0048C82.0088 25.9585 80.6983 26.1177 79.5785 26.59C79.2601 26.7244 78.7527 26.7277 78.7006 27.1268C78.8755 27.3099 78.9032 27.5837 79.0417 27.8091C79.3093 28.2421 79.7613 28.8222 80.1636 29.1258C80.6036 29.4578 81.0569 29.8135 81.5295 30.1017C82.369 30.6137 83.3061 30.906 84.1141 31.4184C84.5905 31.7203 85.0636 32.1007 85.5284 32.4423C85.7579 32.611 85.913 32.8732 86.2107 32.9787V32.9299C86.0536 32.7301 86.0135 32.4555 85.8696 32.2475L85.2356 31.6136C84.6153 30.7865 83.8288 30.0682 82.9922 29.4673C82.3252 28.9885 80.8319 28.3417 80.5536 27.5651L80.5048 27.5163C80.9779 27.4625 81.5316 27.2918 81.9687 27.1751C82.7019 26.9787 83.3574 27.0292 84.115 26.834L85.1393 26.5412V26.346C84.7563 25.9531 84.4834 25.4333 84.0662 25.0781C82.9744 24.1477 81.7822 23.2193 80.5553 22.4439C79.8746 22.0138 79.0335 21.7351 78.3118 21.3708C78.0691 21.2484 77.6427 21.1847 77.4827 20.9804C77.1039 20.4974 76.8976 19.8845 76.6052 19.3263C75.9932 18.1477 75.3919 16.8599 74.8493 15.6198C74.4792 14.7741 74.2373 13.94 73.7766 13.1811C71.5621 9.54039 69.1781 7.34287 65.4861 5.1834C64.7004 4.72438 63.7546 4.54242 62.7547 4.30547L61.1452 4.20787C60.8177 4.07141 60.477 3.67028 60.1693 3.47592C58.9461 2.70261 55.8086 1.02242 54.9025 3.2278C54.3306 4.62265 55.7573 5.98359 56.268 6.69073C56.6261 7.18697 57.0851 7.74235 57.3407 8.30021C57.509 8.6666 57.5384 9.03423 57.6823 9.42212C58.0367 10.3733 58.3452 11.4166 58.8038 12.2995C59.0354 12.7461 59.2909 13.2167 59.5841 13.6162C59.764 13.8614 60.0721 13.9693 60.1205 14.3481C59.8194 14.7699 59.8021 15.4233 59.6325 15.9576C58.8704 18.3611 59.1578 21.348 60.2665 23.127C60.6068 23.6729 61.4078 24.844 62.5099 24.3949C63.4734 24.0021 63.2542 22.7863 63.5342 21.7128C63.5962 21.4688 63.5582 21.291 63.6806 21.1276V21.1764L64.5585 22.9319C65.2078 23.9781 66.3615 25.0719 67.3383 25.8101C67.8449 26.1926 68.2481 26.8542 68.899 27.078V27.0292H68.8502C68.7232 26.8307 68.5247 26.7492 68.3622 26.5908C67.9805 26.2166 67.5558 25.7513 67.2403 25.3229C66.3512 24.1162 65.5663 22.7962 64.8509 21.4212C64.5093 20.7649 64.212 20.0408 63.9246 19.373C63.8138 19.1154 63.815 18.7262 63.5834 18.5927C63.2679 19.0823 62.8031 19.4776 62.5591 20.0557C62.1687 20.9796 62.1183 22.106 61.974 23.2747C61.8883 23.3053 61.9264 23.2842 61.8764 23.3235C61.1973 23.1597 60.9583 22.4604 60.7061 21.8604C60.0676 20.3427 59.9493 17.9004 60.5109 16.1545C60.6556 15.7029 61.3131 14.2795 61.0472 13.8622C60.9203 13.4458 60.5014 13.2006 60.2669 12.8863C59.9774 12.4934 59.6871 11.9749 59.4865 11.5208C58.9638 10.3381 58.7199 9.01066 58.1699 7.8143C57.9068 7.2428 57.4627 6.66468 57.0971 6.16017C56.6927 5.59776 56.2399 5.18257 55.9268 4.50603C55.8152 4.26411 55.6638 3.87746 55.8292 3.6281C55.845 3.55645 55.881 3.49082 55.9329 3.43894C55.9848 3.38707 56.0504 3.35111 56.122 3.33532C56.4049 3.11739 57.1931 3.40769 57.4875 3.53051C58.2691 3.85554 58.9225 4.16487 59.585 4.60363C59.9034 4.81039 60.2247 5.22227 60.6089 5.33558H61.0472C61.7337 5.49355 62.5029 5.3852 63.1438 5.57957C64.2777 5.92404 65.2934 6.46039 66.2164 7.04265C69.0276 8.81754 71.3256 11.3442 72.8979 14.3622C73.1509 14.8473 73.2601 15.3108 73.483 15.8253C73.9325 16.8591 74.4986 17.9314 74.9461 18.9462C75.3927 19.9594 75.8269 20.9808 76.458 21.8236C76.7896 22.2661 78.0707 22.5043 78.6526 22.7499C79.0607 22.9224 79.729 23.1022 80.1157 23.3351C80.8538 23.7804 81.5692 24.311 82.2619 24.799C82.608 25.043 83.6721 25.5777 83.725 26.0181L83.7238 26.0048Z" fill="#00618A"/>
<path fill-rule="evenodd" clip-rule="evenodd" d="M61.9248 7.4227C61.5671 7.41609 61.3144 7.46157 61.0469 7.5203V7.56909H61.0957C61.266 7.91977 61.5671 8.14515 61.778 8.44703L62.266 9.47094L62.3148 9.42214C62.6166 9.20917 62.7552 8.86883 62.7531 8.34902C62.6319 8.22165 62.6142 8.06203 62.5091 7.90985C62.3698 7.70721 62.0956 7.59225 61.924 7.42188L61.9248 7.4227Z" fill="#00618A"/>
<path fill-rule="evenodd" clip-rule="evenodd" d="M82.5781 40.0561C82.5781 41.2843 83.5487 42.1122 84.6342 42.1122C85.7197 42.1122 86.6903 41.2843 86.6903 40.0561C86.6903 38.8279 85.7197 38 84.6342 38C83.5487 38 82.5781 38.8279 82.5781 40.0561ZM86.2296 40.0561C86.2296 40.9882 85.5171 41.6846 84.6334 41.6846C83.7402 41.6846 83.0371 40.9882 83.0371 40.0561C83.0371 39.124 83.7393 38.4276 84.6334 38.4276C85.5163 38.4276 86.2296 39.124 86.2296 40.0561ZM85.1875 41.2297H85.6478L84.9737 40.1992C85.3356 40.1607 85.6093 39.985 85.6093 39.5574C85.6093 39.0801 85.3074 38.8833 84.7268 38.8833H83.8109V41.2301H84.2058V40.2157H84.573L85.1871 41.2301L85.1875 41.2297ZM84.2058 39.8857V39.2117H84.6607C84.8964 39.2117 85.1817 39.2555 85.1817 39.5301C85.1817 39.8588 84.9241 39.8865 84.6276 39.8865H84.2058V39.8857Z" fill="#E48E00"/>
</g>
<defs>
<clipPath id="clip0_1467_16929">
<rect width="84.6917" height="44" fill="white" transform="translate(2 2)"/>
</clipPath>
</defs>
</svg>
