<svg width="48" height="48" viewBox="0 0 48 48" fill="none" xmlns="http://www.w3.org/2000/svg">
<mask id="mask0_1466_15259" style="mask-type:alpha" maskUnits="userSpaceOnUse" x="6" y="0" width="36" height="48">
<path d="M28.3221 0H9.77663C7.97663 0 6.50391 1.47273 6.50391 3.27273V44.7272C6.50391 46.5273 7.97663 48 9.77663 48H38.1403C39.9403 48 41.413 46.5273 41.413 44.7272V13.0909L28.3221 0Z" fill="white"/>
</mask>
<g mask="url(#mask0_1466_15259)">
<path d="M28.3221 0H9.77663C7.97663 0 6.50391 1.47273 6.50391 3.27273V44.7272C6.50391 46.5273 7.97663 48 9.77663 48H38.1403C39.9403 48 41.413 46.5273 41.413 44.7272V13.0909L33.7766 7.63634L28.3221 0Z" fill="#0F9D58"/>
</g>
<mask id="mask1_1466_15259" style="mask-type:alpha" maskUnits="userSpaceOnUse" x="6" y="0" width="36" height="48">
<path d="M28.3221 0H9.77663C7.97663 0 6.50391 1.47273 6.50391 3.27273V44.7272C6.50391 46.5273 7.97663 48 9.77663 48H38.1403C39.9403 48 41.413 46.5273 41.413 44.7272V13.0909L28.3221 0Z" fill="white"/>
</mask>
<g mask="url(#mask1_1466_15259)">
<path d="M15.2305 23.4609V39.2791H32.685V23.4609H15.2305ZM22.8668 37.0973H17.4123V34.37H22.8668V37.0973ZM22.8668 32.7336H17.4123V30.0064H22.8668V32.7336ZM22.8668 28.37H17.4123V25.6427H22.8668V28.37ZM30.5032 37.0973H25.0486V34.37H30.5032V37.0973ZM30.5032 32.7336H25.0486V30.0064H30.5032V32.7336ZM30.5032 28.37H25.0486V25.6427H30.5032V28.37Z" fill="#F1F1F1"/>
</g>
<mask id="mask2_1466_15259" style="mask-type:alpha" maskUnits="userSpaceOnUse" x="6" y="0" width="36" height="48">
<path d="M28.3221 0H9.77663C7.97663 0 6.50391 1.47273 6.50391 3.27273V44.7272C6.50391 46.5273 7.97663 48 9.77663 48H38.1403C39.9403 48 41.413 46.5273 41.413 44.7272V13.0909L28.3221 0Z" fill="white"/>
</mask>
<g mask="url(#mask2_1466_15259)">
<path d="M29.2773 12.1328L41.411 24.2637V13.0901L29.2773 12.1328Z" fill="url(#paint0_linear_1466_15259)"/>
</g>
<mask id="mask3_1466_15259" style="mask-type:alpha" maskUnits="userSpaceOnUse" x="6" y="0" width="36" height="48">
<path d="M28.3221 0H9.77663C7.97663 0 6.50391 1.47273 6.50391 3.27273V44.7272C6.50391 46.5273 7.97663 48 9.77663 48H38.1403C39.9403 48 41.413 46.5273 41.413 44.7272V13.0909L28.3221 0Z" fill="white"/>
</mask>
<g mask="url(#mask3_1466_15259)">
<path d="M28.3242 0V9.8182C28.3242 11.6263 29.7887 13.0909 31.5969 13.0909H41.4151L28.3242 0Z" fill="#87CEAC"/>
</g>
<mask id="mask4_1466_15259" style="mask-type:alpha" maskUnits="userSpaceOnUse" x="6" y="0" width="36" height="48">
<path d="M28.3221 0H9.77663C7.97663 0 6.50391 1.47273 6.50391 3.27273V44.7272C6.50391 46.5273 7.97663 48 9.77663 48H38.1403C39.9403 48 41.413 46.5273 41.413 44.7272V13.0909L28.3221 0Z" fill="white"/>
</mask>
<g mask="url(#mask4_1466_15259)">
<path d="M9.77663 0C7.97663 0 6.50391 1.47273 6.50391 3.27273V3.54545C6.50391 1.74545 7.97663 0.272728 9.77663 0.272728H28.3221V0H9.77663Z" fill="white" fill-opacity="0.2"/>
</g>
<mask id="mask5_1466_15259" style="mask-type:alpha" maskUnits="userSpaceOnUse" x="6" y="0" width="36" height="48">
<path d="M28.3221 0H9.77663C7.97663 0 6.50391 1.47273 6.50391 3.27273V44.7272C6.50391 46.5273 7.97663 48 9.77663 48H38.1403C39.9403 48 41.413 46.5273 41.413 44.7272V13.0909L28.3221 0Z" fill="white"/>
</mask>
<g mask="url(#mask5_1466_15259)">
<path d="M38.1403 47.7258H9.77663C7.97663 47.7258 6.50391 46.2531 6.50391 44.4531V44.7258C6.50391 46.5259 7.97663 47.9986 9.77663 47.9986H38.1403C39.9403 47.9986 41.413 46.5259 41.413 44.7258V44.4531C41.413 46.2531 39.9403 47.7258 38.1403 47.7258Z" fill="#263238" fill-opacity="0.2"/>
</g>
<mask id="mask6_1466_15259" style="mask-type:alpha" maskUnits="userSpaceOnUse" x="6" y="0" width="36" height="48">
<path d="M28.3221 0H9.77663C7.97663 0 6.50391 1.47273 6.50391 3.27273V44.7272C6.50391 46.5273 7.97663 48 9.77663 48H38.1403C39.9403 48 41.413 46.5273 41.413 44.7272V13.0909L28.3221 0Z" fill="white"/>
</mask>
<g mask="url(#mask6_1466_15259)">
<path d="M31.5969 13.093C29.7887 13.093 28.3242 11.6285 28.3242 9.82031V10.093C28.3242 11.9012 29.7887 13.3657 31.5969 13.3657H41.4151V13.093H31.5969Z" fill="#263238" fill-opacity="0.1"/>
</g>
<path d="M28.2813 0H9.6875C7.88281 0 6.40625 1.47273 6.40625 3.27273V44.7272C6.40625 46.5273 7.88281 48 9.6875 48H38.125C39.9297 48 41.4063 46.5273 41.4063 44.7272V13.0909L28.2813 0Z" fill="url(#paint1_radial_1466_15259)"/>
<defs>
<linearGradient id="paint0_linear_1466_15259" x1="35.3448" y1="13.1744" x2="35.3448" y2="24.2654" gradientUnits="userSpaceOnUse">
<stop stop-color="#263238" stop-opacity="0.2"/>
<stop offset="1" stop-color="#263238" stop-opacity="0.02"/>
</linearGradient>
<radialGradient id="paint1_radial_1466_15259" cx="0" cy="0" r="1" gradientUnits="userSpaceOnUse" gradientTransform="translate(7.51507 0.9541) scale(56.4371 56.2904)">
<stop stop-color="white" stop-opacity="0.1"/>
<stop offset="1" stop-color="white" stop-opacity="0"/>
</radialGradient>
</defs>
</svg>
