<svg width="48" height="48" viewBox="0 0 48 48" fill="none" xmlns="http://www.w3.org/2000/svg">
<path d="M19.3426 4.27109C18.8116 3.7381 18.075 3.40976 17.2539 3.40976C16.4349 3.40976 15.7039 3.7381 15.1797 4.27109H15.1663C14.6369 4.80046 14.3086 5.53912 14.3086 6.35509C14.3086 7.1757 14.6369 7.90971 15.1663 8.43393L15.1797 8.44836C15.7039 8.97671 16.4349 9.30042 17.2539 9.30042C18.075 9.30042 18.8116 8.97671 19.3426 8.44836L19.3487 8.43393C19.8802 7.90971 20.2044 7.1757 20.2044 6.35509C20.2044 5.53912 19.8802 4.80046 19.3487 4.27109H19.3426ZM17.2539 44.5902C18.075 44.5902 18.8116 44.2557 19.3426 43.7325L19.3487 43.7171C19.8802 43.1949 20.2044 42.4562 20.2044 41.6444C20.2044 40.8238 19.8802 40.0887 19.3487 39.5568H19.3426C18.8116 39.0187 18.075 38.6934 17.2539 38.6934C16.4349 38.6934 15.7039 39.0187 15.1797 39.5568H15.1663C14.6369 40.0887 14.3086 40.8238 14.3086 41.6444C14.3086 42.4562 14.6369 43.1949 15.1663 43.7171L15.1797 43.7325C15.7039 44.2557 16.4349 44.5902 17.2539 44.5902ZM33.3017 35.6661C34.0311 35.4744 34.6914 35.0063 35.095 34.2981L35.1491 34.1945C35.5078 33.5239 35.5733 32.7486 35.3816 32.0605C35.1883 31.326 34.7151 30.6744 34.0084 30.2687L33.9666 30.2409C33.278 29.8626 32.4945 29.7801 31.7739 29.9765C31.0414 30.1595 30.3832 30.6471 29.9821 31.3491C29.576 32.0471 29.4914 32.8491 29.6857 33.5873C29.8863 34.3135 30.3558 34.9697 31.0584 35.38H31.0625C31.7666 35.7847 32.5625 35.8573 33.3017 35.6661ZM20.275 20.9817C19.5018 20.2106 18.4348 19.7271 17.2539 19.7271C16.0745 19.7271 15.0106 20.2106 14.239 20.9817C13.4699 21.7518 12.9957 22.8142 12.9957 23.9951C12.9957 25.176 13.4699 26.243 14.239 27.0219C15.0106 27.7884 16.0745 28.2672 17.2539 28.2672C18.4348 28.2672 19.5018 27.7884 20.275 27.0219C21.0461 26.243 21.5204 25.176 21.5204 23.9951C21.5204 22.8142 21.0461 21.7518 20.275 20.9817ZM18.5761 15.9617C20.2905 16.2442 21.8296 17.0653 23.0064 18.2503H23.0152C23.2023 18.4369 23.3843 18.6426 23.5539 18.8477L26.4945 17.1467C26.0992 15.9519 26.0806 14.7029 26.3987 13.5313C26.8177 11.9628 27.8347 10.5586 29.3595 9.67876L29.4089 9.64732C30.9172 8.79424 32.6311 8.6164 34.178 9.03547C35.745 9.45557 37.1583 10.4772 38.0382 11.9994V12.004C38.914 13.5179 39.0913 15.255 38.6738 16.8189C38.2568 18.3869 37.2362 19.8008 35.713 20.6756L35.3115 20.9127H35.2707C33.862 21.5833 32.313 21.6884 30.8904 21.3137C29.7223 21.0044 28.6512 20.3518 27.8121 19.4266L24.8755 21.123C25.2131 22.0157 25.3997 22.9781 25.3997 23.9951C25.3997 25.0069 25.2131 25.9832 24.8755 26.8806L27.8121 28.5724C28.6512 27.6327 29.7223 26.9951 30.8904 26.6848C32.4579 26.2564 34.195 26.4384 35.713 27.3234L35.8104 27.3688V27.3734C37.2769 28.2626 38.2614 29.6347 38.6738 31.1847C39.0913 32.7393 38.914 34.4775 38.0382 35.9945L37.9851 36.1001L37.979 36.0914C37.0996 37.5537 35.713 38.5444 34.1826 38.9635C32.613 39.3774 30.8754 39.2006 29.3595 38.3285V38.3166C27.8347 37.4352 26.8177 36.028 26.3987 34.4625C26.0806 33.296 26.0992 32.0471 26.4945 30.8528L23.5539 29.1559C23.3843 29.361 23.2023 29.5574 23.0152 29.744L23.0064 29.7533C21.8296 30.9342 20.2905 31.7548 18.5761 32.028V35.4259C19.7977 35.6811 20.8915 36.2919 21.7482 37.1491L21.7528 37.1578C22.9013 38.3011 23.6126 39.8939 23.6126 41.6444C23.6126 43.3897 22.9013 44.9732 21.7528 46.1222L21.7482 46.1402C20.5915 47.2887 19.0049 48 17.2539 48C15.5122 48 13.9215 47.2887 12.7674 46.1402H12.7627V46.1222C11.6133 44.9732 10.9004 43.3897 10.9004 41.6444C10.9004 39.8939 11.6133 38.3011 12.7627 37.1578V37.1491H12.7674C13.6235 36.2919 14.7194 35.6811 15.9364 35.4259V32.028C14.2225 31.7548 12.6859 30.9342 11.5112 29.7533L11.4988 29.744C10.0318 28.2719 9.11328 26.243 9.11328 23.9951C9.11328 21.7518 10.0318 19.723 11.4988 18.2503H11.5112C12.6859 17.0653 14.2225 16.2442 15.9364 15.9617V12.5782C14.7194 12.3143 13.6235 11.7035 12.7674 10.8509H12.7627V10.8416C11.6133 9.68804 10.9004 8.1061 10.9004 6.35509C10.9004 4.61335 11.6133 3.01749 12.7627 1.86854L12.7674 1.8639C13.9215 0.710817 15.5122 0 17.2539 0C19.0049 0 20.5915 0.710817 21.7482 1.8639V1.86854H21.7528C22.9013 3.01749 23.6126 4.61335 23.6126 6.35509C23.6126 8.1061 22.9013 9.68804 21.7528 10.8416L21.7482 10.8509C20.8915 11.7035 19.7977 12.3143 18.5761 12.5782V15.9617ZM35.095 13.705L35.0697 13.6679C34.6646 12.9844 34.0171 12.5287 33.3017 12.3323C32.5625 12.136 31.7666 12.2184 31.0584 12.6246H31.0625C30.3558 13.0256 29.8832 13.6813 29.6857 14.4163C29.4914 15.1457 29.576 15.9519 29.9821 16.6545L29.996 16.6725C30.4027 17.3658 31.0507 17.8307 31.7739 18.0178C32.5007 18.2235 33.3104 18.1364 34.0084 17.7302L34.046 17.7122C34.7331 17.3019 35.1908 16.6545 35.3816 15.9431C35.5764 15.2091 35.4986 14.4071 35.095 13.705Z" fill="#1A1919"/>
</svg>
