<svg width="120" height="48" viewBox="0 0 120 48" fill="none" xmlns="http://www.w3.org/2000/svg">
<path d="M70.8551 21.0243C72.8757 20.9649 74.5397 22.5099 74.718 24.4709H66.695C66.9921 22.4505 68.775 20.9054 70.8551 21.0243ZM74.4803 28.0365C73.7077 29.1655 72.4002 29.8192 71.0333 29.7004C68.775 29.7004 67.111 28.4524 66.695 26.3131H76.7386C76.798 26.016 76.798 25.7189 76.798 25.3623C76.798 21.9751 74.4208 19.0038 70.7956 19.0038C67.4081 18.885 64.615 21.5591 64.4961 24.8869C64.4961 25.0058 64.4961 25.184 64.4961 25.3029C64.4961 28.9278 67.0516 31.602 70.9145 31.602C73.0539 31.6614 75.0151 30.6512 76.2037 28.8684L74.4803 28.0365Z" fill="#006BFF"/>
<path d="M63.6074 13.875H61.5273V31.4055H63.6074V13.875Z" fill="#006BFF"/>
<path d="M88.4465 23.9912V31.3599H86.3664V24.11C86.3664 22.149 85.2373 21.0199 83.395 21.0199C81.5527 21.0199 79.8886 22.149 79.8886 25.0014V31.3599H77.8086V19.356H79.8886V21.0793C80.7206 19.7125 82.2064 18.94 83.811 19.0588C86.6042 19.0588 88.4465 20.9605 88.4465 23.9912Z" fill="#006BFF"/>
<path d="M99.9737 25.3441C99.9737 22.9671 98.0125 21.1249 95.6947 21.1249C93.3175 21.1249 91.4752 23.0859 91.4752 25.4035C91.4752 27.7211 93.377 29.6227 95.7542 29.6227C98.0719 29.6821 99.9736 27.84 100.033 25.5224C99.9736 25.4629 99.9737 25.4035 99.9737 25.3441ZM102.054 13.875V31.4055H99.9737V29.3256C98.9634 30.8707 97.2399 31.762 95.457 31.7026C91.9507 31.5838 89.2169 28.6719 89.3358 25.1658C89.4546 21.838 92.129 19.1639 95.457 19.045C97.2993 18.9856 99.0228 19.877 99.9737 21.422V13.875H102.054Z" fill="#006BFF"/>
<path d="M105.857 13.875H103.777V31.4055H105.857V13.875Z" fill="#006BFF"/>
<path d="M57.7822 25.3488C57.7822 22.9717 55.8211 21.1296 53.5033 21.1296C51.1261 21.1296 49.2838 23.0906 49.2838 25.4082C49.2838 27.7258 51.1856 29.6274 53.5033 29.6274C55.8211 29.6868 57.7228 27.8446 57.7822 25.527C57.7822 25.4676 57.7822 25.4082 57.7822 25.3488ZM59.8623 19.3468V31.3507H57.7822V29.3303C56.7719 30.8753 55.0485 31.7667 53.2656 31.7073C49.7593 31.5884 47.0255 28.6766 47.1444 25.1705C47.2632 21.8427 49.9375 19.1685 53.2656 19.0497C55.1079 18.9902 56.8314 19.8816 57.7822 21.4267V19.3468H59.8623Z" fill="#006BFF"/>
<path d="M44.1116 29.0938C40.7241 30.3417 36.9801 28.6778 35.6726 25.2905C34.4246 21.9033 36.0886 18.1595 39.4761 16.8521C42.1505 15.8419 45.1814 16.6739 46.9643 18.9915L48.7471 17.6841C45.7757 13.8809 40.3081 13.1678 36.5047 16.0796C32.7012 19.0509 31.988 24.518 34.9001 28.3212C37.8715 32.1245 43.339 32.8376 47.1425 29.9257H47.202L46.0134 28.0241C45.4191 28.4995 44.7654 28.8561 44.1116 29.0938Z" fill="#006BFF"/>
<path d="M115.904 19.3359V26.1699C115.904 28.3686 114.656 29.7948 112.695 29.7948C110.734 29.7948 109.307 28.428 109.307 26.1699V19.3359H107.168V25.9321C107.168 29.3788 109.307 31.637 112.635 31.637C115.488 31.637 115.964 29.7948 115.964 29.7948V32.2907C115.964 34.7271 114.894 36.0939 112.695 36.0939C111.09 36.0939 109.664 34.9054 109.486 33.3009L107.584 33.9546C108.119 36.3316 110.258 37.9955 112.695 37.9955C116.082 37.9955 117.984 35.7373 117.984 32.2907V19.3359H115.904Z" fill="#006BFF"/>
<path d="M19.0304 26.3543C18.0795 27.3646 16.7721 27.9588 15.4052 27.9588H14.276C13.028 27.9588 11.78 27.4834 10.8886 26.592C10.0565 25.7006 9.58111 24.5716 9.64054 23.3831V21.8974C9.64054 20.6495 10.116 19.5204 10.948 18.629C11.8394 17.7376 13.028 17.2622 14.276 17.2622H15.3458C16.7127 17.2622 18.0795 17.8565 19.0304 18.8667C19.9218 19.8175 21.1699 20.2929 22.4773 20.2335C22.7745 20.2335 23.0716 20.2335 23.3688 20.1741C23.2499 19.877 23.131 19.5798 22.9528 19.3421L21.6453 17.1434C20.4567 15.1229 18.3172 13.875 15.9401 13.875H13.3846C11.0074 13.875 8.86795 15.1229 7.67936 17.1434L6.37191 19.3421C5.18332 21.3626 5.18332 23.9179 6.37191 25.9383L7.67936 28.1965C8.86795 30.217 11.0074 31.4649 13.3846 31.4649H15.9401C18.3172 31.4649 20.4567 30.217 21.6453 28.1965L22.9528 25.9978C23.131 25.7601 23.2499 25.4629 23.3688 25.1658C23.0716 25.1064 22.7745 25.1064 22.4773 25.1064C21.1699 24.9281 19.9218 25.4035 19.0304 26.3543Z" fill="#006BFF"/>
<path d="M15.3457 18.6269H14.2166C12.4931 18.5675 11.0074 19.8749 10.8885 21.6576C10.8885 21.7171 10.8885 21.8359 10.8885 21.8953V23.381C10.8291 25.1043 12.2554 26.5899 13.9788 26.5899C14.0383 26.5899 14.0977 26.5899 14.2166 26.5899H15.2863C18.1983 26.5899 17.9606 23.6187 22.3584 23.6187C22.7744 23.6187 23.1904 23.6781 23.6064 23.7375C23.7253 22.965 23.7253 22.1925 23.6064 21.4794C23.1904 21.5388 22.7744 21.5982 22.3584 21.5982C18.0795 21.5982 18.3172 18.6269 15.3457 18.6269Z" fill="#006BFF"/>
<path d="M26.2201 24.8097C25.4475 24.2749 24.6155 23.9183 23.6647 23.74C23.6052 24.156 23.4864 24.6314 23.3081 25.0474C24.0807 25.1662 24.7938 25.4634 25.3881 25.8793C23.5458 31.8219 17.2463 35.1497 11.2439 33.3669C5.2415 31.5842 1.97288 25.2257 3.81519 19.2237C5.65751 13.2217 11.957 9.95335 17.9594 11.7361C21.5252 12.8652 24.3184 15.6582 25.4475 19.2237C24.8532 19.6991 24.1401 19.9368 23.3675 20.0557C23.5458 20.4716 23.6647 20.8876 23.7241 21.363C24.6155 21.2442 25.507 20.8876 26.2795 20.4122C26.8144 20.1151 26.9927 19.4614 26.755 18.9266C24.675 12.2709 17.6028 8.52714 10.9467 10.5476C4.29063 12.6275 0.546568 19.6991 2.56717 26.3547C4.58778 33.0104 11.7193 36.7542 18.3754 34.7337C22.3572 33.4858 25.507 30.3957 26.755 26.3547C26.9333 25.8199 26.755 25.1662 26.2201 24.8097Z" fill="#006BFF"/>
<path d="M23.3103 20.1775C23.0131 20.2369 22.716 20.2369 22.4188 20.2369C21.1114 20.2963 19.8633 19.8209 18.9719 18.8701C18.021 17.8599 16.7136 17.3251 15.3467 17.2656H14.2175C12.9695 17.2656 11.7809 17.741 10.8895 18.6324C10.0575 19.5238 9.58203 20.6529 9.58203 21.9008V23.3864C9.58203 24.5749 10.0575 25.7635 10.8895 26.6548C11.7809 27.5462 12.9695 28.0216 14.2175 27.9622H15.2873C16.6541 27.9622 18.021 27.3679 18.9719 26.3577C19.8633 25.4069 21.1114 24.8721 22.4188 24.9909C22.716 24.9909 23.0131 24.9909 23.3103 25.0503C23.4885 24.6344 23.6074 24.2184 23.6668 23.743C23.2508 23.6836 22.8348 23.6241 22.4188 23.6241C18.021 23.6241 18.2587 26.5954 15.3467 26.5954H14.2175C12.4941 26.6548 11.0083 25.288 10.9489 23.5647C10.9489 23.5053 10.9489 23.4459 10.9489 23.3864V21.8414C10.8895 20.118 12.3158 18.6324 14.0392 18.573C14.0987 18.573 14.1581 18.573 14.2175 18.573H15.2873C18.1993 18.573 17.9616 21.5443 22.3594 21.5443C22.7754 21.5443 23.1914 21.4848 23.6074 21.4254C23.6074 21.0688 23.4885 20.6529 23.3103 20.1775Z" fill="#0AE8F0"/>
<path d="M23.3103 20.1775C23.0131 20.2369 22.716 20.2369 22.4188 20.2369C21.1114 20.2963 19.8633 19.8209 18.9719 18.8701C18.021 17.8599 16.7136 17.3251 15.3467 17.2656H14.2175C12.9695 17.2656 11.7809 17.741 10.8895 18.6324C10.0575 19.5238 9.58203 20.6529 9.58203 21.9008V23.3864C9.58203 24.5749 10.0575 25.7635 10.8895 26.6548C11.7809 27.5462 12.9695 28.0216 14.2175 27.9622H15.2873C16.6541 27.9622 18.021 27.3679 18.9719 26.3577C19.8633 25.4069 21.1114 24.8721 22.4188 24.9909C22.716 24.9909 23.0131 24.9909 23.3103 25.0503C23.4885 24.6344 23.6074 24.2184 23.6668 23.743C23.2508 23.6836 22.8348 23.6241 22.4188 23.6241C18.021 23.6241 18.2587 26.5954 15.3467 26.5954H14.2175C12.4941 26.6548 11.0083 25.288 10.9489 23.5647C10.9489 23.5053 10.9489 23.4459 10.9489 23.3864V21.8414C10.8895 20.118 12.3158 18.6324 14.0392 18.573C14.0987 18.573 14.1581 18.573 14.2175 18.573H15.2873C18.1993 18.573 17.9616 21.5443 22.3594 21.5443C22.7754 21.5443 23.1914 21.4848 23.6074 21.4254C23.6074 21.0688 23.4885 20.6529 23.3103 20.1775Z" fill="#0AE8F0"/>
</svg>
