<svg width="120" height="48" viewBox="0 0 120 48" fill="none" xmlns="http://www.w3.org/2000/svg">
<path d="M34.0365 11.6719C30.7386 11.6719 29.5552 13.9804 29.5552 16.1532V17.4724H28.8374C28.3136 17.4724 27.9062 17.8603 27.9062 18.4035C27.9062 18.9273 28.2942 19.3347 28.8374 19.3347H29.5552V28.4331C29.5552 28.9569 29.9432 29.3643 30.4864 29.3643C31.0296 29.3643 31.4176 28.9763 31.4176 28.4331V19.2571H33.5321C34.0559 19.2571 34.4633 18.8691 34.4633 18.3259C34.4633 17.7827 34.0753 17.3948 33.5321 17.3948H31.4176V16.0756C31.4176 14.8922 31.8832 13.4372 33.9977 13.4372C34.5215 13.4372 34.9289 13.0492 34.9289 12.5061C34.9289 11.9629 34.5603 11.6719 34.0365 11.6719Z" fill="#4D4D4D"/>
<path d="M41.4884 17.1406C40.0334 17.1406 38.8501 17.742 38.1905 18.7314V18.2076C38.1905 17.6838 37.8025 17.2764 37.2593 17.2764C36.7161 17.2764 36.3281 17.6644 36.3281 18.2076V28.373C36.3281 28.8968 36.7161 29.3042 37.2593 29.3042C37.8025 29.3042 38.1905 28.9162 38.1905 28.373V22.7665C38.1905 20.3998 39.4515 19.003 41.4884 19.003C42.0122 19.003 42.4196 18.615 42.4196 18.0718C42.4196 17.5286 42.0122 17.1406 41.4884 17.1406Z" fill="#4D4D4D"/>
<path d="M53.224 22.1843C53.224 21.6605 53.1658 20.2055 52.2928 19.0221C51.4392 17.7611 50.12 17.1016 48.3353 17.1016C44.9792 17.1016 43.0586 19.3519 43.0586 23.2318C43.0586 27.2475 44.9792 29.4397 48.6069 29.4397C51.0512 29.4397 52.3704 28.2563 52.6226 27.9847C52.7584 27.8489 52.9524 27.6549 52.9524 27.3251C52.9524 26.8596 52.5644 26.4716 52.0988 26.4716C51.8272 26.4716 51.7108 26.5298 51.575 26.6656C50.8572 27.1893 50.0618 27.7131 48.6651 27.7131C46.4923 27.7131 45.0955 26.2582 45.0374 23.9496H52.0988C53.224 23.8914 53.224 22.8438 53.224 22.1843ZM48.3353 18.8863C50.314 18.8863 51.3034 20.0115 51.3616 22.1843H44.9598C45.1731 20.0697 46.3565 18.8863 48.3353 18.8863Z" fill="#4D4D4D"/>
<path d="M59.6735 22.2815C58.2185 21.8159 57.0351 21.3503 57.0351 20.3028C57.0351 19.1194 58.3543 18.9836 59.0721 18.9836C60.4494 18.9836 61.109 19.4492 61.7104 19.973C61.9044 20.167 62.0984 20.2446 62.37 20.2446C62.8356 20.2446 63.2236 19.8566 63.2236 19.391C63.2236 19.1194 63.0878 18.9254 63.0296 18.7896C62.2342 17.742 60.8568 17.1406 59.1303 17.1406C56.6859 17.1406 55.1728 18.324 55.1728 20.3028C55.1728 22.6695 57.2873 23.4067 59.1303 24.0663C60.5076 24.5319 61.7686 24.9199 61.7686 25.9868C61.7686 27.3642 60.1778 27.6358 59.2661 27.6358C58.0051 27.6358 57.0157 27.2478 56.2397 26.4524C55.9681 26.1808 55.7741 26.1808 55.5801 26.1808C55.1146 26.1808 54.7266 26.5688 54.7266 27.0344C54.7266 27.2284 54.7848 27.3642 54.9206 27.6358C55.6383 28.567 57.2873 29.4788 59.3437 29.4788C62.1178 29.4788 63.7668 28.1596 63.7668 26.045C63.5728 23.6007 61.5164 22.9411 59.6735 22.2815Z" fill="#4D4D4D"/>
<path d="M71.0792 17.0915C69.76 17.0915 68.5766 17.6153 67.917 18.4688V11.9312C67.917 11.4074 67.5291 11 66.9859 11C66.4621 11 66.0547 11.388 66.0547 11.9312V28.3432C66.0547 28.867 66.4427 29.2744 66.9859 29.2744C67.5097 29.2744 67.917 28.8864 67.917 28.3432V22.1354C67.917 19.885 68.9646 18.7792 71.0792 18.7792C73.1161 18.7792 73.9115 19.7104 73.9115 21.9414V28.2656C73.9115 28.7894 74.2995 29.1968 74.8427 29.1968C75.3859 29.1968 75.7739 28.8088 75.7739 28.2656V21.6698C75.8321 18.6628 74.2413 17.0915 71.0792 17.0915Z" fill="#4D4D4D"/>
<path d="M86.4452 26.4519C86.2512 26.4519 86.1154 26.5101 85.8438 26.6459C85.32 27.0339 84.4664 27.6935 83.0697 27.6935C80.8193 27.6935 79.7135 26.2385 79.7135 23.2704C79.7135 20.3604 80.8387 18.8473 83.0697 18.8473C84.6604 18.8473 85.32 19.565 85.6498 19.9724C85.8438 20.244 86.1154 20.3022 86.3676 20.3022C86.8914 20.3022 87.2212 19.9142 87.2212 19.4486C87.2212 19.2547 87.163 19.1189 87.0272 18.8473C86.8332 18.5175 85.5722 17.0625 83.0697 17.0625C79.5777 17.0625 77.793 19.1771 77.793 23.1928C77.793 27.2085 79.6359 29.4006 83.0697 29.4006C85.2424 29.4006 86.5034 28.3531 86.969 28.0233C87.2406 27.7517 87.357 27.5577 87.357 27.3055C87.2988 26.8399 86.9108 26.4519 86.4452 26.4519Z" fill="#4D4D4D"/>
<path d="M94.3526 17.0915C93.0334 17.0915 91.8501 17.6153 91.1905 18.4688V11.9312C91.1905 11.4074 90.8025 11 90.2593 11C89.7355 11 89.3281 11.388 89.3281 11.9312V28.3432C89.3281 28.867 89.7161 29.2744 90.2593 29.2744C90.7831 29.2744 91.1905 28.8864 91.1905 28.3432V22.1354C91.1905 19.885 92.2381 18.7792 94.3526 18.7792C96.3896 18.7792 97.185 19.7104 97.185 21.9414V28.2656C97.185 28.7894 97.5729 29.1968 98.1161 29.1968C98.6593 29.1968 99.0473 28.8088 99.0473 28.2656V21.6698C99.1055 18.6628 97.5147 17.0915 94.3526 17.0915Z" fill="#4D4D4D"/>
<path d="M106.09 17.1016C103.51 17.1016 102.268 18.3625 101.803 19.1385C101.745 19.2743 101.667 19.4101 101.667 19.6623C101.667 20.1279 102.055 20.5159 102.521 20.5159C102.792 20.5159 103.044 20.3801 103.316 20.1279C104.111 19.2743 104.907 18.8669 106.09 18.8669C107.875 18.8669 108.864 19.8563 108.864 21.4471V21.9709H105.508C102.734 21.9709 100.949 23.3482 100.949 25.6568C100.949 27.9653 102.598 29.4203 105.431 29.4203C106.885 29.4203 108.127 28.8965 108.864 27.9653V28.3533C108.864 28.8771 109.252 29.2845 109.795 29.2845C110.319 29.2845 110.727 28.8965 110.727 28.3533V21.4859C110.785 18.8087 109 17.1016 106.09 17.1016ZM105.625 27.7131C104.364 27.7131 102.928 27.3833 102.928 25.7344C102.928 24.0272 104.577 23.7556 105.508 23.7556H108.864V24.6868C108.922 26.7238 107.215 27.7131 105.625 27.7131Z" fill="#4D4D4D"/>
<path d="M117.287 27.514C116.492 27.514 115.968 26.9902 115.968 26.0008V19.2691H117.423C117.947 19.2691 118.354 18.8811 118.354 18.338C118.354 17.7948 117.966 17.4068 117.423 17.4068H115.968V14.9624C115.968 14.4386 115.502 14.0312 115.037 14.0312C114.513 14.0312 114.105 14.4968 114.105 14.9624V17.4262H113.31C112.786 17.4262 112.379 17.8142 112.379 18.3574C112.379 18.9005 112.767 19.2885 113.31 19.2885H114.105V26.0202C114.105 27.999 115.366 29.3181 117.345 29.3181C117.869 29.3181 118.276 28.9301 118.276 28.3869C118.218 27.902 117.753 27.514 117.287 27.514Z" fill="#4D4D4D"/>
<path d="M13.1747 37.0051C6.98592 37.0051 2 31.9998 2 25.7916C2 19.5835 7.00533 14.5781 13.1747 14.5781H21.5945C23.1659 14.5781 24.427 15.8392 24.427 17.4106V25.7916C24.4076 31.9998 19.4216 37.0051 13.1747 37.0051Z" fill="#45A4EC"/>
<path d="M16.7044 21.1719H11.098C9.5072 21.1719 8.26562 22.4328 8.26562 24.0042V28.8153C8.26562 29.1451 8.53722 29.4167 8.86701 29.4167H16.6462C18.237 29.4167 19.4786 28.1557 19.4786 26.5844V24.0042C19.4592 22.4328 18.2176 21.1719 16.7044 21.1719ZM14.6481 27.1663H10.5548C10.225 27.1663 10.031 26.8948 10.031 26.6426C10.031 26.3904 10.3026 26.1188 10.5548 26.1188H14.6481C14.9779 26.1188 15.1719 26.3904 15.1719 26.6426C15.1719 26.8948 14.9779 27.1663 14.6481 27.1663ZM17.1506 24.528H10.5548C10.225 24.528 10.031 24.2564 10.031 24.0042C10.031 23.6744 10.3026 23.4804 10.5548 23.4804H17.1506C17.4804 23.4804 17.6744 23.752 17.6744 24.0042C17.6744 24.2564 17.4222 24.528 17.1506 24.528Z" fill="white"/>
</svg>
