<svg width="132" height="48" viewBox="0 0 132 48" fill="none" xmlns="http://www.w3.org/2000/svg">
<g clip-path="url(#clip0_1467_15834)">
<path d="M34.3743 10.7109C30.8771 10.7109 29.6233 13.1524 29.6233 15.4619V16.8696H28.9195C28.3696 16.8696 27.9297 17.2875 27.9297 17.8594C27.9297 18.4313 28.3476 18.8492 28.9195 18.8492H29.6233V28.5051C29.6233 29.055 30.0412 29.5609 30.6791 29.5609C31.317 29.5609 31.7349 29.143 31.7349 28.5051V18.7832H33.9784C34.5283 18.7832 34.9682 18.3653 34.9682 17.7934C34.9682 17.2435 34.5503 16.8036 33.9784 16.8036H31.7349V15.3959C31.7349 14.1422 32.2188 12.6025 34.4623 12.6025C35.0122 12.6025 35.4521 12.1846 35.4521 11.7007C35.3641 11.1288 34.9242 10.7109 34.3743 10.7109Z" fill="#4D4D4D"/>
<path d="M42.3588 16.5048C40.9511 16.4388 39.6974 17.0547 38.8615 18.1765V17.6266C38.8615 17.0767 38.4436 16.5708 37.8058 16.5708C37.1679 16.5708 36.75 17.0547 36.75 17.6266V28.4043C36.75 28.9541 37.1679 29.46 37.8058 29.46C38.4436 29.46 38.8615 29.0421 38.8615 28.4043V22.4435C38.8615 19.9141 40.1813 18.4624 42.3588 18.4624C42.9087 18.4624 43.3486 18.0445 43.3486 17.4726C43.3266 16.9227 42.8427 16.5048 42.3588 16.5048Z" fill="#4D4D4D"/>
<path d="M54.7407 21.8375C54.7407 20.6497 54.3887 19.462 53.7509 18.4722C52.7611 17.1525 51.1554 16.3827 49.4838 16.5146C45.9206 16.5146 43.875 18.8901 43.875 23.0252C43.875 27.2923 45.8986 29.6018 49.7477 29.6018C51.2874 29.6678 52.8271 29.1179 54.0148 28.0621C54.2348 27.9302 54.3667 27.6442 54.3667 27.3583C54.3667 26.8744 53.9488 26.4565 53.4649 26.4565C53.245 26.4565 53.047 26.5225 52.9151 26.6764C52.0792 27.3803 50.9575 27.7982 49.8357 27.7982C47.5262 27.7982 46.0525 26.2585 45.9865 23.8171H53.5529C54.7407 23.6631 54.7407 22.5413 54.7407 21.8375ZM49.5718 18.3402C51.6613 18.3402 52.7171 19.528 52.7831 21.8375H45.9865C46.2065 19.594 47.4602 18.3402 49.5718 18.3402Z" fill="#4D4D4D"/>
<path d="M61.6045 21.9883C60.0649 21.4384 58.8111 20.9985 58.8111 19.8987C58.8111 18.645 60.2188 18.4911 60.9887 18.4911C62.0444 18.4251 63.0782 18.843 63.7821 19.5468C64.134 19.8987 64.7718 19.8987 65.1018 19.5468C65.3217 19.3269 65.3877 19.1289 65.3877 18.843C65.3877 18.623 65.3217 18.4251 65.1678 18.2051C64.112 17.0174 62.5723 16.3135 61.0326 16.4455C58.4372 16.4455 56.8315 17.7652 56.8315 19.8108C56.8315 22.3402 59.0751 23.1101 61.0326 23.7919C62.5063 24.2758 63.826 24.6937 63.826 25.8155C63.826 27.2892 62.1544 27.5751 61.1646 27.5751C59.9769 27.6411 58.7891 27.1572 57.9533 26.3214C57.7334 26.1014 57.5354 26.0354 57.2495 25.9694C56.7656 25.9694 56.3477 26.3874 56.3477 26.8713C56.3477 27.0912 56.4136 27.2892 56.5676 27.5091C57.7554 28.9168 59.427 29.5987 61.1866 29.5987C64.134 29.5987 65.8716 28.191 65.8716 25.9474C65.7396 23.374 63.5621 22.6702 61.6045 21.9883Z" fill="#4D4D4D"/>
<path d="M73.7233 16.4446C72.4696 16.3786 71.1939 16.9285 70.3581 17.9183V11.0558C70.3581 10.5059 69.9402 10 69.3023 10C68.7524 10 68.3125 10.4179 68.3125 11.0558V28.41C68.3125 28.9599 68.7304 29.4658 69.3023 29.4658C69.8522 29.4658 70.3581 29.0479 70.3581 28.41V21.8994C70.3581 19.524 71.4798 18.3362 73.7233 18.3362C75.9669 18.3362 76.7367 19.326 76.7367 21.7015V28.432C76.7367 28.9819 77.1546 29.4878 77.7925 29.4878C78.3423 29.4878 78.7823 29.0699 78.7823 28.432V21.3496C78.7603 18.1383 77.0886 16.4446 73.7233 16.4446Z" fill="#4D4D4D"/>
<path d="M86.1748 21.9941C84.6352 21.4442 83.3814 21.0043 83.3814 19.9045C83.3814 18.6508 84.7891 18.4968 85.559 18.4968C86.6147 18.4308 87.6485 18.8487 88.3524 19.5526C88.5723 19.7725 88.7703 19.8385 89.0562 19.8385C89.5401 19.8385 89.958 19.4206 89.958 18.9367C89.958 18.7168 89.892 18.5188 89.7381 18.2989C88.6823 17.1111 87.1426 16.4073 85.603 16.5392C83.0075 16.5392 81.4019 17.859 81.4019 19.9045C81.4019 22.434 83.6454 23.2038 85.603 23.8857C87.0766 24.3696 88.3964 24.7875 88.3964 25.9092C88.3964 27.3829 86.7247 27.6689 85.7349 27.6689C84.5472 27.7348 83.3594 27.2509 82.5236 26.4151C82.3037 26.1952 82.1057 26.1292 81.8198 26.0632C81.3359 26.0632 80.918 26.4811 80.918 26.965C80.918 27.185 80.984 27.3829 81.1379 27.6029C82.3257 28.9226 83.9973 29.6264 85.8229 29.5604C88.7703 29.5604 90.5079 28.1527 90.5079 25.9092C90.31 23.3798 88.0664 22.6759 86.1748 21.9941Z" fill="#4D4D4D"/>
<path d="M97.4587 16.4453C94.7313 16.4453 93.3896 17.765 92.9057 18.6228C92.8397 18.7548 92.7737 18.9748 92.7737 19.1727C92.7737 19.6566 93.1916 20.0745 93.6755 20.0745C94.0275 20.0745 94.3134 19.9426 94.5114 19.6566C95.2152 18.7548 96.337 18.2489 97.4587 18.4029C99.2843 18.4029 100.406 19.4587 100.406 21.1303V21.6802H96.8429C93.8955 21.6802 92.0039 23.1539 92.0039 25.5953C92.0039 28.0368 93.7635 29.5105 96.7549 29.5105C98.1626 29.5765 99.4823 29.0266 100.406 27.9708V28.3887C100.406 28.9386 100.824 29.3785 101.396 29.3785C101.946 29.3785 102.386 28.9606 102.386 28.3887V21.1303C102.364 18.2709 100.472 16.4453 97.4587 16.4453ZM96.9748 27.6409C95.6551 27.6409 94.1154 27.289 94.1154 25.5514C94.1154 23.7917 95.8751 23.4618 96.8429 23.4618H100.406V24.4516C100.406 26.6731 98.5805 27.7289 96.9748 27.6409Z" fill="#4D4D4D"/>
<path d="M108.17 27.5082C107.753 27.5082 107.269 27.3763 107.269 26.1885V11.0558C107.269 10.5059 106.851 10 106.279 10C105.729 10 105.289 10.4839 105.289 11.0558V26.1885C105.289 28.2781 106.345 29.4878 108.236 29.4878C108.786 29.4878 109.226 29.0699 109.226 28.498C109.138 27.9261 108.72 27.5082 108.17 27.5082Z" fill="#4D4D4D"/>
<path d="M121.123 21.8375C121.123 20.6497 120.772 19.462 120.134 18.4722C119.144 17.1525 117.538 16.3827 115.867 16.5146C112.303 16.5146 110.258 18.8901 110.258 23.0252C110.258 27.2923 112.281 29.6018 116.131 29.6018C117.67 29.6678 119.21 29.1179 120.398 28.0621C120.618 27.9302 120.75 27.6442 120.75 27.3583C120.75 26.8744 120.332 26.4565 119.848 26.4565C119.628 26.4565 119.43 26.5225 119.298 26.6764C118.462 27.3803 117.34 27.7982 116.219 27.7982C113.909 27.7982 112.435 26.2585 112.369 23.8171H119.936C121.123 23.6631 121.123 22.5413 121.123 21.8375ZM115.867 18.3402C117.956 18.3402 119.012 19.528 119.078 21.8375H112.303C112.501 19.594 113.777 18.3402 115.867 18.3402Z" fill="#4D4D4D"/>
<path d="M127.987 21.9941C126.448 21.4442 125.194 21.0043 125.194 19.9045C125.194 18.6508 126.602 18.4968 127.371 18.4968C128.427 18.4308 129.461 18.8487 130.165 19.5526C130.385 19.7725 130.583 19.8385 130.869 19.8385C131.353 19.8385 131.771 19.4206 131.771 18.9367C131.771 18.7168 131.705 18.5188 131.551 18.2989C130.495 17.1111 128.955 16.4073 127.415 16.5392C124.82 16.5392 123.214 17.859 123.214 19.9045C123.214 22.434 125.458 23.2038 127.415 23.8857C128.889 24.3696 130.209 24.7875 130.209 25.9092C130.209 27.3829 128.537 27.6689 127.547 27.6689C126.36 27.7348 125.172 27.2509 124.336 26.4151C124.116 26.1952 123.918 26.1292 123.632 26.0632C123.148 26.0632 122.73 26.4811 122.73 26.965C122.73 27.185 122.796 27.3829 122.95 27.6029C124.138 28.9226 125.832 29.6264 127.635 29.5604C130.583 29.5604 132.32 28.1527 132.32 25.9092C132.1 23.3798 129.945 22.6759 127.987 21.9941Z" fill="#4D4D4D"/>
<path d="M12.2477 14.1328H21.1998C22.8714 14.1328 24.2131 15.4525 24.2131 17.1462V26.0982C24.2131 32.6748 18.8903 37.9977 12.3137 37.9977H12.2477C5.67112 37.9977 0.348263 32.6748 0.348263 26.0982C0.282277 19.5217 5.60513 14.1988 12.1817 14.1328H12.2477Z" fill="#FFA800"/>
<path d="M12.4032 20.0938C13.7229 20.0938 14.7787 21.1495 14.7787 22.4692C14.7787 23.789 13.7229 24.8447 12.4032 24.8447C11.0834 24.8447 10.0277 23.789 10.0277 22.4692C10.0057 21.1495 11.0834 20.0938 12.4032 20.0938Z" fill="white"/>
<path d="M7.14453 25.6172L11.2796 29.7523V32.0618H13.3032V29.7523L17.4383 25.6172H7.14453Z" fill="white"/>
</g>
<defs>
<clipPath id="clip0_1467_15834">
<rect width="132" height="48" fill="white"/>
</clipPath>
</defs>
</svg>
