<svg width="48" height="48" viewBox="0 0 48 48" fill="none" xmlns="http://www.w3.org/2000/svg">
<g clip-path="url(#clip0_1463_11295)">
<path d="M10.6969 43.241L0.412383 25.4323C-0.137461 24.4806 -0.137461 23.3064 0.412383 22.3547L10.6969 4.53823C11.2456 3.58769 12.2596 3.00223 13.3682 3H33.9517C35.0458 3.00557 36.0554 3.58991 36.6008 4.53823L46.8964 22.3558C47.4463 23.3075 47.4463 24.4817 46.8964 25.4334L36.5896 43.241C36.0409 44.1915 35.0269 44.777 33.9183 44.7792H13.3382C12.2429 44.7759 11.2323 44.1893 10.6835 43.241H10.6969Z" fill="#4386FA"/>
<path opacity="0.1" d="M30.0705 18.2188C30.0705 18.2188 32.931 25.1202 29.032 29.0335C25.133 32.9468 18.0352 30.4413 18.0352 30.4413L32.4747 45.0271H33.9405C35.038 45.0248 36.052 44.4357 36.6119 43.4792L43.4215 31.6139L30.0705 18.2188Z" fill="black"/>
<path d="M33.4495 32.3493L30.2885 29.1831C30.2546 29.1476 30.2155 29.1174 30.1727 29.0935C31.5084 27.3522 32.1343 25.164 31.923 22.9746C31.7117 20.7852 30.679 18.7592 29.0353 17.3091C27.3916 15.8589 25.2604 15.0937 23.0756 15.1692C20.8909 15.2447 18.8169 16.1552 17.2759 17.7154C14.0781 20.9578 13.9367 26.1524 16.9553 29.5538C18.4107 31.1954 20.4325 32.2179 22.61 32.4137C24.7876 32.6094 26.9575 31.9637 28.679 30.6077C28.702 30.6485 28.73 30.6861 28.7625 30.7197L31.9235 33.9005C31.9694 33.9467 32.0239 33.9833 32.0839 34.0081C32.1439 34.0329 32.2082 34.0454 32.273 34.045C32.4038 34.0446 32.5292 33.9928 32.6225 33.9005L33.4606 33.0572C33.5065 33.011 33.5429 32.9562 33.5675 32.8958C33.5921 32.8355 33.6046 32.7708 33.6042 32.7055C33.6038 32.5739 33.5523 32.4477 33.4606 32.3538L33.4495 32.3493ZM23.3798 30.293C22.1012 30.2927 20.8514 29.911 19.7883 29.1961C18.7253 28.4812 17.8966 27.4653 17.4072 26.2767C16.4055 23.8463 16.9598 21.0463 18.8097 19.1871C19.7141 18.278 20.866 17.6591 22.1199 17.4084C23.3737 17.1578 24.6733 17.2868 25.8544 17.779C27.0354 18.2712 28.045 19.1047 28.7556 20.174C29.4661 21.2433 29.8458 22.5006 29.8466 23.7869C29.8444 27.3788 26.9527 30.2897 23.382 30.2919L23.3798 30.293ZM19.2482 23.4397V26.1277C19.66 26.8591 20.2555 27.4673 20.9756 27.894V23.4341L19.2482 23.4397ZM22.476 21.2109V28.4764C23.047 28.5817 23.6336 28.5817 24.2035 28.4764V21.1997L22.476 21.2109ZM27.4758 26.1244V24.534H25.7484V27.8873C26.4674 27.4617 27.0618 26.8569 27.4758 26.1266V26.1244Z" fill="white"/>
</g>
<defs>
<clipPath id="clip0_1463_11295">
<rect width="48" height="42" fill="white" transform="translate(0 3)"/>
</clipPath>
</defs>
</svg>
