<svg width="48" height="48" viewBox="0 0 48 48" fill="none" xmlns="http://www.w3.org/2000/svg">
<path d="M38.1263 19.4825C38.1263 27.4776 31.7873 33.9651 23.9635 33.9651C16.1397 33.9651 9.80078 27.4776 9.80078 19.4825C9.80078 11.4874 16.1397 5 23.9635 5C31.7873 5 38.1263 11.4874 38.1263 19.4825Z" fill="#D33833"/>
<path d="M10.383 23.0692C10.383 23.0692 9.35509 7.96994 23.278 7.53592L22.3071 5.91406L14.7575 8.44965L12.5988 10.9281L10.7143 14.5373L9.64062 18.7405L9.96043 21.5502" fill="#EF3D3A"/>
<path d="M14.267 9.6006C11.7886 12.1476 10.2466 15.654 10.2466 19.5374C10.2466 23.4207 11.7886 26.9271 14.267 29.4741C16.7569 32.0211 20.172 33.5859 23.9639 33.5859C27.7559 33.5859 31.1709 32.0211 33.6608 29.4741C36.1393 26.9271 37.6812 23.4207 37.6812 19.5374C37.6812 15.654 36.1393 12.1476 33.6608 9.6006C31.1709 7.06501 27.7559 5.48883 23.9639 5.48883C20.1834 5.48883 16.7569 7.05359 14.267 9.6006ZM13.6389 30.0795C11.0005 27.384 9.36719 23.6491 9.36719 19.5374C9.36719 15.4256 11.0005 11.6907 13.6389 8.98383C16.2772 6.28834 19.9321 4.60938 23.9639 4.60938C27.9958 4.60938 31.6507 6.28834 34.289 8.98383C36.9274 11.6793 38.5607 15.4142 38.5607 19.5374C38.5607 23.6491 36.9274 27.384 34.289 30.0795C31.6507 32.7864 27.9958 34.4539 23.9639 34.4539C19.9321 34.4539 16.2772 32.7864 13.6389 30.0795Z" fill="#231F20"/>
<path d="M29.9245 19.565L27.7658 19.8848L24.8533 20.216L22.9687 20.2617L21.1299 20.2046L19.725 19.7706L18.4801 18.4228L17.5092 15.6702L17.2922 15.0763L16.0016 14.6423L15.2478 13.3973L14.7109 11.6156L15.3049 10.0508L16.7097 9.55968L17.8404 10.0965L18.3773 11.2843L19.0283 11.1815L19.2453 10.9074L19.0283 9.66247L18.9712 8.09772L19.291 5.93904L19.2796 4.70551L20.2618 3.12934L21.9865 1.88439L25.0018 0.59375L28.3483 1.08488L31.2608 3.18644L32.6085 5.34512L33.4766 6.90987L33.6936 10.7932L33.0425 14.1397L31.8547 17.1093L30.7354 18.6969" fill="#F0D6B7"/>
<path d="M28.0999 28.8935L20.3904 29.2133V30.504L21.0414 35.0383L20.7216 35.4152L15.3306 33.5764L14.9537 32.9253L14.4169 26.8262L13.1491 23.1713L12.875 22.3033L17.1923 19.3337L18.5401 18.7969L19.7279 20.2588L20.7559 21.1726L21.9437 21.5495L22.4805 21.7094L23.1316 24.5191L23.6227 25.113L24.8676 24.679L23.9996 26.3579L28.6824 28.5737L28.0999 28.8935Z" fill="#335061"/>
<path d="M15.3069 10.0753L16.7117 9.58417L17.8424 10.121L18.3793 11.3088L19.0303 11.206L19.1902 10.555L18.8704 9.31005L19.1902 6.34045L18.9161 4.71859L19.8869 3.58785L21.9885 1.92031L21.3945 1.10938L18.4249 2.57133L17.18 3.54217L16.4833 5.04981L15.4096 6.51177L15.0898 8.23643L15.3069 10.0753Z" fill="#6D6B6D"/>
<path d="M17.5223 4.9989C17.5223 4.9989 18.3332 3.00013 21.5655 2.02929C24.7978 1.05846 21.7254 1.33258 21.7254 1.33258L18.219 2.68032L16.8713 4.02807L16.2773 5.10169L17.5223 4.9989Z" fill="#DCD9D8"/>
<path d="M15.9008 9.69494C15.9008 9.69494 14.77 5.9144 19.0874 5.37759L18.9275 4.72656L15.9579 5.42328L15.0898 8.23298L15.3069 10.0719L15.9008 9.69494Z" fill="#DCD9D8"/>
<path d="M17.625 14.7087L18.3331 14.0234C18.3331 14.0234 18.6529 14.0577 18.71 14.4346C18.7672 14.8115 18.9271 18.2152 21.2456 20.0426C21.4626 20.2139 19.521 19.7685 19.521 19.7685L17.7963 17.073" fill="#F7E4CD"/>
<path d="M27.5491 13.6786C27.5491 13.6786 27.6747 12.0453 28.1202 12.171C28.5656 12.2966 28.5656 12.742 28.5656 12.742C28.5656 12.742 27.492 13.4273 27.5491 13.6786Z" fill="#F7E4CD"/>
<path d="M32.0299 7.69531C32.0299 7.69531 31.139 7.87806 31.059 8.66615C30.9791 9.45423 32.0299 8.82605 32.1898 8.76894" fill="#F7E4CD"/>
<path d="M25.5042 7.75C25.5042 7.75 24.3164 7.9099 24.3164 8.66373C24.3164 9.41755 25.6642 9.36044 26.0411 9.04064" fill="#F7E4CD"/>
<path d="M18.1744 11.2601C18.1744 11.2601 16.1299 10.0151 15.9129 11.203C15.6959 12.3908 15.2162 13.2474 16.2327 14.4924L15.536 14.2754L14.885 12.6078L14.668 10.9859L15.9129 9.69531L17.3178 9.79811L18.1287 10.4491L18.1744 11.2601Z" fill="#F7E4CD"/>
<path d="M19.1441 7.85282C19.1441 7.85282 20.0578 3.10145 24.6949 2.18773C28.5097 1.4339 30.5199 2.34763 31.2738 3.21567C31.2738 3.21567 27.8701 -0.827566 24.6378 0.405963C21.4055 1.65091 19.0298 3.91238 19.0869 5.36292C19.1783 7.85282 19.1441 7.85282 19.1441 7.85282Z" fill="#F7E4CD"/>
<path d="M31.6492 3.75814C31.6492 3.75814 30.0845 3.70103 30.0273 5.10588C30.0273 5.10588 30.0273 5.32289 30.1301 5.5399C30.1301 5.5399 31.3751 4.13505 32.1289 4.88887" fill="#F7E4CD"/>
<path d="M24.8071 5.68118C24.8071 5.68118 24.533 3.53392 22.7055 4.77887C21.5177 5.5898 21.6319 6.72054 21.8375 6.93755C22.0545 7.15456 21.9974 7.58858 22.1573 7.29162C22.3172 6.99466 22.2715 6.02382 22.8654 5.74971C23.4479 5.47559 24.4302 5.17863 24.8071 5.68118Z" fill="#F7E4CD"/>
<path d="M19.7397 20.2576L14.6685 22.5191C14.6685 22.5191 16.77 30.8797 15.6964 33.4724L14.9426 33.1983L14.8855 30.0117L13.4806 23.9811L12.8867 22.3135L18.1749 18.75L19.7397 20.2576Z" fill="#49728B"/>
<path d="M20.2516 24.8828L20.9711 25.7623V28.9946H20.1145C20.1145 28.9946 20.0117 26.7331 20.0117 26.459C20.0117 26.1849 20.1145 25.214 20.1145 25.214" fill="#49728B"/>
<path d="M20.2765 29.4922L17.8438 29.595L18.5405 30.0861L20.2651 30.3602" fill="#49728B"/>
<path d="M28.5781 28.9477L30.5769 28.8906L31.068 33.8476L29.0236 34.1217L28.5781 28.9477Z" fill="#335061"/>
<path d="M29.1133 28.9533L32.1286 28.7934C32.1286 28.7934 33.3735 25.6639 33.3735 25.504C33.3735 25.3441 34.4471 20.9696 34.4471 20.9696L32.0144 18.434L31.5232 18L30.2326 19.2906V24.3047L29.1133 28.9533Z" fill="#335061"/>
<path d="M30.4627 28.5781L28.5781 28.955L28.8522 30.4627C29.549 30.7825 30.7368 29.9259 30.7368 29.9259" fill="#49728B"/>
<path d="M30.5195 19.1271L34.3001 21.9368L34.4029 20.6462L31.5475 18.0078L30.5195 19.1271Z" fill="#49728B"/>
<path d="M22.1492 39.571L21.0299 35.0366L20.4703 31.6901L20.3789 29.2116L25.4387 28.9375H28.5796L28.294 34.6026L28.7852 38.9771L28.7281 39.788L24.6277 40.1078L22.1492 39.571Z" fill="white"/>
<path d="M27.8829 28.8979C27.8829 28.8979 27.6088 34.5059 28.4197 38.5035C28.4197 38.5035 26.7979 39.5314 24.4336 39.7941L28.968 39.6342L29.5048 39.3144L28.8537 30.4741L28.6824 28.5781" fill="#DCD9D8"/>
<path d="M31.1492 33.426L33.2508 32.8321L37.2369 32.6151L37.8308 30.7762L36.7572 27.5896L35.5122 27.4297L33.7876 27.9665L32.1429 28.7774L31.2634 28.6175L30.5781 28.8916" fill="white"/>
<path d="M31.1133 32.3455C31.1133 32.3455 32.5181 31.6944 32.7351 31.7515L32.1412 28.7819L32.8379 28.5078C32.8379 28.5078 33.3291 31.3175 33.3291 31.6373C33.3291 31.6373 36.3444 31.7972 36.6185 31.7972C36.6185 31.7972 37.2695 30.5523 37.1096 29.2616L37.7035 30.9863L37.7606 31.9571L36.8926 33.2478L35.9218 33.4648L34.2999 33.4077L33.7631 32.7109L31.8785 32.9851L31.2846 33.2021" fill="#DCD9D8"/>
<path d="M28.9914 28.5196L27.8035 25.5043L26.5586 23.7226C26.5586 23.7226 26.8327 22.9688 27.2096 22.9688H28.4546L29.6424 23.4028L29.5396 25.4015L28.9914 28.5196Z" fill="white"/>
<path d="M29.2292 27.4845C29.2292 27.4845 27.7215 24.572 27.7215 24.138C27.7215 24.138 27.9956 23.487 28.3725 23.6469C28.7495 23.8068 29.5604 24.2408 29.5604 24.2408V23.2128L27.7215 22.8359L26.4766 22.9958L28.5781 27.9756L29.0121 28.0327" fill="#DCD9D8"/>
<path d="M22.6276 20.3752L21.1314 20.2153L19.7266 19.7812V20.2724L20.4119 21.0262L22.5705 21.997" fill="white"/>
<path d="M20.2188 20.5312C20.2188 20.5312 21.8863 21.228 22.4346 21.0681L22.4917 21.7191L20.984 21.3993L20.0703 20.7483L20.2188 20.5312Z" fill="#DCD9D8"/>
<path d="M31.1489 23.1535C30.2352 23.1306 29.4014 23.0164 28.6819 22.8108C28.7275 22.5139 28.6362 22.2283 28.7161 22.0113C28.9217 21.8628 29.2529 21.8628 29.5613 21.8286C29.2986 21.7029 28.9217 21.6458 28.6247 21.7258C28.6133 21.5202 28.522 21.3946 28.4648 21.2346C28.9788 21.0519 30.1895 19.8526 30.8748 20.241C31.206 20.4351 31.3431 21.5088 31.3659 22.0456C31.3888 22.4796 31.3202 22.9136 31.1489 23.1535Z" fill="#D33833"/>
<path d="M31.1489 23.1535C30.2352 23.1306 29.4014 23.0164 28.6819 22.8108C28.7275 22.5139 28.6362 22.2283 28.7161 22.0113C28.9217 21.8628 29.2529 21.8628 29.5613 21.8286C29.2986 21.7029 28.9217 21.6458 28.6247 21.7258C28.6133 21.5202 28.522 21.3946 28.4648 21.2346C28.9788 21.0519 30.1895 19.8526 30.8748 20.241C31.206 20.4351 31.3431 21.5088 31.3659 22.0456C31.3888 22.4796 31.3202 22.9136 31.1489 23.1535Z" fill="black" stroke="#D33833" stroke-width="3.83693"/>
<path d="M26.7718 21.6535C26.7718 21.722 26.7718 21.7906 26.7603 21.8591C26.4748 22.0418 26.0179 22.0418 25.6981 22.2018C26.155 22.2246 26.5205 22.3388 26.8403 22.4873C26.8289 22.6586 26.8289 22.8414 26.8175 23.0127C26.2921 23.3668 25.8124 23.9036 25.1956 24.2462C24.8986 24.4061 23.8821 24.8173 23.5737 24.7373C23.4024 24.6917 23.3796 24.4746 23.311 24.2691C23.1626 23.835 22.8199 23.1269 22.7856 22.4644C22.7514 21.6307 22.66 20.2258 23.5623 20.3971C24.2933 20.5342 25.1385 20.8654 25.6981 21.1738C26.0522 21.3794 26.2464 21.6078 26.7718 21.6535Z" fill="#D33833"/>
<path d="M26.7718 21.6535C26.7718 21.722 26.7718 21.7906 26.7603 21.8591C26.4748 22.0418 26.0179 22.0418 25.6981 22.2018C26.155 22.2246 26.5205 22.3388 26.8403 22.4873C26.8289 22.6586 26.8289 22.8414 26.8175 23.0127C26.2921 23.3668 25.8124 23.9036 25.1956 24.2462C24.8986 24.4061 23.8821 24.8173 23.5737 24.7373C23.4024 24.6917 23.3796 24.4746 23.311 24.2691C23.1626 23.835 22.8199 23.1269 22.7856 22.4644C22.7514 21.6307 22.66 20.2258 23.5623 20.3971C24.2933 20.5342 25.1385 20.8654 25.6981 21.1738C26.0522 21.3794 26.2464 21.6078 26.7718 21.6535Z" fill="black" stroke="#D33833" stroke-width="3.83693"/>
<path d="M27.289 22.6474C27.209 22.1905 27.1177 22.0649 27.1519 21.6651C28.374 20.8542 28.591 23.0586 27.289 22.6474Z" fill="#D33833"/>
<path d="M27.289 22.6474C27.209 22.1905 27.1177 22.0649 27.1519 21.6651C28.374 20.8542 28.591 23.0586 27.289 22.6474Z" fill="black" stroke="#D33833" stroke-width="3.83693"/>
<path d="M29.0471 23.0093C29.0471 23.0093 28.6702 22.4725 28.9443 22.3126C29.2184 22.1527 29.4811 22.3126 29.641 22.0385C29.8009 21.7644 29.641 21.6045 29.6981 21.2847C29.7552 20.9649 30.0179 20.9078 30.292 20.8507C30.5662 20.7936 31.32 20.6908 31.4228 20.9535L31.103 19.9826L30.4519 19.7656L28.4075 20.9535L28.3047 21.5474V22.7352" fill="#EF3D3A"/>
<path d="M23.3809 24.7949C23.3124 23.9497 23.2439 23.1159 23.1754 22.2707C23.0611 21.0144 23.4723 21.2314 24.5688 21.2314C24.7401 21.2314 25.5967 21.4256 25.6538 21.5512C25.9508 22.1565 25.1627 22.0195 25.9965 22.4763C26.6932 22.8532 27.9382 22.2479 27.6526 21.3913C27.4927 21.1971 26.8303 21.3342 26.5904 21.2085C26.1678 20.9915 25.7452 20.7745 25.3226 20.5575C24.7858 20.2834 23.5523 19.8722 22.9812 20.2606C21.5307 21.2428 23.0726 23.7099 23.5865 24.7378" fill="#EF3D3A"/>
<path d="M24.8092 5.68218C23.3358 5.33953 22.6049 6.29894 22.1594 7.29262C21.7597 7.20124 21.9196 6.65301 22.0224 6.37889C22.2851 5.65933 23.3473 4.6885 24.2153 4.82556C24.5808 4.87124 25.0833 5.21389 24.8092 5.68218Z" fill="#231F20"/>
<path d="M31.9704 7.35156H32.039C32.3702 8.03686 32.6557 8.76784 33.0783 9.3846C32.7928 10.0471 30.9539 10.6181 30.9768 9.45313C31.3765 9.28181 32.0618 9.41886 32.4159 9.19043C32.2103 8.63078 31.9248 8.15107 31.9704 7.35156Z" fill="#231F20"/>
<path d="M25.5511 7.375C25.8709 7.9575 25.9737 8.56284 26.4191 8.99686C26.6247 9.19103 27.013 9.43088 26.8189 9.97912C26.7732 10.1048 26.4419 10.3903 26.2478 10.4474C25.5511 10.653 23.9178 10.4931 24.466 9.61363C25.0485 9.63647 25.8252 9.99054 26.2592 9.56794C25.928 9.04255 25.334 7.99176 25.5511 7.375Z" fill="#231F20"/>
<path d="M31.7055 13.2436C30.6547 13.9174 29.4783 14.6598 27.7422 14.4885C27.3767 14.1687 27.2282 13.4492 27.5937 12.9809C27.7765 13.3007 27.6622 13.8946 28.1876 13.986C29.1699 14.1573 30.312 13.3806 31.0202 13.1179C31.4542 12.3755 30.9859 12.1128 30.5862 11.6331C29.7752 10.6623 28.7016 9.45161 28.7359 8.00107C29.0671 7.76122 29.0899 8.36656 29.1356 8.46935C29.5582 9.45161 30.6204 10.7194 31.3857 11.5646C31.5798 11.7702 31.8882 11.9758 31.9225 12.1128C32.0253 12.5012 31.6598 12.9809 31.7055 13.2436Z" fill="#231F20"/>
<path d="M17.7978 12.5428C17.4665 12.3487 17.3866 11.5263 16.9983 11.5035C16.4386 11.4692 16.5414 12.5771 16.5414 13.2281C16.1645 12.8855 16.096 11.8119 16.3701 11.2636C16.0503 11.1037 15.9132 11.4349 15.7305 11.5492C15.9703 9.89304 18.1633 10.7839 17.7978 12.5428Z" fill="#231F20"/>
<path d="M32.3688 13.9453C31.8776 14.8819 31.1809 15.9098 29.7418 15.9441C29.7076 15.6471 29.6847 15.1788 29.7418 14.9961C30.8497 14.8819 31.535 14.3222 32.3688 13.9453Z" fill="#231F20"/>
<path d="M25.4727 14.5469C26.3864 15.0266 28.0768 15.0837 29.3331 15.0494C29.4017 15.3235 29.4017 15.6662 29.4017 15.9974C27.7912 16.0659 25.8953 15.6662 25.4727 14.5469Z" fill="#231F20"/>
<path d="M25.3001 15.4375C25.9398 17.0365 28.1213 16.8538 29.9601 16.8081C29.8802 17.0137 29.7089 17.265 29.4804 17.3449C28.8865 17.5848 27.2647 17.7675 26.4423 17.3335C25.9283 17.0594 25.5857 16.4312 25.3001 16.0657C25.1745 15.8944 24.4892 15.4489 25.3001 15.4375Z" fill="#231F20"/>
<path d="M31.6266 24.2433C30.8842 25.5225 30.1646 26.836 29.2852 27.9553C29.6506 26.8702 29.8105 25.0428 29.8677 23.6493C30.6443 23.2839 31.3068 23.7293 31.6266 24.2433Z" fill="#81B0C4"/>
<path d="M35.6371 28.8359C34.8033 29.0073 34.2208 29.8182 33.3984 29.7611C33.8553 29.1329 34.632 28.8588 35.6371 28.8359Z" fill="#231F20"/>
<path d="M36.0021 30.1364C35.3168 30.2049 34.5173 30.3191 33.832 30.262C34.1633 29.7595 35.4196 29.9422 36.0021 30.1364Z" fill="#231F20"/>
<path d="M36.2411 31.274C35.4758 31.2855 34.5279 31.274 33.7969 31.2169C34.2309 30.7486 35.75 31.0456 36.2411 31.274Z" fill="#231F20"/>
<path d="M30.1891 34.3572C30.3033 35.3166 30.6802 36.2874 30.6346 37.3382C30.212 37.4753 29.9721 37.6009 29.401 37.6009C29.3668 36.71 29.2411 35.3394 29.2754 34.4828C29.5495 34.5057 29.9607 34.2887 30.1891 34.3572Z" fill="#DCD9D8"/>
<path d="M28.9546 20.1875C28.5662 20.4388 28.2464 20.7472 27.8695 21.0213C27.0472 21.067 26.6017 20.9642 26.0078 20.4959C26.0192 20.4616 26.0763 20.473 26.0763 20.4274C26.9558 20.8157 28.0751 20.2675 28.9546 20.1875Z" fill="#F0D6B7"/>
<path d="M24.3633 26.1665C24.6031 25.1271 25.5511 24.5789 26.4077 24.0078C27.2872 25.1271 27.824 26.5662 28.4179 27.9597C27.0131 27.5371 25.5854 26.8632 24.3633 26.1665Z" fill="#81B0C4"/>
<path d="M29.276 34.4903C29.2417 35.3469 29.3559 36.7061 29.4016 37.6084C29.9727 37.6084 30.2125 37.4827 30.6351 37.3457C30.6808 36.2949 30.3039 35.3241 30.1897 34.3647C29.9613 34.2847 29.5501 34.5017 29.276 34.4903ZM20.4585 29.6475C20.8354 33.0854 21.3722 35.9637 22.3659 39.0132C24.5703 39.6871 27.2201 39.7442 29.1732 39.1389C28.8191 37.4256 28.9676 35.3355 28.762 33.4966C28.6021 32.1146 28.682 30.7326 28.465 29.3277C26.1008 28.8366 22.7657 29.2135 20.4585 29.6475ZM29.0247 29.3506C29.0018 30.824 29.0932 32.2859 29.2074 33.7593C29.7785 33.6794 30.1554 33.6223 30.6808 33.4966C30.5095 32.0803 30.5323 30.4699 30.1783 29.2135C29.7785 29.225 29.4244 29.2135 29.0247 29.3506ZM31.8915 29.1107C31.6174 29.0536 31.309 29.1107 31.0577 29.1107C31.1834 30.31 31.4689 31.6349 31.5717 32.9027C31.9715 32.9141 32.1885 32.7199 32.5197 32.6628C32.5425 31.555 32.4283 30.0245 31.8915 29.1107ZM36.2431 33.0854C37.0883 32.8798 37.6137 31.8519 37.3739 30.7897C37.2139 30.0816 36.9398 28.7338 36.6314 28.277C36.4144 27.9457 35.8091 27.5003 35.318 27.8087C34.5299 28.3112 33.1479 28.4597 32.5768 29.065C32.8623 30.0245 32.9537 31.3265 33.0679 32.5372C34.0502 32.5943 35.2494 32.2631 36.0718 32.6172C35.5007 32.7999 34.7697 32.7999 34.2786 33.074C34.6898 33.2682 35.6264 33.2339 36.2431 33.0854ZM28.4079 27.9572C27.814 26.5637 27.2772 25.1246 26.3977 24.0053C25.5411 24.5764 24.6045 25.1246 24.3533 26.164C25.5868 26.8607 27.0145 27.5346 28.4079 27.9572ZM29.8699 23.6512C29.8128 25.0447 29.6529 26.8721 29.2874 27.9572C30.1668 26.8264 30.8864 25.5244 31.6288 24.2452C31.309 23.7312 30.6466 23.2857 29.8699 23.6512ZM28.2138 23.0687C27.8825 23.0345 27.597 23.4571 27.163 23.2743C27.0602 23.3885 26.9688 23.5027 26.866 23.617C27.8254 24.782 28.2709 26.4267 29.0133 27.7858C29.413 26.4724 29.3673 25.0447 29.4587 23.617C28.9105 23.6398 28.6021 23.103 28.2138 23.0687ZM27.1516 21.6639C27.1173 22.0636 27.2087 22.1893 27.2886 22.6461C28.5907 23.0573 28.3737 20.8529 27.1516 21.6639ZM25.701 21.1842C25.1414 20.8758 24.2962 20.5446 23.5652 20.4075C22.6629 20.2362 22.7543 21.641 22.7885 22.4748C22.8228 23.1373 23.1654 23.834 23.3139 24.2794C23.3824 24.485 23.4053 24.702 23.5766 24.7477C23.885 24.8162 24.9129 24.4165 25.1985 24.2566C25.8152 23.9253 26.2949 23.3885 26.8203 23.023C26.8318 22.8517 26.8318 22.669 26.8432 22.4977C26.5234 22.3378 26.1693 22.235 25.701 22.2121C26.0094 22.0522 26.4777 22.0522 26.7632 21.8695C26.7632 21.8009 26.7632 21.7324 26.7746 21.6639C26.2493 21.6068 26.0551 21.3783 25.701 21.1842ZM20.3329 20.2133C19.8646 20.693 21.6464 21.3327 22.206 21.3669C22.206 21.07 22.3773 20.7844 22.3431 20.5674C21.6692 20.4532 20.7897 20.5331 20.3329 20.2133ZM26.0893 20.4304C26.0893 20.476 26.0322 20.4646 26.0208 20.4989C26.6262 20.9672 27.0716 21.07 27.8825 21.0243C28.248 20.7616 28.5793 20.4418 28.9676 20.1905C28.0767 20.2704 26.9574 20.8187 26.0893 20.4304ZM31.3661 22.0294C31.3433 21.504 31.2062 20.4189 30.875 20.2248C30.1897 19.825 28.979 21.0357 28.465 21.2184C28.5221 21.3783 28.6135 21.504 28.6249 21.7096C28.9333 21.6296 29.2988 21.6867 29.5615 21.8124C29.2531 21.8466 28.9219 21.8466 28.7163 21.9951C28.6478 22.2121 28.7392 22.4977 28.682 22.7946C29.4016 23.0002 30.2354 23.103 31.1491 23.1373C31.3204 22.9088 31.389 22.4748 31.3661 22.0294ZM19.5448 20.6702C19.3963 20.5674 18.4026 19.2768 18.2656 19.3339C16.4724 20.042 14.7934 21.2641 13.2972 22.4291C14.7249 25.5015 15.3074 29.2592 15.4102 32.8798C17.0435 33.6451 18.4826 34.753 20.7098 34.8672C20.4471 33.0512 20.2187 31.4179 20.0702 29.7047C19.5105 29.4648 18.711 29.7161 18.1856 29.6361C18.1856 29.0079 18.9851 29.362 19.0537 28.9394C19.0994 28.6196 18.6082 28.5968 18.7681 28.0942C19.1793 28.2427 19.3963 28.5739 19.8303 28.6996C20.2301 27.8315 19.8303 26.2896 19.8874 25.5586C19.8989 25.4216 19.956 24.8048 20.2644 24.9076C20.5385 24.999 20.2529 26.5637 20.2758 27.249C20.2986 27.8886 20.1958 28.494 20.4585 28.8937C22.6058 28.5968 24.7873 28.414 27.1173 28.3455C26.6033 28.1285 25.998 27.9229 25.3355 27.546C24.97 27.3404 23.8393 26.9178 23.7365 26.5751C23.5652 26.0269 24.1705 25.7414 24.2733 25.2731C23.1883 25.867 22.9827 24.702 22.72 23.8911C22.4916 23.1487 22.3545 22.589 22.2974 22.1664C21.3494 21.6867 20.3443 21.2413 19.5448 20.6702ZM30.4181 19.4824C31.9143 18.7628 32.1885 22.1893 31.5945 23.2972C31.6859 23.6284 31.9943 23.754 32.1199 24.051C31.2862 25.5472 30.361 26.9406 29.5044 28.414C30.1326 28.0143 31.0463 28.3455 31.7887 28.0485C32.0628 27.9457 32.257 27.3176 32.4626 26.815C33.0337 25.4444 33.6276 23.7083 33.8903 22.4063C33.9474 22.1093 34.1187 21.4583 34.073 21.1956C34.0045 20.7159 33.3649 20.3618 33.0337 20.0763C32.4283 19.528 32.0514 19.0598 31.4118 18.5458C31.1719 18.9227 30.6237 19.174 30.4181 19.4824ZM16.1297 6.22193C15.4216 7.01002 15.5701 8.47198 15.65 9.52276C16.9407 8.71183 18.6425 9.59129 18.6311 10.9619C19.2478 10.9505 18.8595 10.1966 18.7453 9.7055C18.3798 8.11791 19.362 6.40467 18.791 4.95414C17.6831 5.04551 16.7808 5.49095 16.1297 6.22193ZM21.2238 1.66473C19.6133 2.12159 17.546 3.29801 16.8836 4.74855C17.3975 4.6686 17.7516 4.41732 18.2542 4.38306C18.4483 4.37164 18.6996 4.46301 18.9166 4.4059C19.3506 4.29169 19.7275 3.30943 20.0588 2.94394C20.3786 2.58987 20.7669 2.42997 21.0296 2.11017C21.2009 2.03022 21.4522 2.03022 21.4636 1.77894C21.3951 1.69899 21.3151 1.64188 21.2238 1.66473ZM29.6186 2.09875C27.9396 1.15076 25.1071 0.44262 23.3253 1.3335C21.8862 2.05306 19.9445 3.2409 19.2821 4.73713C19.8989 6.18766 19.0994 7.51256 19.0422 8.98595C19.0194 9.77403 19.4077 10.4479 19.442 11.3045C19.225 11.6586 18.5854 11.6929 18.1399 11.67C17.9915 10.9162 17.7288 10.071 16.9521 9.97962C15.8556 9.85398 15.0447 10.7677 14.999 11.7157C14.9419 12.835 15.8556 14.6853 17.1577 14.5597C17.6602 14.514 17.7859 14.0114 18.3341 14.0114C18.6311 14.6054 17.8772 14.7881 17.7973 15.2107C17.7745 15.3249 17.8544 15.7475 17.9115 15.9531C18.1514 16.9239 18.6768 18.1917 19.1907 18.9341C19.8532 19.8821 21.1438 20.0192 22.5372 20.1105C22.7885 19.5737 23.7022 19.6194 24.2962 19.7565C23.5766 19.4709 22.9142 18.7856 22.3659 18.1803C21.7377 17.4836 21.0981 16.7412 21.0639 15.8275C22.2631 17.4836 23.2454 18.9341 25.4155 19.6651C27.0602 20.2133 28.979 19.4138 30.2468 18.523C30.7722 18.1575 31.0806 17.5635 31.4575 17.0381C32.8509 15.028 33.5019 12.1726 33.3649 9.39712C33.3078 8.25497 33.3078 7.11281 32.9194 6.34757C32.5197 5.54806 31.1605 4.81708 30.361 5.54806C30.2125 4.75997 31.0235 4.28026 31.9715 4.5658C31.2976 3.68634 30.5894 2.64698 29.6186 2.09875ZM32.7481 27.9229C34.0616 27.2719 36.5058 26.1754 37.3167 27.9229C37.6251 28.5739 37.9792 29.659 38.1277 30.3328C38.3447 31.2694 37.8878 33.2568 36.917 33.5651C36.0604 33.8393 35.0667 33.8278 34.0388 33.6223C33.9131 33.5195 33.7875 33.3481 33.6847 33.1654C32.9537 33.1425 32.257 33.1997 31.6859 33.508C31.743 34.0563 31.3775 34.1362 31.0235 34.2504C30.7722 35.267 31.5374 36.5919 31.3547 37.5056C31.2291 38.168 30.4181 38.2708 29.8242 38.385C29.8014 38.7505 29.847 39.0589 29.8927 39.3673C29.7557 39.8698 29.1503 40.1554 28.5678 40.2239C26.6604 40.4523 23.7708 40.5551 21.9433 39.8927C21.4294 38.6363 21.0296 37.1172 20.607 35.6896C18.8252 35.8837 17.3747 34.9243 16.0155 34.2847C15.5472 34.0677 14.8962 33.9421 14.7135 33.5651C14.5422 33.1997 14.6107 32.5029 14.565 31.8519C14.4622 30.1729 14.3594 28.5511 13.9254 26.8378C13.7312 26.0612 13.3772 25.3873 13.1373 24.6449C12.9089 23.9596 12.5205 23.103 12.4177 22.4177C12.2693 21.4012 13.2287 21.3441 13.834 20.8986C14.782 20.2133 15.5244 19.8364 16.5523 19.2197C16.8607 19.0369 17.7745 18.5801 17.8772 18.363C18.0828 17.9404 17.5232 17.3465 17.3747 17.0153C17.1348 16.4899 17.0092 16.0445 16.9749 15.5305C16.1183 15.3934 15.4559 14.8795 15.0675 14.3084C14.4165 13.349 13.9597 11.5786 14.5307 10.2423C14.5764 10.1395 14.7934 9.92251 14.8277 9.76261C14.8962 9.44281 14.7021 9.02021 14.6906 8.67756C14.6335 6.93006 14.9876 5.42242 16.164 4.89703C16.6437 2.98963 18.357 2.36144 19.9674 1.41345C20.5727 1.05938 21.2352 0.830953 21.9205 0.579678C24.3761 -0.322625 28.1567 -0.151302 30.2011 1.39061C31.0692 2.04164 32.4512 3.42365 32.9423 4.42874C34.2558 7.06712 34.153 11.4873 33.2392 14.7081C33.1136 15.1422 32.9423 15.7704 32.691 16.2957C32.5197 16.6612 31.9829 17.3808 32.04 17.7006C32.1085 18.0318 33.2735 18.9113 33.5248 19.1511C33.9702 19.5852 34.8268 20.1562 34.8954 20.7045C34.9753 21.287 34.6441 22.0865 34.4728 22.6461C33.9245 24.5193 33.3763 26.2439 32.7481 27.9229Z" fill="#231F20"/>
<path d="M24.01 14.9456C24.0785 14.8542 24.4668 14.7057 25.0151 14.9684C25.0151 14.9684 24.364 15.0712 24.4211 16.1563L24.147 16.0991C24.1584 16.1106 23.8729 15.1283 24.01 14.9456Z" fill="#F7E4CD"/>
<path d="M28.7385 24.2188C28.7385 24.3787 28.6014 24.5158 28.4415 24.5158C28.2816 24.5158 28.1445 24.3787 28.1445 24.2188C28.1445 24.0589 28.2816 23.9219 28.4415 23.9219C28.6128 23.9219 28.7385 24.0589 28.7385 24.2188Z" fill="#1D1919"/>
<path d="M29.0353 25.6016C29.0353 25.7616 28.8983 25.8986 28.7384 25.8986C28.5785 25.8986 28.4414 25.7616 28.4414 25.6016C28.4414 25.4417 28.5785 25.3047 28.7384 25.3047C28.9097 25.3047 29.0353 25.4303 29.0353 25.6016Z" fill="#1D1919"/>
<path d="M13.4792 43.0824C13.3879 43.0938 13.3079 43.1053 13.2394 43.1167C13.1709 43.1281 13.1023 43.1395 13.011 43.1624C12.9082 43.1852 12.8511 43.2309 12.8282 43.2994C12.8054 43.368 12.7825 43.4365 12.7825 43.5279V46.3147C12.7825 46.566 12.7254 46.8058 12.6226 47.0229C12.5198 47.2399 12.3828 47.4112 12.2 47.5597C12.0173 47.6967 11.8117 47.8109 11.5833 47.8795C11.3548 47.948 11.115 47.9937 10.8637 47.9937C10.4183 47.9937 10.0642 47.8909 9.79008 47.6739C9.51596 47.4569 9.37891 47.1713 9.37891 46.7944C9.37891 46.5774 9.43601 46.3947 9.56165 46.2462C9.68729 46.0977 9.85861 46.0292 10.0756 46.0292C10.2812 46.0292 10.4411 46.0863 10.5667 46.2119C10.6924 46.3376 10.7495 46.486 10.7495 46.6574C10.7495 46.8058 10.6924 46.9543 10.5896 47.08C10.4868 47.2056 10.3612 47.3312 10.2241 47.434V47.4797C10.2469 47.5254 10.2926 47.5711 10.3612 47.6054C10.4297 47.6396 10.5096 47.651 10.5782 47.651C10.8637 47.651 11.0921 47.5482 11.252 47.3427C11.4119 47.1371 11.4919 46.8287 11.4919 46.4175V43.5621C11.4919 43.4822 11.4805 43.4022 11.4576 43.3451C11.4348 43.288 11.3663 43.2423 11.2635 43.1966C11.1949 43.1624 11.1036 43.1395 11.0008 43.1167C10.898 43.0938 10.818 43.0824 10.7495 43.071V42.7969H13.445V43.0824H13.4792Z" fill="#231F20"/>
<path d="M17.7063 47.0098C17.6264 47.1469 17.5236 47.2725 17.4094 47.3981C17.2951 47.5238 17.1581 47.6152 17.0096 47.7065C16.8497 47.7979 16.6898 47.8664 16.5299 47.9121C16.37 47.9578 16.1758 47.9806 15.9702 47.9806C15.6162 47.9806 15.3192 47.935 15.0565 47.8322C14.8052 47.7294 14.5882 47.6037 14.4283 47.4324C14.257 47.2611 14.1428 47.0669 14.0514 46.8385C13.9715 46.6101 13.9258 46.3588 13.9258 46.0961C13.9258 45.8562 13.9715 45.6164 14.0628 45.3994C14.1542 45.1824 14.2798 44.9768 14.4398 44.8055C14.5997 44.6341 14.8052 44.4971 15.0565 44.3943C15.3078 44.2915 15.5819 44.2344 15.8789 44.2344C16.2101 44.2344 16.4842 44.2801 16.7012 44.36C16.9182 44.44 17.0896 44.5542 17.2266 44.6912C17.3637 44.8283 17.455 44.9882 17.5236 45.1709C17.5807 45.3537 17.6149 45.5479 17.6149 45.7534V45.9819H15.205C15.205 46.473 15.2964 46.8385 15.4905 47.0898C15.6733 47.341 15.9817 47.4667 16.3814 47.4667C16.6098 47.4667 16.804 47.4096 16.9868 47.2839C17.1695 47.1583 17.318 47.0098 17.4436 46.8156L17.7063 47.0098ZM16.3472 45.6506C16.3472 45.5136 16.3357 45.3651 16.3243 45.2166C16.3129 45.0681 16.29 44.9425 16.2444 44.8511C16.1987 44.7369 16.153 44.657 16.073 44.5999C16.0045 44.5428 15.9131 44.5199 15.8103 44.5199C15.6276 44.5199 15.4791 44.6113 15.3763 44.794C15.2621 44.9768 15.205 45.2737 15.1936 45.6735L16.3472 45.6506Z" fill="#231F20"/>
<path d="M22.7433 47.8544H20.596V47.5917C20.6417 47.5917 20.6988 47.5803 20.7559 47.5689C20.8244 47.5575 20.8701 47.546 20.9044 47.5346C20.9501 47.5118 20.9843 47.4661 21.0072 47.4204C21.03 47.3747 21.0414 47.2948 21.0414 47.2034V45.5358C21.0414 45.296 20.9958 45.1132 20.9044 44.9876C20.813 44.862 20.6874 44.8049 20.5046 44.8049C20.4133 44.8049 20.3219 44.8163 20.2419 44.8505C20.162 44.8734 20.082 44.9191 20.0021 44.9762C19.9336 45.0219 19.8764 45.0676 19.8308 45.1247C19.7851 45.1703 19.7508 45.216 19.728 45.2617V47.1691C19.728 47.2491 19.7394 47.3176 19.7622 47.3747C19.7851 47.4318 19.8308 47.4775 19.8764 47.5003C19.9107 47.5232 19.9564 47.546 20.0135 47.5575C20.0706 47.5689 20.1277 47.5803 20.1848 47.5917V47.8544H18.0147V47.5917C18.0718 47.5917 18.1289 47.5803 18.1975 47.5689C18.2546 47.5575 18.3117 47.546 18.3574 47.5346C18.4373 47.5118 18.483 47.4661 18.5173 47.409C18.5401 47.3519 18.563 47.2833 18.563 47.192V45.1132C18.563 45.0447 18.5401 44.9648 18.5059 44.8962C18.4716 44.8277 18.4145 44.7706 18.3574 44.7249C18.3117 44.7021 18.266 44.6678 18.1975 44.6564C18.1289 44.6335 18.0604 44.6221 17.9805 44.6221V44.3594L19.6823 44.268L19.7394 44.3252V44.8391H19.7508C19.8193 44.782 19.8993 44.7135 19.9907 44.6221C20.082 44.5422 20.1734 44.4736 20.2534 44.4165C20.3447 44.3594 20.4589 44.3137 20.596 44.268C20.7331 44.2224 20.893 44.2109 21.0529 44.2109C21.4412 44.2109 21.7267 44.3252 21.9209 44.5422C22.1151 44.7592 22.2064 45.0561 22.2064 45.4216V47.1691C22.2064 47.2605 22.2179 47.329 22.2407 47.3747C22.2636 47.4318 22.3207 47.4661 22.3892 47.5003C22.4235 47.5118 22.4691 47.5346 22.5262 47.546C22.5834 47.5575 22.6405 47.5689 22.7204 47.5803V47.8544H22.7433Z" fill="#231F20"/>
<path d="M27.6534 47.8562H25.9744C25.7689 47.4907 25.5747 47.1823 25.4034 46.931C25.232 46.6797 25.0721 46.4399 24.9237 46.2343L24.7181 46.417V47.1937C24.7181 47.2737 24.7295 47.3536 24.7523 47.3993C24.7752 47.4564 24.8209 47.4907 24.9008 47.5249C24.9465 47.5478 24.9922 47.5592 25.0493 47.5706C25.1064 47.582 25.1635 47.5935 25.2206 47.5935V47.8562H23.0048V47.5935C23.0619 47.5935 23.1191 47.582 23.1876 47.5706C23.2447 47.5592 23.3018 47.5478 23.3475 47.5364C23.4274 47.5135 23.4731 47.4678 23.5074 47.4107C23.5302 47.3536 23.5531 47.2851 23.5531 47.1937V43.219C23.5531 43.1391 23.5302 43.0591 23.496 42.9792C23.4617 42.8992 23.416 42.8307 23.3475 42.785C23.3018 42.7621 23.2333 42.7279 23.1419 42.7165C23.0505 42.6936 22.9706 42.6822 22.8906 42.6822V42.4195L24.661 42.3281L24.7181 42.3852V46.063C24.8894 45.9031 25.095 45.7203 25.312 45.5147C25.529 45.3092 25.7118 45.1378 25.8374 45.0008C25.9173 44.9208 25.963 44.8637 25.963 44.818C25.9744 44.7723 25.9744 44.7495 25.9744 44.7381C25.9744 44.6924 25.9402 44.6581 25.8602 44.6353C25.7803 44.6124 25.6775 44.5782 25.5176 44.5553V44.3041H27.3222V44.5553C27.0823 44.6239 26.8996 44.681 26.774 44.7381C26.6483 44.7952 26.5113 44.8751 26.3628 44.9665C26.26 45.035 26.1686 45.1036 26.0772 45.1721C25.9859 45.2406 25.8831 45.332 25.7574 45.4348C25.9859 45.7774 26.2029 46.0858 26.397 46.3714C26.5912 46.6569 26.7968 46.9653 27.0138 47.2851C27.0823 47.3993 27.1737 47.4678 27.2879 47.5135C27.4021 47.5478 27.5049 47.5706 27.6192 47.582V47.8562H27.6534Z" fill="#231F20"/>
<path d="M29.9391 47.8526H27.689V47.5899C27.7461 47.5899 27.8147 47.5784 27.8718 47.567C27.9289 47.5556 27.986 47.5442 28.0203 47.5327C28.1002 47.5099 28.1459 47.4642 28.1802 47.4071C28.2144 47.35 28.2258 47.2815 28.2258 47.1901V45.1114C28.2258 45.0314 28.203 44.9515 28.1687 44.8944C28.1345 44.8258 28.0888 44.7802 28.0317 44.7459C27.986 44.723 27.9289 44.6888 27.8375 44.6659C27.7461 44.6431 27.6662 44.6202 27.5977 44.6202V44.3576L29.3452 44.2662L29.4023 44.3233V47.1558C29.4023 47.2358 29.4251 47.3043 29.4594 47.3728C29.4936 47.43 29.5507 47.4756 29.6079 47.4985C29.6535 47.5213 29.7106 47.5442 29.7678 47.5556C29.8249 47.567 29.882 47.5784 29.9505 47.5899V47.8526H29.9391ZM29.4251 42.9984C29.4251 43.1811 29.3566 43.3296 29.2195 43.4553C29.0825 43.5809 28.9111 43.6494 28.7284 43.6494C28.5342 43.6494 28.3743 43.5809 28.2258 43.4553C28.0888 43.3296 28.0203 43.1697 28.0203 42.9984C28.0203 42.8156 28.0888 42.6672 28.2258 42.5301C28.3629 42.4045 28.5342 42.3359 28.7284 42.3359C28.9226 42.3359 29.0825 42.4045 29.2195 42.5301C29.3566 42.6557 29.4251 42.8156 29.4251 42.9984Z" fill="#231F20"/>
<path d="M34.9737 47.8544H32.8265V47.5917C32.8722 47.5917 32.9293 47.5803 32.9864 47.5689C33.0549 47.5575 33.1006 47.546 33.1349 47.5346C33.1805 47.5118 33.2148 47.4661 33.2377 47.4204C33.2605 47.3747 33.2719 47.2948 33.2719 47.2034V45.5358C33.2719 45.296 33.2262 45.1132 33.1349 44.9876C33.0435 44.862 32.9178 44.8049 32.7351 44.8049C32.6437 44.8049 32.5524 44.8163 32.4724 44.8505C32.3925 44.8848 32.3125 44.9191 32.2326 44.9762C32.164 45.0219 32.1069 45.0676 32.0612 45.1247C32.0155 45.1703 31.9813 45.216 31.9584 45.2617V47.1691C31.9584 47.2491 31.9699 47.3176 31.9927 47.3747C32.0155 47.4318 32.0612 47.4775 32.1069 47.5003C32.1412 47.5232 32.1869 47.546 32.244 47.5575C32.3011 47.5689 32.3582 47.5803 32.4153 47.5917V47.8544H30.2452V47.5917C30.3023 47.5917 30.3594 47.5803 30.4279 47.5689C30.4851 47.5575 30.5422 47.546 30.5878 47.5346C30.6678 47.5118 30.7135 47.4661 30.7478 47.409C30.7706 47.3519 30.7934 47.2833 30.7934 47.192V45.1132C30.7934 45.0447 30.7706 44.9648 30.7363 44.8962C30.7021 44.8277 30.645 44.7706 30.5878 44.7249C30.5422 44.7021 30.4965 44.6678 30.4279 44.6564C30.3594 44.6335 30.2909 44.6221 30.2109 44.6221V44.3594L31.9127 44.268L31.9699 44.3252V44.8391H31.9813C32.0498 44.782 32.1298 44.7135 32.2211 44.6221C32.3125 44.5422 32.4039 44.4736 32.4838 44.4165C32.5752 44.3594 32.6894 44.3137 32.8265 44.268C32.9635 44.2224 33.1234 44.2109 33.2833 44.2109C33.6717 44.2109 33.9572 44.3252 34.1514 44.5422C34.3455 44.7592 34.4369 45.0561 34.4369 45.4216V47.1691C34.4369 47.2605 34.4483 47.329 34.4712 47.3747C34.494 47.4318 34.5511 47.4661 34.6197 47.5003C34.6539 47.5118 34.6996 47.5346 34.7567 47.546C34.8138 47.5575 34.8709 47.5689 34.9509 47.5803V47.8544H34.9737Z" fill="#231F20"/>
<path d="M36.9503 47.9806C36.7219 47.9806 36.4934 47.9464 36.2764 47.8779C36.0594 47.8093 35.8881 47.7408 35.7624 47.6608L35.6596 47.9007H35.3855L35.3398 46.5758H35.6025C35.6368 46.6786 35.6939 46.8042 35.7853 46.9413C35.8652 47.0783 35.968 47.1926 36.0708 47.3068C36.185 47.4096 36.3107 47.5009 36.4592 47.5809C36.6076 47.6494 36.7561 47.6951 36.916 47.6951C37.133 47.6951 37.2929 47.6494 37.3957 47.5695C37.4985 47.4895 37.5556 47.3525 37.5556 47.1811C37.5556 47.0898 37.5328 47.0098 37.4871 46.9413C37.4414 46.8842 37.3729 46.8271 37.2929 46.7814C37.2016 46.7357 37.0988 46.69 36.9845 46.6557C36.8703 46.6215 36.7333 46.5872 36.5734 46.5301C36.4135 46.4844 36.2764 46.4387 36.1622 46.3816C36.048 46.3359 35.9223 46.256 35.8081 46.1532C35.7053 46.0618 35.614 45.9476 35.5569 45.822C35.4883 45.6963 35.4655 45.5364 35.4655 45.3537C35.4655 45.0225 35.6025 44.7483 35.8881 44.5428C36.1736 44.3372 36.5391 44.2344 36.996 44.2344C37.213 44.2344 37.4071 44.2572 37.5899 44.3029C37.7726 44.3486 37.9211 44.3943 38.0468 44.4514L38.1267 44.2458H38.4008L38.4579 45.4565H38.2067C38.1267 45.2052 37.9782 44.9996 37.7841 44.8169C37.5785 44.6341 37.3615 44.5428 37.133 44.5428C36.9503 44.5428 36.8018 44.577 36.699 44.657C36.5962 44.7369 36.5391 44.8397 36.5391 44.9768C36.5391 45.1595 36.6191 45.2852 36.7675 45.3651C36.916 45.4451 37.133 45.525 37.4071 45.5935C37.8297 45.7078 38.1381 45.8562 38.3437 46.039C38.5379 46.2331 38.6407 46.473 38.6407 46.7585C38.6407 47.1469 38.4922 47.4553 38.1838 47.6608C37.8412 47.8664 37.4414 47.9806 36.9503 47.9806Z" fill="#231F20"/>
</svg>
