<svg width="154" height="26" viewBox="0 0 154 26" fill="none" xmlns="http://www.w3.org/2000/svg">
<path d="M26.6774 4.07028L18.6247 1.30005V10.0369H10.572L10.2662 19.2L18.6247 24.4208C23.0078 25.2732 25.6581 25.4863 26.6774 25.2732C28.2064 24.847 33.507 20.6917 34.2205 18.2411C34.934 15.7905 34.7302 12.0613 33.8128 10.1435C33.2012 8.86491 30.7548 6.84051 26.6774 4.07028Z" fill="white"/>
<path fill-rule="evenodd" clip-rule="evenodd" d="M34.0091 18.3218C32.7585 21.8884 29.7361 24.406 26.2969 25.3501V18.3218H34.0091ZM2.63931 7.72677C4.72368 2.27193 10.8726 -0.665296 16.6046 1.22292L18.0637 1.74743V10.4542H9.83039V18.4267H18.0637V24.5109L12.3316 22.6227L9.41352 21.5737C3.68149 19.6855 0.659149 13.7061 2.43087 8.14637L2.63931 7.72677ZM26.1927 4.47486L27.0265 4.78956C30.0488 5.73365 32.3416 7.93657 33.488 10.4542H26.1927V4.47486Z" fill="black"/>
<path fill-rule="evenodd" clip-rule="evenodd" d="M141.609 8.72554C142.127 8.72554 142.542 8.72554 142.956 8.72554C143.371 8.72554 143.682 8.82764 144.096 8.92973C144.407 9.03182 144.821 9.13392 145.132 9.23601C145.443 9.33811 145.754 9.54229 146.065 9.74648L146.168 9.84858V9.95067C146.272 10.257 146.272 10.5632 146.272 10.8695C146.272 11.0737 146.272 11.38 146.272 11.5842V11.9925L145.858 11.6863C145.65 11.5842 145.443 11.38 145.236 11.2779C145.029 11.1758 144.718 10.9716 144.407 10.8695C144.096 10.7674 143.785 10.6653 143.371 10.5632C142.956 10.4611 142.438 10.359 141.92 10.359C141.609 10.359 141.299 10.359 140.988 10.4611C140.677 10.5632 140.47 10.6653 140.159 10.7674C139.952 10.8695 139.744 11.0737 139.641 11.2779C139.537 11.4821 139.433 11.6863 139.433 11.8905C139.433 12.0946 139.537 12.4009 139.641 12.503C139.744 12.7072 139.952 12.9114 140.262 13.0135C140.573 13.2177 140.78 13.3198 141.195 13.524C141.506 13.6261 141.92 13.8302 142.335 13.9323C142.853 14.1365 143.371 14.3407 143.785 14.5449C144.303 14.7491 144.718 15.0554 145.132 15.3617C145.547 15.6679 145.858 16.0763 146.168 16.4847C146.479 16.8931 146.583 17.5056 146.583 18.1182C146.583 18.8328 146.376 19.4454 146.065 19.9559C145.754 20.4664 145.34 20.8747 144.821 21.181C144.303 21.4873 143.785 21.6915 143.06 21.8957C142.438 21.9978 141.817 22.0999 141.195 22.0999C140.47 22.0999 139.848 21.9978 139.123 21.9978C138.397 21.8957 137.672 21.7936 136.947 21.5894H136.843L136.532 19.2412L136.947 19.5475C137.568 19.9559 138.19 20.2622 138.708 20.3643C139.33 20.4664 140.055 20.5684 140.78 20.4664C141.195 20.4664 141.506 20.4664 141.817 20.3643C142.127 20.2622 142.438 20.1601 142.749 19.9559C142.956 19.7517 143.164 19.6496 143.371 19.3433C143.474 19.1391 143.578 18.8328 143.578 18.6287C143.578 18.3224 143.474 18.1182 143.371 18.0161C143.267 17.8119 143.06 17.6077 142.749 17.5056C142.542 17.3014 142.231 17.1993 141.817 17.0972C141.506 16.9952 141.091 16.791 140.677 16.6889C140.159 16.4847 139.641 16.3826 139.226 16.1784C138.708 15.9742 138.294 15.6679 137.879 15.4637C137.465 15.1575 137.154 14.7491 136.843 14.3407C136.532 13.9323 136.429 13.3198 136.429 12.7072C136.429 12.1967 136.532 11.6863 136.843 11.1758C137.154 10.7674 137.465 10.359 137.983 10.0528C138.397 9.74648 139.019 9.5423 139.537 9.33811C140.366 8.82764 140.988 8.72554 141.609 8.72554ZM79.0256 2.70195V8.82764H82.0305V10.7674H79.0256V19.5475V20.058C79.0256 20.3643 79.1293 20.8747 79.6473 20.8747C79.8546 20.8747 80.3726 20.9768 80.5799 20.9768H80.7871V21.6915C80.269 21.7936 79.3365 21.7936 78.6112 21.7936C78.0931 21.7936 77.6786 21.7936 77.2642 21.6915C76.8497 21.5894 76.5389 21.4873 76.3316 21.3852C76.1244 21.2831 75.9172 21.0789 75.8136 20.8747C75.71 20.6705 75.6063 20.4664 75.6063 20.2622V18.4245V10.7674H72.4979V8.82764H75.5027V4.64173L79.0256 2.70195ZM135.6 2.59985V15.2596C135.6 16.2805 135.392 17.0973 135.185 17.914C134.874 18.7308 134.46 19.3433 133.942 19.9559C133.424 20.4664 132.698 20.9768 131.766 21.2831C130.937 21.5893 129.797 21.6915 128.657 21.6915C127.518 21.6915 126.482 21.5893 125.653 21.2831C124.824 20.9768 124.098 20.5684 123.58 19.9559C123.062 19.4454 122.648 18.7308 122.337 17.914C122.026 17.0973 121.922 16.2805 121.922 15.2596C121.922 14.2386 122.13 13.3198 122.337 12.6051C122.648 11.7884 123.062 11.0737 123.58 10.5632C124.098 9.95067 124.824 9.54229 125.653 9.23601C126.482 8.92973 127.518 8.72554 128.657 8.72554C129.486 8.72554 130.212 8.82764 130.833 9.03183C131.351 9.13392 131.766 9.33811 132.18 9.54229L132.284 2.70195H135.6V2.59985ZM114.255 9.03183C115.291 9.03183 116.12 9.23601 116.949 9.54229C117.778 9.84858 118.503 10.359 119.021 10.8695C119.643 11.4821 120.057 12.0946 120.368 12.9114C120.679 13.6261 120.783 14.4428 120.783 15.3617C120.783 15.4637 120.783 15.5658 120.783 15.77C120.783 15.9742 120.783 16.0763 120.783 16.1784V16.3826H111.146C111.25 16.791 111.25 17.0972 111.354 17.5056C111.457 17.914 111.768 18.4245 111.975 18.7308C112.286 19.1391 112.701 19.4454 113.219 19.6496C113.737 19.8538 114.359 20.058 115.084 20.058C115.706 20.058 116.534 19.9559 117.674 19.6496L117.881 19.5475L118.192 20.7726L117.985 20.8747C117.467 21.0789 116.845 21.2831 116.327 21.4873C115.809 21.6915 115.291 21.7936 114.773 21.7936C114.669 21.7936 114.566 21.7936 114.462 21.7936C113.53 21.7936 112.597 21.5893 111.872 21.2831C111.043 20.9768 110.318 20.5684 109.799 19.9559C109.178 19.4454 108.763 18.7308 108.349 17.914C108.038 17.0973 107.831 16.2805 107.727 15.3617C107.727 14.5449 107.934 13.7281 108.245 12.9114C108.556 12.1967 109.074 11.4821 109.592 10.8695C110.214 10.257 110.836 9.84858 111.665 9.54229C112.493 9.23601 113.322 9.13392 114.255 9.03183ZM66.799 9.03183C67.8352 9.03183 68.6641 9.23601 69.493 9.54229C70.3219 9.84858 71.0473 10.359 71.5653 10.8695C72.187 11.4821 72.6015 12.0946 72.9123 12.9114C73.2232 13.6261 73.3268 14.4428 73.3268 15.3617C73.3268 15.4637 73.3268 15.5658 73.3268 15.77C73.3268 15.8721 73.3268 16.0763 73.3268 16.1784V16.3826H63.5869C63.6906 16.791 63.6906 17.0972 63.8978 17.5056C64.0014 17.914 64.2086 18.4245 64.5195 18.7308C64.8303 19.1391 65.2448 19.4454 65.7629 19.6496C66.2809 19.8538 66.9026 20.058 67.6279 20.058C68.2496 20.058 69.0786 19.9559 70.2183 19.6496L70.4256 19.5475L70.7364 20.7726H70.5292C70.0111 20.9768 69.3894 21.181 68.8713 21.3852C68.3533 21.5894 67.8352 21.6915 67.3171 21.6915C67.2135 21.6915 67.1099 21.6915 67.0063 21.6915C66.0737 21.6915 65.1412 21.4873 64.4159 21.181C63.5869 20.8747 62.8616 20.4664 62.3436 19.8538C61.7219 19.3433 61.3074 18.6287 60.8929 17.8119C60.5821 16.9952 60.3749 16.1784 60.2712 15.2596C60.2712 14.4428 60.4785 13.6261 60.7893 12.8093C61.1002 12.0946 61.6183 11.38 62.1363 10.7674C62.758 10.1549 63.3797 9.74648 64.2086 9.4402C65.0376 9.23601 65.8665 9.13392 66.799 9.03183ZM99.7487 8.82764C100.888 8.82764 101.925 9.03183 102.857 9.33811C103.686 9.64439 104.411 10.1549 104.929 10.6653C105.448 11.2779 105.862 11.9926 106.069 12.8093C106.277 13.6261 106.38 14.5449 106.38 15.5658V21.6915H102.961V14.8512C102.961 14.0344 102.857 13.3198 102.754 12.8093C102.65 12.2988 102.443 11.8905 102.132 11.5842C101.925 11.2779 101.614 11.0737 101.199 10.9716C100.785 10.8695 100.37 10.7674 99.8524 10.7674H99.6451C99.2307 10.7674 98.8162 10.8695 98.4017 10.9716C97.9873 11.0737 97.6764 11.2779 97.3656 11.5842C97.0547 11.8905 96.8475 12.2988 96.6403 12.8093C96.433 13.3198 96.433 14.0344 96.433 14.8512C96.433 14.9533 96.433 15.0554 96.433 15.1575C96.433 15.2596 96.433 15.5658 96.433 15.9742V21.6915H93.0137V14.8512C93.0137 14.0344 92.9101 13.4219 92.8065 12.9114C92.7029 12.4009 92.4957 11.9926 92.1848 11.6863C91.9776 11.38 91.6667 11.1758 91.2523 11.0737C90.8378 10.9716 90.4233 10.8695 89.9053 10.8695H89.698C89.2836 10.8695 88.8691 10.9716 88.4547 11.0737C88.0402 11.1758 87.7293 11.38 87.4185 11.6863C87.1077 11.9926 86.9004 12.4009 86.6932 12.9114C86.486 13.4219 86.486 14.1365 86.486 14.9533V21.6915H82.963V15.6679C82.963 13.6261 83.5847 11.8905 84.7245 10.7674C85.8643 9.54229 87.6257 8.92973 89.698 8.92973C90.9414 8.92973 91.9776 9.13392 92.8065 9.4402C93.5318 9.74648 94.2571 10.1549 94.6716 10.6653C95.1897 10.1549 95.915 9.64439 96.6403 9.33811C97.5728 9.03183 98.609 8.82764 99.7487 8.82764ZM52.2929 8.92973C53.4326 8.92973 54.4688 9.13392 55.4013 9.4402C56.2303 9.74648 56.9556 10.257 57.4736 10.7674C57.9917 11.38 58.4062 12.0946 58.6134 12.9114C58.8206 13.7281 58.9242 14.647 58.9242 15.6679V21.6915H55.5049V14.9533C55.5049 14.1365 55.4013 13.4219 55.2977 12.9114C55.1941 12.4009 54.9869 11.9926 54.676 11.6863C54.4688 11.38 54.1579 11.1758 53.7435 11.0737C53.329 10.9716 52.9146 10.8695 52.3965 10.8695H52.1892C51.7748 10.8695 51.3603 10.9716 50.9459 11.0737C50.5314 11.1758 50.2206 11.38 49.9097 11.6863C49.5989 11.9926 49.3916 12.4009 49.1844 12.9114C48.9772 13.4219 48.9772 14.1365 48.9772 14.9533V21.6915H45.5579V15.6679C45.5579 13.6261 46.1796 11.8905 47.3193 10.7674C48.3555 9.54229 50.1169 8.92973 52.2929 8.92973ZM128.865 10.6653H128.761H128.554C128.139 10.6653 127.725 10.7674 127.31 10.8695C126.896 10.9716 126.585 11.2779 126.274 11.5842C125.963 11.8905 125.756 12.4009 125.549 12.9114C125.342 13.4219 125.342 14.1365 125.342 14.9533V15.8721C125.342 16.6889 125.445 17.4035 125.549 17.914C125.756 18.4245 125.963 18.8328 126.274 19.1391C126.585 19.4454 126.896 19.6496 127.31 19.7517C127.725 19.8538 128.243 19.9559 128.761 19.9559H128.968C129.383 19.9559 129.797 19.8538 130.212 19.7517C130.626 19.6496 130.937 19.4454 131.248 19.1391C131.559 18.8328 131.766 18.4245 131.973 17.914C132.18 17.4035 132.18 16.6889 132.18 15.8721V14.9533C132.18 14.1365 132.077 13.4219 131.973 12.9114C131.766 12.4009 131.559 11.8905 131.248 11.5842C130.937 11.2779 130.626 10.9716 130.212 10.8695C129.797 10.6653 129.279 10.6653 128.865 10.6653ZM114.255 10.8695C113.737 10.8695 113.322 10.9716 112.908 11.1758C112.597 11.38 112.183 11.6863 111.975 11.9925C111.768 12.2988 111.561 12.7072 111.354 13.1156C111.25 13.524 111.146 13.8302 111.043 14.2386H117.363C117.26 13.0135 116.845 12.1967 116.327 11.6863C115.913 11.1758 115.187 10.8695 114.255 10.8695ZM66.799 10.8695C66.2809 10.8695 65.8665 10.9716 65.452 11.1758C65.0376 11.38 64.7267 11.6863 64.5195 11.9925C64.3123 12.2988 64.105 12.7072 63.8978 13.1156C63.7942 13.524 63.6906 13.8302 63.5869 14.2386H69.9075C69.8039 13.0135 69.3894 12.1967 68.8713 11.6863C68.3533 11.1758 67.7316 10.8695 66.799 10.8695ZM147.515 6.68366H146.583V6.47948H148.655V6.68366H147.723V9.13392H147.515V6.68366ZM149.381 6.47948H149.588L150.728 8.01089L151.867 6.47948H152.075V9.03183H151.867V6.78576L150.831 8.31717L149.795 6.78576V9.03183H149.588V6.47948" fill="black"/>
</svg>
