<svg width="21" height="20" viewBox="0 0 21 20" fill="none" xmlns="http://www.w3.org/2000/svg">
<path d="M10 0.000427246C15.5228 0.000427407 20.0428 4.47739 20.0957 9.99997C20.1485 15.5226 15.7142 19.9995 10.1914 19.9995C4.66855 19.9995 0.148541 15.5226 0.0956919 9.99997C0.0428429 4.47739 4.47717 0.000427246 10 0.000427246ZM6.61704 15.2917H8.59262L8.56391 12.2919H11.3647C13.2748 12.2917 14.8077 10.7248 14.7892 8.79202C14.7706 6.85936 13.2077 5.29238 11.2977 5.29218H6.52134L6.61704 15.2917ZM11.3168 7.29209C12.1353 7.29228 12.8055 7.96389 12.8136 8.79202C12.8216 9.62027 12.1641 10.2917 11.3456 10.2919H8.54478L8.51607 7.29209H11.3168Z" fill="#FF776B"/>
</svg>
