<svg width="25" height="25" viewBox="0 0 25 25" fill="none" xmlns="http://www.w3.org/2000/svg">
<path d="M15.9131 5.09912C16.091 6.46958 16.2778 7.58186 16.5469 8.48096C16.8188 9.3896 17.1846 10.1125 17.7432 10.6763C18.8472 11.7904 20.5831 12.1538 23.2676 12.4517C23.2795 12.4534 23.2878 12.459 23.2949 12.4614C23.292 12.462 23.2889 12.4639 23.2852 12.4644H23.2832C20.5898 12.7625 18.8493 13.1254 17.7432 14.2417C17.1846 14.8055 16.8188 15.5283 16.5469 16.437C16.2781 17.3352 16.0918 18.4463 15.9141 19.8149C15.9128 19.821 15.9086 19.8256 15.9072 19.8306V19.8286C15.7188 18.4549 15.5266 17.3463 15.2529 16.4536C14.9771 15.5537 14.6101 14.8413 14.0527 14.2847C13.4951 13.7278 12.7851 13.3647 11.8916 13.0952C11.0046 12.8277 9.90531 12.6439 8.54688 12.4653L8.5332 12.4644L8.51855 12.4604C8.52654 12.4579 8.53616 12.4535 8.54883 12.4517C11.2308 12.1537 12.9676 11.7906 14.0732 10.6763C14.6322 10.1127 14.9997 9.39054 15.2725 8.48193C15.5434 7.57929 15.7296 6.46135 15.9082 5.0835C15.9097 5.08809 15.9117 5.09307 15.9131 5.09912Z" fill="white" stroke="white"/>
<path d="M7.44141 16.4976C7.51819 16.7186 7.62064 16.9271 7.78906 17.104C7.96917 17.2932 8.18945 17.4088 8.43164 17.4966C8.18452 17.5819 7.95834 17.6969 7.77344 17.8882C7.61606 18.051 7.51461 18.2409 7.44043 18.4438C7.36603 18.2427 7.26367 18.0552 7.10645 17.894C6.91889 17.7019 6.68936 17.5872 6.43945 17.5015C6.68779 17.4131 6.91324 17.2966 7.09668 17.103C7.26426 16.9261 7.36561 16.7177 7.44141 16.4976Z" fill="white" stroke="white"/>
<path d="M5.87402 3.04932C5.90877 3.24977 5.94379 3.43313 5.98633 3.59912C6.09914 4.03927 6.26255 4.41809 6.56152 4.71436C6.85932 5.00928 7.24057 5.17087 7.68359 5.28564C7.91247 5.34493 8.17388 5.39485 8.46875 5.44287C8.15669 5.50737 7.88257 5.56941 7.64551 5.63916C7.21628 5.76545 6.84709 5.93039 6.55762 6.21631C6.26467 6.50568 6.1033 6.87042 5.99023 7.29834C5.949 7.45441 5.91305 7.6261 5.87891 7.81396C5.84465 7.61337 5.80933 7.43013 5.7666 7.26416C5.65469 6.8296 5.49212 6.45677 5.19531 6.16357C4.90112 5.87306 4.52448 5.70992 4.08789 5.58936C3.84703 5.52285 3.56981 5.46574 3.25488 5.40869C3.56031 5.34802 3.83029 5.28948 4.06445 5.22412C4.49955 5.10264 4.87743 4.94399 5.1748 4.6626C5.47806 4.37558 5.64719 4.00994 5.7627 3.57666C5.80516 3.41733 5.84002 3.24154 5.87402 3.04932Z" fill="white" stroke="white"/>
</svg>
