<svg width="16" height="15" viewBox="0 0 16 15" fill="none" xmlns="http://www.w3.org/2000/svg">
<path d="M6.6711 0.671491C6.98239 -0.224069 8.24893 -0.224071 8.56022 0.671489L9.73833 4.06075C9.87566 4.45582 10.2443 4.72369 10.6625 4.73221L14.2499 4.80532C15.1979 4.82464 15.5893 6.02918 14.8337 6.60198L11.9744 8.76977C11.6411 9.02246 11.5003 9.45588 11.6214 9.85622L12.6604 13.2907C12.935 14.1982 11.9103 14.9426 11.1321 14.4011L8.18684 12.3516C7.84353 12.1127 7.3878 12.1127 7.04448 12.3516L4.09922 14.4011C3.32098 14.9426 2.29633 14.1982 2.57088 13.2907L3.60993 9.85622C3.73105 9.45588 3.59022 9.02246 3.25692 8.76977L0.397602 6.60198C-0.357931 6.02918 0.0334475 4.82464 0.981372 4.80532L4.5688 4.73221C4.98697 4.72369 5.35567 4.45582 5.49299 4.06075L6.6711 0.671491Z" fill="#FA6E20"/>
</svg>
