<svg width="100" height="28" viewBox="0 0 100 28" fill="none" xmlns="http://www.w3.org/2000/svg">
<path d="M52.0856 26.9947C54.2448 27.9194 55.2447 27.7558 56.9466 26.1947C57.7354 25.4704 59.1631 23.716 60.9222 20.8869C60.8342 21.7597 60.7054 23.0126 60.6615 23.3376C60.5293 24.3262 60.4548 25.3547 61.1512 26.1366C61.7873 26.8578 62.7316 26.9486 63.3836 26.9517H63.4733C63.6025 26.9442 66.5825 26.7823 67.6806 26.631C69.5703 26.3804 70.0583 25.7839 70.4924 24.445L70.5905 24.1496C71.1666 22.4532 71.6006 20.4557 71.9261 18.4383C72.3011 19.9121 73.2145 21.1649 74.547 21.9547C76.5878 23.1642 79.1911 23.087 81.5088 21.7485C82.5131 21.1683 83.3192 20.4113 83.9657 19.5576C84.0315 19.6659 84.0979 19.7598 84.159 19.8472L84.2119 19.9199C84.9903 21.0406 87.4999 23.227 91.4283 23.5145C92.8125 23.6173 95.4141 23.5357 97.2701 21.8465C97.7436 21.4203 98.8785 20.2303 99.2535 18.4547C99.5381 17.0953 99.2977 15.7537 98.5793 14.6788C98.0866 13.9426 97.4535 13.3328 96.776 12.8219C97.005 12.7106 97.2333 12.5549 97.4576 12.3487C98.5001 11.3765 99.0258 9.74978 98.1041 8.7049C95.5591 5.81066 91.2772 5.43949 88.769 6.7531C87.7235 7.29773 86.9161 7.95983 86.3323 8.751C85.9761 7.95095 85.2095 7.43739 84.2197 7.39163C83.846 7.37524 83.1968 7.41246 82.7158 7.45378C81.5138 7.55622 80.6501 8.41705 80.5111 9.62241C80.3074 9.23929 79.9907 8.919 79.5729 8.70524C79.2488 8.54066 78.7361 8.35046 78.0441 8.10392C78.0501 8.10392 77.4313 7.87822 77.4313 7.87822C77.4373 7.88129 77.4461 7.88573 77.4532 7.88573C76.1355 7.37968 74.9331 7.75358 74.1622 8.91422C73.8074 9.44724 73.1932 10.4798 72.6698 11.9331C72.8691 9.27788 72.9072 7.33802 72.9102 7.15261C72.9102 7.17344 72.9072 7.19427 72.9072 7.21339C73.0273 5.33739 72.3382 4.20202 70.5265 3.28622C64.5461 0.273144 58.9165 0.223973 55.6447 1.1828C52.2394 2.18329 49.6961 4.92456 49.1184 8.20329C46.281 6.62129 43.6645 6.79032 41.8692 7.63032C41.8966 7.24719 41.8362 6.82275 41.5539 6.42802C41.0197 5.67851 40.0871 5.63241 39.736 5.61636C38.6878 5.5631 37.7593 5.5631 37.298 5.5631C37.241 5.56753 37.1661 5.5631 37.0862 5.55866C36.5833 5.53475 35.4046 5.48149 34.724 6.65988C34.7172 6.66739 34.7129 6.67934 34.7071 6.68822C34.1655 7.68871 33.5395 8.80324 33.0727 9.60602L30.7564 6.65373C30.7423 6.63734 30.7234 6.61378 30.7079 6.59739L30.6792 6.56324C30.0131 5.79461 29.1824 5.63719 28.0678 6.06914C27.2887 6.3751 26.1774 6.84392 25.4378 7.21066C25.1343 7.35919 24.4257 7.70919 24.2172 8.51232C24.166 8.70524 24.1542 8.89066 24.1677 9.0689C23.5012 8.76295 22.7808 8.55227 22.0176 8.44539C20.8082 8.27602 19.6143 8.38461 18.5155 8.73324C18.5236 8.16471 18.2473 6.5349 17.9796 6.00836C17.9752 5.99949 17.962 5.96841 17.9512 5.94588C17.4541 4.83134 16.5357 4.37275 15.2207 4.59675C10.6616 5.35344 9.02422 5.43983 4.00271 5.48114C2.19431 5.49753 1.74305 6.58373 1.6331 7.04983C1.46514 7.75051 1.47122 10.851 1.57509 11.5291C1.86042 13.386 3.61047 13.3532 4.18517 13.3399C5.04047 13.3252 5.64316 13.2867 6.12612 13.2583C6.20605 13.2556 6.27923 13.2511 6.35107 13.2464C6.4509 14.7857 6.89508 18.2495 7.72036 21.5996L7.72913 21.6324C8.26065 23.8095 10.0424 23.6122 10.5766 23.4978C11.209 23.3656 13.4154 22.7619 14.2413 22.4488C15.011 22.1548 15.4865 21.4927 15.5152 20.6705C15.5165 20.6083 15.5165 20.5431 15.5138 20.4806C15.9631 20.9289 16.4791 21.3206 17.0575 21.6457C18.7566 22.5953 20.9121 22.8732 22.6824 22.3566C23.8857 22.008 24.9039 21.518 25.7353 20.8917C25.887 21.196 26.0901 21.4555 26.2651 21.6604C26.6101 22.0612 28.4266 24.0868 30.2445 24.3333C30.8856 24.4242 31.2266 24.3084 31.6377 24.136L31.6795 24.1196C33.0114 23.5647 34.8906 21.3114 37.2669 17.4156C37.3658 17.2521 37.4663 17.0875 37.5637 16.9229C37.4457 17.2227 37.3671 17.5242 37.3327 17.7984C37.2008 18.861 37.7438 19.4709 38.1661 19.8421C38.1647 19.8376 38.3081 19.965 38.3081 19.965C39.2406 20.7965 41.1816 22.5253 44.7768 22.6871C45.1103 22.6991 46.2935 22.7107 47.5798 22.2675C47.5616 23.1058 48.1083 23.7368 48.2944 23.9519C48.3019 23.9639 48.3093 23.9714 48.318 23.9803C48.5315 24.2145 50.4583 26.2896 52.0856 26.9947Z" fill="white"/>
<path d="M69.8951 4.48372C64.5711 1.8005 59.3125 1.51538 56.0407 2.47421C49.9936 4.25085 48.1187 11.7637 53.7213 15.4447C54.0603 15.6673 53.8475 16.1362 53.4222 16.886C52.8974 17.8165 51.9227 19.6495 50.2034 20.9706C49.1663 21.7689 48.4941 22.0985 49.3464 23.0826C49.3464 23.0826 51.2411 25.1546 52.6397 25.7586C54.3271 26.4798 54.7493 26.3599 56.0053 25.2095C56.7942 24.487 58.3594 22.5099 60.2477 19.365C61.2268 17.7294 62.5374 17.698 62.3586 20.3891C62.3586 20.3891 62.1006 22.9791 62.0302 23.5145C61.819 25.0583 61.9833 25.594 63.3964 25.6073C63.3964 25.6073 66.4355 25.4414 67.4894 25.2973C68.973 25.0999 68.8924 24.8653 69.281 23.7211C71.3568 17.615 71.5329 7.13211 71.5329 7.13211C71.6206 5.72904 71.1663 5.12636 69.8951 4.48372ZM66.0075 10.137C66.0075 10.137 64.1225 11.4014 64.0753 11.4342C63.9155 11.5575 63.6956 11.7012 63.6662 12.2862C63.6548 12.5296 63.5812 14.2557 63.5768 14.4695C63.5725 14.7082 63.4669 15.3587 62.6986 14.6948C62.6986 14.6948 61.4143 13.595 61.2238 13.4304C61.1813 13.3949 60.7398 12.908 60.0538 13.1972L58.0427 13.9822C58.0427 13.9822 56.8316 14.4647 57.2832 13.4021C57.7203 12.3691 58.0134 11.5083 58.1098 11.2321C58.2096 10.9442 58.1742 10.5375 57.9297 10.2524C57.8167 10.1247 56.8525 8.87802 56.6306 8.56933C56.6306 8.56933 55.8377 7.64602 57.1597 7.70851C57.1597 7.70851 59.4174 7.75733 59.4525 7.76177C59.4906 7.76485 59.9128 7.79285 60.215 7.32846C60.5873 6.75719 61.6781 5.41831 61.4507 5.70172C61.6413 5.46885 62.0841 4.88392 62.3772 5.85163C62.3772 5.85163 62.792 7.12802 62.9887 7.66241C63.1236 8.0247 63.2086 8.27226 63.88 8.48158L65.9542 9.2147C65.9549 9.21538 66.9238 9.50768 66.0075 10.137Z" fill="#1A1A1A"/>
<path d="M26.1875 12.6127C25.2206 11.044 23.6712 10.0346 21.8247 9.77957C19.4669 9.4545 17.185 10.3986 15.87 12.2343C14.9047 13.5879 14.5938 15.2146 14.9978 16.8205C15.9691 20.6897 19.8571 21.7687 22.2905 21.0649C25.0361 20.2697 26.5717 18.6976 26.9889 16.2681C27.1889 15.0958 26.8971 13.7658 26.1875 12.6127ZM19.5013 17.8402C18.7323 17.5892 18.1607 16.3917 18.4386 15.0914C18.7148 13.7894 19.65 12.8872 20.5188 13.156C21.2905 13.3977 21.8578 14.67 21.5896 15.973C21.3023 17.3594 20.3826 18.1297 19.5013 17.8402Z" fill="#1A1A1A"/>
<path d="M75.3176 9.65174C75.095 9.98569 73.3386 12.5904 73.1187 16.5964C73.0232 18.3775 73.8239 19.9475 75.263 20.8009C76.8593 21.7477 78.9324 21.6706 80.8059 20.5857C84.8301 18.257 85.2817 12.393 85.1687 9.74667C85.1438 9.13374 84.7758 8.76701 84.1586 8.74038C83.9229 8.72842 83.4126 8.74652 82.8366 8.79535C82.2518 8.84418 81.9013 9.24369 81.8737 9.89077L81.8676 10.0629C81.8413 12.5207 81.671 14.704 80.5776 16.0456C79.8623 16.9321 79.0076 17.2852 78.4447 17.055C77.9419 16.8532 77.6195 16.1942 77.6984 15.5188C77.8903 13.8388 78.6164 12.5176 79.065 11.6732L79.2569 11.3068C79.5311 10.7383 79.3931 10.1329 78.9328 9.89964C78.666 9.76306 78.0839 9.55238 77.5695 9.36662L76.9493 9.14091C76.5082 8.97189 75.8573 8.83974 75.3176 9.65174Z" fill="#1A1A1A"/>
<path d="M89.4203 7.93891C87.6726 8.85334 86.7755 10.1014 86.591 11.8674C86.3401 14.2498 89.6547 15.9104 90.4432 16.329C91.3933 16.8347 91.4283 17.4196 91.1821 17.7672C90.7936 18.3105 89.7174 18.1575 88.9245 17.8444C88.054 17.5077 87.6109 17.0993 86.8942 16.2846C86.4733 15.8069 85.1951 17.1751 84.9957 18.1295C84.9037 18.5656 85.0777 18.7722 85.3492 19.1621C86.0453 20.1595 88.2854 21.9331 91.5322 22.1721C92.428 22.2387 94.7588 22.291 96.3318 20.8585C96.9679 20.2825 97.6613 19.324 97.9018 18.1825C98.0657 17.3913 98.0542 16.3584 97.4239 15.4156C96.5399 14.0904 95.0667 13.2131 93.4303 12.4592C91.0439 11.3593 91.5042 10.7092 92.0378 10.4097C92.539 10.125 94.2367 10.3251 95.5679 11.5615C96.2421 12.1877 97.6407 10.2434 97.0603 9.58169C94.9349 7.16993 91.3258 6.94286 89.4203 7.93891Z" fill="#1A1A1A"/>
<path d="M40.361 8.10661C39.0309 12.3203 33.3554 21.9543 31.1396 22.8773C30.8259 23.0081 30.7629 23.045 30.4374 23.0002C29.2604 22.8343 27.7936 21.3438 27.3225 20.7933C27.112 20.5499 26.6591 19.9892 27.0233 19.6918C28.4078 18.5745 30.1268 16.8689 30.2088 15.8688C30.227 15.6506 30.1595 15.4204 30.0796 15.3122C29.9507 15.1384 26.3538 10.3398 25.992 9.8293C25.3798 8.95208 25.3829 8.74583 26.0614 8.41188C26.7393 8.07486 27.8192 7.61798 28.5757 7.32091C29.3336 7.02862 29.4492 7.23486 29.6627 7.47696L32.887 11.582C33.1193 11.7425 33.3298 11.6978 33.4991 11.496C33.9109 11.0046 35.6518 7.82252 35.925 7.32091C36.2461 6.76432 36.7759 6.9173 37.3088 6.91422C37.8747 6.90979 38.7499 6.9173 39.6663 6.96169C40.5472 7.00813 40.6278 7.2591 40.361 8.10661Z" fill="#1A1A1A"/>
<path d="M41.9741 9.10843C40.5229 10.0229 39.8325 11.1716 39.7995 12.718C39.7526 14.8064 42.6109 16.1897 43.3286 16.5025C44.1896 16.8781 44.3114 17.3264 44.1569 17.6631C43.9319 18.1647 43.419 18.2566 42.8163 18.1336C41.7235 17.9066 40.8709 16.9389 40.0113 16.4519C39.5246 16.1818 38.8069 17.1198 38.7023 17.9646C38.6538 18.3474 38.7711 18.5625 39.0848 18.8326C39.8895 19.5405 41.5482 21.1925 44.8385 21.3396C45.6206 21.3738 47.6533 21.2164 48.9167 19.8659C49.429 19.3182 49.9656 18.5939 50.0917 17.5846C50.1767 16.89 50.0185 16.0425 49.4769 15.2145C49.0239 14.523 48.1963 13.8312 46.7464 13.2214C44.3943 12.2417 45.1373 11.2532 45.6955 11.0677C46.1734 10.9076 47.0101 11.0322 48.4024 11.8797C49.1572 12.3397 50.1565 10.5337 49.5339 10.0809C46.4115 7.8037 43.5613 8.11102 41.9741 9.10843Z" fill="#1A1A1A"/>
<path d="M4.01592 6.82717C9.12106 6.78722 10.8472 6.68751 15.4525 5.92195C16.4906 5.74815 16.5756 6.27059 16.7452 6.60624C16.8859 6.88522 17.1564 8.34259 17.1381 8.71683C17.1189 9.08766 17.3024 9.63093 16.6808 9.80781C14.7415 10.3555 14.2333 10.5262 12.9456 10.9121C12.351 11.0931 12.3885 11.3454 12.4053 11.8057C12.4967 14.3585 13.3362 17.7335 13.9304 19.6198C14.181 20.4154 14.2933 20.9822 13.7443 21.1929C12.9814 21.4763 10.8543 22.0612 10.2839 22.1818C9.29644 22.3907 9.15378 21.6576 9.06069 21.282C8.22293 17.8865 7.80743 14.4281 7.72581 13.1354C7.68399 12.4763 7.47084 11.859 6.8587 11.8754C6.22903 11.8873 5.5255 11.9659 4.15622 11.9911C3.42402 12.0075 3.03617 11.9614 2.9387 11.3277C2.84022 10.6891 2.86754 7.80376 2.97512 7.35576C3.08372 6.90127 3.60243 6.83161 4.01592 6.82717Z" fill="#1A1A1A"/>
<path d="M99.3301 8.94353C99.3301 9.48679 98.8815 9.92762 98.3243 9.92762C97.7716 9.92762 97.3217 9.48679 97.3217 8.94353C97.3217 8.40333 97.7716 7.96387 98.3243 7.96387C98.8815 7.96421 99.3301 8.40333 99.3301 8.94353Z" fill="white"/>
<path d="M99.151 8.9435C99.151 8.4996 98.7813 8.14038 98.324 8.14038C97.8697 8.14038 97.5004 8.4996 97.5004 8.9435C97.5004 9.39321 97.8701 9.74936 98.324 9.74936C98.7817 9.7497 99.151 9.39321 99.151 8.9435Z" fill="#1A1A1A"/>
<path d="M99.0502 8.94369C99.0502 9.33535 98.7261 9.65598 98.3244 9.65598C97.9257 9.65598 97.6016 9.33535 97.6016 8.94369C97.6016 8.55784 97.9257 8.23413 98.3244 8.23413C98.7261 8.23447 99.0502 8.55784 99.0502 8.94369Z" fill="white"/>
<path d="M97.9932 9.45446V8.36792H98.3301C98.4357 8.36792 98.5179 8.39148 98.5736 8.43758C98.6323 8.48197 98.6603 8.54753 98.6603 8.63938C98.6603 8.78314 98.5854 8.88592 98.436 8.94807L98.8053 9.45411H98.612L98.2967 8.99553H98.1513V9.45411L97.9932 9.45446ZM98.1513 8.88285H98.2013C98.4006 8.88285 98.4974 8.8026 98.4974 8.65133C98.4974 8.54002 98.4151 8.48197 98.2512 8.48197H98.1513V8.88285Z" fill="#1A1A1A"/>
</svg>
