<svg width="27" height="27" viewBox="0 0 27 27" fill="none" xmlns="http://www.w3.org/2000/svg">
<path d="M13.3333 0C5.97333 0 0 5.97333 0 13.3333C0 20.6933 5.97333 26.6667 13.3333 26.6667C20.6933 26.6667 26.6667 20.6933 26.6667 13.3333C26.6667 5.97333 20.7067 0 13.3333 0ZM17.3333 16.3067L13.4667 18.5333C12.9867 18.8133 12.4533 18.9467 11.9333 18.9467C11.4 18.9467 10.88 18.8133 10.4 18.5333C9.44 17.9733 8.86667 16.9867 8.86667 15.8667V11.4C8.86667 10.2933 9.44 9.29333 10.4 8.73333C11.36 8.17333 12.5067 8.17333 13.48 8.73333L17.3467 10.96C18.3067 11.52 18.88 12.5067 18.88 13.6267C18.88 14.7467 18.3067 15.7467 17.3333 16.3067Z" fill="#7F00FF"/>
</svg>
