<svg width="24" height="24" viewBox="0 0 24 24" fill="none" xmlns="http://www.w3.org/2000/svg">
<path d="M15.995 5.005C15.995 4.715 16.235 4.465 16.525 4.465C17.585 4.435 18.435 3.585 18.465 2.525C18.475 2.235 18.715 2.005 19.005 2.005C19.295 2.005 19.545 2.245 19.545 2.525C19.575 3.585 20.425 4.435 21.485 4.465C21.775 4.475 22.005 4.715 22.005 5.005C22.005 5.295 21.765 5.545 21.485 5.545C20.425 5.575 19.575 6.425 19.545 7.485C19.535 7.775 19.295 8.005 19.005 8.005C18.715 8.005 18.465 7.76501 18.465 7.485C18.435 6.425 17.585 5.575 16.525 5.545C16.235 5.535 15.995 5.295 15.995 5.005ZM16.645 8.61501C15.935 8.59501 15.375 8.025 15.355 7.32501C15.355 7.135 15.195 6.975 14.995 6.975C14.795 6.975 14.645 7.135 14.635 7.32501C14.615 8.03501 14.045 8.59501 13.345 8.61501C13.155 8.61501 12.995 8.775 12.995 8.975C12.995 9.175 13.155 9.325 13.345 9.335C14.055 9.355 14.615 9.925 14.635 10.625C14.635 10.815 14.795 10.975 14.995 10.975C15.195 10.975 15.345 10.815 15.355 10.625C15.375 9.915 15.945 9.355 16.645 9.335C16.835 9.335 16.995 9.175 16.995 8.975C16.995 8.775 16.835 8.62501 16.645 8.61501ZM19.195 15.955L15.745 15.255C15.515 15.225 15.275 15.245 15.035 15.315C14.795 15.395 14.595 15.505 14.445 15.655L12.095 18.005C11.465 17.635 10.865 17.235 10.295 16.795C9.725 16.355 9.18499 15.875 8.67499 15.355C8.12499 14.825 7.625 14.265 7.165 13.695C6.705 13.115 6.315 12.525 5.975 11.905L8.40499 9.455C8.535 9.325 8.62499 9.165 8.67499 8.975C8.725 8.785 8.735 8.56501 8.705 8.30501L8.055 4.805C8.02499 4.585 7.915 4.405 7.725 4.245C7.545 4.085 7.335 4.005 7.105 4.005H3.045C2.745 4.005 2.495 4.105 2.295 4.305C2.095 4.505 1.995 4.755 1.995 5.055C1.995 7.135 2.445 9.19501 3.355 11.225C4.265 13.255 5.555 15.105 7.21499 16.775C8.87499 18.445 10.735 19.725 12.765 20.635C14.795 21.545 16.855 21.995 18.935 21.995C19.235 21.995 19.485 21.895 19.685 21.695C19.885 21.495 19.985 21.245 19.985 20.945V16.895C19.985 16.675 19.905 16.485 19.765 16.305C19.615 16.135 19.425 16.005 19.185 15.945L19.195 15.955Z" fill="#4C4C4C"/>
</svg>
