<svg width="24" height="24" viewBox="0 0 24 24" fill="none" xmlns="http://www.w3.org/2000/svg">
<rect width="24" height="24" rx="6" fill="url(#paint0_linear_36273_53103)"/>
<g clip-path="url(#clip0_36273_53103)">
<path d="M9.44615 18.2252C9.25027 18.2252 9.10714 18.082 9.0695 17.8786C8.53461 13.7503 7.95453 13.125 3.87139 12.673C3.66044 12.6504 3.51731 12.4922 3.51731 12.2963C3.51731 12.1004 3.66044 11.9498 3.87139 11.9196C7.95453 11.4676 8.53461 10.8423 9.0695 6.71401C9.10714 6.51061 9.25027 6.375 9.44615 6.375C9.64203 6.375 9.78516 6.51061 9.81528 6.71401C10.3502 10.8423 10.9378 11.4676 15.0134 11.9196C15.2319 11.9498 15.375 12.1004 15.375 12.2963C15.375 12.4922 15.2319 12.6504 15.0134 12.673C10.9453 13.2079 10.3803 13.7578 9.81528 17.8786C9.78516 18.082 9.64203 18.2252 9.44615 18.2252Z" fill="white"/>
<path d="M15.6362 17.7757C15.6588 17.8586 15.704 17.9113 15.7944 17.9113C15.8848 17.9113 15.93 17.8586 15.9526 17.7757C16.1861 16.5176 16.1711 16.5025 17.4819 16.2388C17.5647 16.2238 17.625 16.1711 17.625 16.0806C17.625 15.9902 17.5647 15.9375 17.4819 15.9224C16.1711 15.6588 16.2162 15.6286 15.9526 14.3856C15.93 14.3027 15.8848 14.25 15.7944 14.25C15.704 14.25 15.6588 14.3027 15.6362 14.3856C15.3725 15.6286 15.4102 15.6588 14.1069 15.9224C14.0165 15.9375 13.9637 15.9902 13.9637 16.0806C13.9637 16.1711 14.0165 16.2238 14.1069 16.2388C15.4177 16.4875 15.4026 16.5176 15.6362 17.7757Z" fill="white"/>
<path d="M16.7185 9.68472C16.7335 9.8203 16.8315 9.91071 16.9746 9.91071C17.1102 9.91071 17.2081 9.8203 17.2232 9.66964C17.4718 7.65821 17.5622 7.60546 19.6113 7.274C19.7771 7.25137 19.875 7.16851 19.875 7.01786C19.875 6.88225 19.7771 6.79186 19.6415 6.76171C17.5773 6.37751 17.4718 6.38503 17.2232 4.36607C17.2081 4.22294 17.1102 4.125 16.9746 4.125C16.8315 4.125 16.7335 4.22294 16.7185 4.35852C16.4548 6.40762 16.3795 6.47545 14.3002 6.76171C14.1646 6.78431 14.0667 6.88225 14.0667 7.01786C14.0667 7.16099 14.1646 7.25137 14.3002 7.274L14.3411 7.28185C16.3804 7.67334 16.449 7.68652 16.7185 9.68472Z" fill="white"/>
</g>
<defs>
<linearGradient id="paint0_linear_36273_53103" x1="8.92084e-09" y1="12" x2="24" y2="12.0073" gradientUnits="userSpaceOnUse">
<stop stop-color="#9276FF"/>
<stop offset="1" stop-color="#652FFF"/>
</linearGradient>
<clipPath id="clip0_36273_53103">
<rect width="18" height="18" fill="white" transform="matrix(-1 0 0 1 21 3)"/>
</clipPath>
</defs>
</svg>
