<svg width="25" height="24" viewBox="0 0 25 24" fill="none" xmlns="http://www.w3.org/2000/svg">
<path d="M10.29 10.03C10.29 10.57 10.44 10.65 10.78 10.77L11.29 10.95V9.25H10.99C10.61 9.25 10.29 9.6 10.29 10.03Z" fill="url(#paint0_linear_4023_6542)"/>
<path d="M12.79 14.7498H13.09C13.48 14.7498 13.79 14.3998 13.79 13.9698C13.79 13.4298 13.64 13.3498 13.3 13.2298L12.79 13.0498V14.7498Z" fill="url(#paint1_linear_4023_6542)"/>
<path d="M19.62 5.48L17.57 7.53C17.42 7.68 17.23 7.75 17.04 7.75C16.85 7.75 16.66 7.68 16.51 7.53C16.22 7.24 16.22 6.76 16.51 6.47L18.56 4.42C16.8 2.92 14.53 2 12.04 2C6.52004 2 2.04004 6.48 2.04004 12C2.04004 17.52 6.52004 22 12.04 22C17.56 22 22.04 17.52 22.04 12C22.04 9.51 21.12 7.24 19.62 5.48ZM13.79 11.82C14.43 12.05 15.29 12.51 15.29 13.98C15.29 15.23 14.3 16.26 13.09 16.26H12.79V16.51C12.79 16.92 12.45 17.26 12.04 17.26C11.63 17.26 11.29 16.92 11.29 16.51V16.26H11.21C9.88004 16.26 8.79004 15.14 8.79004 13.76C8.79004 13.34 9.13004 13 9.54004 13C9.95004 13 10.29 13.34 10.29 13.75C10.29 14.3 10.7 14.75 11.21 14.75H11.29V12.53L10.29 12.18C9.65004 11.95 8.79004 11.49 8.79004 10.02C8.79004 8.77 9.78004 7.74 10.99 7.74H11.29V7.5C11.29 7.09 11.63 6.75 12.04 6.75C12.45 6.75 12.79 7.09 12.79 7.5V7.75H12.87C14.2 7.75 15.29 8.87 15.29 10.25C15.29 10.66 14.95 11 14.54 11C14.13 11 13.79 10.66 13.79 10.25C13.79 9.7 13.38 9.25 12.87 9.25H12.79V11.47L13.79 11.82Z" fill="url(#paint2_linear_4023_6542)"/>
<path d="M22.73 1.71C22.65 1.53 22.51 1.38 22.32 1.3C22.23 1.27 22.14 1.25 22.04 1.25H18.04C17.63 1.25 17.29 1.59 17.29 2C17.29 2.41 17.63 2.75 18.04 2.75H20.23L18.56 4.42C18.94 4.75 19.29 5.1 19.62 5.48L21.29 3.81V6C21.29 6.41 21.63 6.75 22.04 6.75C22.45 6.75 22.79 6.41 22.79 6V2C22.79 1.9 22.77 1.81 22.73 1.71Z" fill="url(#paint3_linear_4023_6542)"/>
<defs>
<linearGradient id="paint0_linear_4023_6542" x1="10.29" y1="10.1" x2="11.29" y2="10.1002" gradientUnits="userSpaceOnUse">
<stop stop-color="#9276FF"/>
<stop offset="1" stop-color="#652FFF"/>
</linearGradient>
<linearGradient id="paint1_linear_4023_6542" x1="12.79" y1="13.8998" x2="13.79" y2="13.9" gradientUnits="userSpaceOnUse">
<stop stop-color="#9276FF"/>
<stop offset="1" stop-color="#652FFF"/>
</linearGradient>
<linearGradient id="paint2_linear_4023_6542" x1="2.04004" y1="12" x2="22.04" y2="12.006" gradientUnits="userSpaceOnUse">
<stop stop-color="#9276FF"/>
<stop offset="1" stop-color="#652FFF"/>
</linearGradient>
<linearGradient id="paint3_linear_4023_6542" x1="17.29" y1="3.99999" x2="22.79" y2="4.00166" gradientUnits="userSpaceOnUse">
<stop stop-color="#9276FF"/>
<stop offset="1" stop-color="#652FFF"/>
</linearGradient>
</defs>
</svg>
