<svg width="25" height="24" viewBox="0 0 25 24" fill="none" xmlns="http://www.w3.org/2000/svg">
<g clip-path="url(#clip0_4022_5306)">
<path d="M8.52145 0.0153718C8.45957 0.0266218 8.39582 0.0378718 8.34145 0.0753718C8.12207 0.223497 8.07332 0.530997 8.22145 0.750372L9.25645 2.29537C7.65707 3.14287 6.46457 4.551 6.07645 6.24037H19.3364C18.9483 4.551 17.7558 3.14287 16.1564 2.29537L17.1914 0.750372C17.3396 0.530997 17.2908 0.223497 17.0714 0.0753718C16.8502 -0.0727533 16.5446 -0.00900323 16.3964 0.210372L15.2564 1.89037C14.4652 1.60162 13.6064 1.44037 12.7064 1.44037C11.8064 1.44037 10.9477 1.60162 10.1564 1.89037L9.01645 0.210372C8.90582 0.0453718 8.7052 -0.0202532 8.52145 0.0153718ZM10.0664 3.84037C10.4639 3.84037 10.7864 4.16287 10.7864 4.56037C10.7864 4.95975 10.4639 5.28037 10.0664 5.28037C9.66707 5.28037 9.34645 4.95975 9.34645 4.56037C9.34645 4.16287 9.66707 3.84037 10.0664 3.84037ZM15.3464 3.84037C15.7458 3.84037 16.0664 4.16287 16.0664 4.56037C16.0664 4.95975 15.7458 5.28037 15.3464 5.28037C14.9489 5.28037 14.6264 4.95975 14.6264 4.56037C14.6264 4.16287 14.9489 3.84037 15.3464 3.84037ZM4.54645 7.20037C3.75145 7.20037 3.10645 7.84537 3.10645 8.64037V15.3604C3.10645 16.1554 3.75145 16.8004 4.54645 16.8004C4.7152 16.8004 4.87645 16.7647 5.02645 16.7104V7.29037C4.87645 7.236 4.7152 7.20037 4.54645 7.20037ZM5.98645 7.20037V17.7604C5.98645 18.5535 6.63332 19.2004 7.42645 19.2004H17.9864C18.7796 19.2004 19.4264 18.5535 19.4264 17.7604V7.20037H5.98645ZM20.8664 7.20037C20.6977 7.20037 20.5364 7.236 20.3864 7.29037V16.7104C20.5364 16.7629 20.6977 16.8004 20.8664 16.8004C21.6614 16.8004 22.3064 16.1554 22.3064 15.3604V8.64037C22.3064 7.84537 21.6614 7.20037 20.8664 7.20037ZM7.90645 20.1604V22.0804C7.90645 23.1397 8.76707 24.0004 9.82645 24.0004C10.8858 24.0004 11.7464 23.1397 11.7464 22.0804V20.1604H7.90645ZM13.6664 20.1604V22.0804C13.6664 23.1397 14.5271 24.0004 15.5864 24.0004C16.6458 24.0004 17.5064 23.1397 17.5064 22.0804V20.1604H13.6664Z" fill="url(#paint0_linear_4022_5306)"/>
</g>
<defs>
<linearGradient id="paint0_linear_4022_5306" x1="3.10645" y1="11.9977" x2="22.3064" y2="12.0024" gradientUnits="userSpaceOnUse">
<stop stop-color="#9276FF"/>
<stop offset="1" stop-color="#652FFF"/>
</linearGradient>
<clipPath id="clip0_4022_5306">
<rect width="24" height="24" fill="white" transform="translate(0.706543)"/>
</clipPath>
</defs>
</svg>
