<svg width="25" height="24" viewBox="0 0 25 24" fill="none" xmlns="http://www.w3.org/2000/svg">
<g clip-path="url(#clip0_4023_7691)">
<path d="M12.7176 19.957C12.9923 20.0209 13.0175 20.3807 12.7499 20.4699V20.4699L11.1699 20.9899C7.19989 22.2699 5.10989 21.1999 3.81989 17.2299L2.53989 13.2799C1.25989 9.30992 2.31989 7.20992 6.28989 5.92992L6.81389 5.75639C7.21675 5.62297 7.60882 6.02703 7.49442 6.43571C7.43772 6.63828 7.38318 6.84968 7.32989 7.06992L6.34989 11.2599C5.24989 15.9699 6.85989 18.5699 11.5699 19.6899L12.7176 19.957Z" fill="url(#paint0_linear_4023_7691)"/>
<path d="M17.2102 3.20952L15.5402 2.81952C12.2002 2.02952 10.2102 2.67952 9.04022 5.09952C8.74022 5.70952 8.50022 6.44952 8.30022 7.29952L7.32022 11.4895C6.34022 15.6695 7.63022 17.7295 11.8002 18.7195L13.4802 19.1195C14.0602 19.2595 14.6002 19.3495 15.1002 19.3895C18.2202 19.6895 19.8802 18.2295 20.7202 14.6195L21.7002 10.4395C22.6802 6.25952 21.4002 4.18952 17.2102 3.20952ZM15.3302 13.3295C15.2402 13.6695 14.9402 13.8895 14.6002 13.8895C14.5402 13.8895 14.4802 13.8795 14.4102 13.8695L11.5002 13.1295C11.1002 13.0295 10.8602 12.6195 10.9602 12.2195C11.0602 11.8195 11.4702 11.5795 11.8702 11.6795L14.7802 12.4195C15.1902 12.5195 15.4302 12.9295 15.3302 13.3295ZM18.2602 9.94952C18.1702 10.2895 17.8702 10.5095 17.5302 10.5095C17.4702 10.5095 17.4102 10.4995 17.3402 10.4895L12.4902 9.25952C12.0902 9.15952 11.8502 8.74952 11.9502 8.34952C12.0502 7.94952 12.4602 7.70952 12.8602 7.80952L17.7102 9.03952C18.1202 9.12952 18.3602 9.53952 18.2602 9.94952Z" fill="url(#paint1_linear_4023_7691)"/>
</g>
<defs>
<linearGradient id="paint0_linear_4023_7691" x1="2.02588" y1="13.461" x2="13.5899" y2="13.4636" gradientUnits="userSpaceOnUse">
<stop stop-color="#9276FF"/>
<stop offset="1" stop-color="#652FFF"/>
</linearGradient>
<linearGradient id="paint1_linear_4023_7691" x1="7.00879" y1="10.9643" x2="22.0126" y2="10.9683" gradientUnits="userSpaceOnUse">
<stop stop-color="#9276FF"/>
<stop offset="1" stop-color="#652FFF"/>
</linearGradient>
<clipPath id="clip0_4023_7691">
<rect width="24" height="24" fill="white" transform="translate(0.0400391)"/>
</clipPath>
</defs>
</svg>
