<svg width="25" height="24" viewBox="0 0 25 24" fill="none" xmlns="http://www.w3.org/2000/svg">
<g clip-path="url(#clip0_34694_68064)">
<path d="M22.6767 18.33C22.6767 18.69 22.5967 19.06 22.4267 19.42C22.2567 19.78 22.0367 20.12 21.7467 20.44C21.2567 20.98 20.7167 21.37 20.1067 21.62C19.5067 21.87 18.8567 22 18.1567 22C17.1367 22 16.0467 21.76 14.8967 21.27C13.7467 20.78 12.5967 20.12 11.4567 19.29C10.3067 18.45 9.21673 17.52 8.17673 16.49C7.14673 15.45 6.21673 14.36 5.38673 13.22C4.56673 12.08 3.90673 10.94 3.42673 9.81C2.94673 8.67 2.70673 7.58 2.70673 6.54C2.70673 5.86 2.82673 5.21 3.06673 4.61C3.30673 4 3.68673 3.44 4.21673 2.94C4.85673 2.31 5.55673 2 6.29673 2C6.57673 2 6.85673 2.06 7.10673 2.18C7.36673 2.3 7.59673 2.48 7.77673 2.74L10.0967 6.01C10.2767 6.26 10.4067 6.49 10.4967 6.71C10.5867 6.92 10.6367 7.13 10.6367 7.32C10.6367 7.56 10.5667 7.8 10.4267 8.03C10.2967 8.26 10.1067 8.5 9.86673 8.74L9.10673 9.53C8.99673 9.64 8.94673 9.77 8.94673 9.93C8.94673 10.01 8.95673 10.08 8.97673 10.16C9.00673 10.24 9.03673 10.3 9.05673 10.36C9.23673 10.69 9.54673 11.12 9.98673 11.64C10.4367 12.16 10.9167 12.69 11.4367 13.22C11.9767 13.75 12.4967 14.24 13.0267 14.69C13.5467 15.13 13.9767 15.43 14.3167 15.61C14.3667 15.63 14.4267 15.66 14.4967 15.69C14.5767 15.72 14.6567 15.73 14.7467 15.73C14.9167 15.73 15.0467 15.67 15.1567 15.56L15.9167 14.81C16.1667 14.56 16.4067 14.37 16.6367 14.25C16.8667 14.11 17.0967 14.04 17.3467 14.04C17.5367 14.04 17.7367 14.08 17.9567 14.17C18.1767 14.26 18.4067 14.39 18.6567 14.56L21.9667 16.91C22.2267 17.09 22.4067 17.3 22.5167 17.55C22.6167 17.8 22.6767 18.05 22.6767 18.33Z" fill="url(#paint0_linear_34694_68064)"/>
</g>
<defs>
<linearGradient id="paint0_linear_34694_68064" x1="2.70673" y1="12" x2="22.6767" y2="12.006" gradientUnits="userSpaceOnUse">
<stop stop-color="#9276FF"/>
<stop offset="1" stop-color="#652FFF"/>
</linearGradient>
<clipPath id="clip0_34694_68064">
<rect width="24" height="24" fill="white" transform="translate(0.706726)"/>
</clipPath>
</defs>
</svg>
