<svg width="25" height="24" viewBox="0 0 25 24" fill="none" xmlns="http://www.w3.org/2000/svg">
<g clip-path="url(#clip0_4023_6530)">
<path d="M15.8402 2.21048C15.4302 1.80048 14.7202 2.08048 14.7202 2.65048V6.14048C14.7202 7.60048 15.9602 8.81048 17.4702 8.81048C18.4202 8.82048 19.7402 8.82048 20.8702 8.82048C21.4402 8.82048 21.7402 8.15048 21.3402 7.75048C19.9002 6.30048 17.3202 3.69048 15.8402 2.21048Z" fill="url(#paint0_linear_4023_6530)"/>
<path d="M20.54 10.19H17.65C15.28 10.19 13.35 8.26 13.35 5.89V3C13.35 2.45 12.9 2 12.35 2H8.11004C5.03004 2 2.54004 4 2.54004 7.57V16.43C2.54004 20 5.03004 22 8.11004 22H15.97C19.05 22 21.54 20 21.54 16.43V11.19C21.54 10.64 21.09 10.19 20.54 10.19ZM11.54 17.75H7.54004C7.13004 17.75 6.79004 17.41 6.79004 17C6.79004 16.59 7.13004 16.25 7.54004 16.25H11.54C11.95 16.25 12.29 16.59 12.29 17C12.29 17.41 11.95 17.75 11.54 17.75ZM13.54 13.75H7.54004C7.13004 13.75 6.79004 13.41 6.79004 13C6.79004 12.59 7.13004 12.25 7.54004 12.25H13.54C13.95 12.25 14.29 12.59 14.29 13C14.29 13.41 13.95 13.75 13.54 13.75Z" fill="url(#paint1_linear_4023_6530)"/>
</g>
<defs>
<linearGradient id="paint0_linear_4023_6530" x1="14.7202" y1="5.41804" x2="21.5233" y2="5.42011" gradientUnits="userSpaceOnUse">
<stop stop-color="#9276FF"/>
<stop offset="1" stop-color="#652FFF"/>
</linearGradient>
<linearGradient id="paint1_linear_4023_6530" x1="2.54004" y1="12" x2="21.54" y2="12.0055" gradientUnits="userSpaceOnUse">
<stop stop-color="#9276FF"/>
<stop offset="1" stop-color="#652FFF"/>
</linearGradient>
<clipPath id="clip0_4023_6530">
<rect width="24" height="24" fill="white" transform="translate(0.0400391)"/>
</clipPath>
</defs>
</svg>
