<svg width="25" height="24" viewBox="0 0 25 24" fill="none" xmlns="http://www.w3.org/2000/svg">
<g clip-path="url(#clip0_34694_68019)">
<path d="M18.79 13.9H16.9438C16.7458 13.9 16.5522 13.9588 16.3876 14.069L14.13 15.58C13.77 15.82 13.35 15.93 12.94 15.93C12.59 15.93 12.24 15.85 11.92 15.67C11.4382 15.4153 11.0844 14.9475 10.9105 14.423C10.7713 14.0029 10.4938 13.6136 10.0937 13.4244C9.63448 13.2073 9.22047 12.9204 8.87004 12.57C8.01004 11.71 7.54004 10.5 7.54004 9.15V5.25V5C7.54004 4.44772 7.09232 4 6.54004 4C3.84004 4 2.04004 5.35 2.04004 8.5V13.9C2.04004 17.05 3.84004 18.4 6.54004 18.4H10.29V21.25H7.44004C7.03004 21.25 6.69004 21.59 6.69004 22C6.69004 22.41 7.03004 22.75 7.44004 22.75H14.64C15.05 22.75 15.39 22.41 15.39 22C15.39 21.59 15.05 21.25 14.64 21.25H11.79V18.4H15.54C17.9354 18.4 19.6225 17.3374 19.9726 14.898C20.0511 14.3513 19.5923 13.9 19.04 13.9H18.79Z" fill="url(#paint0_linear_34694_68019)"/>
<path d="M18.79 2H12.29C10.8 2 9.68004 2.76 9.24004 4C9.11004 4.38 9.04004 4.8 9.04004 5.25V9.15C9.04004 10.12 9.36004 10.94 9.93004 11.51C10.5 12.08 11.32 12.4 12.29 12.4V13.79C12.29 14.3 12.87 14.61 13.3 14.33L16.19 12.4H18.79C19.24 12.4 19.66 12.33 20.04 12.2C21.28 11.76 22.04 10.64 22.04 9.15V5.25C22.04 3.3 20.74 2 18.79 2ZM12.66 8C12.24 8 11.91 7.66 11.91 7.25C11.91 6.84 12.24 6.5 12.66 6.5C13.08 6.5 13.41 6.84 13.41 7.25C13.41 7.66 13.08 8 12.66 8ZM15.48 8C15.06 8 14.73 7.66 14.73 7.25C14.73 6.84 15.07 6.5 15.48 6.5C15.89 6.5 16.23 6.84 16.23 7.25C16.23 7.66 15.89 8 15.48 8ZM18.29 8C17.87 8 17.54 7.66 17.54 7.25C17.54 6.84 17.88 6.5 18.29 6.5C18.7 6.5 19.04 6.84 19.04 7.25C19.04 7.66 18.7 8 18.29 8Z" fill="url(#paint1_linear_34694_68019)"/>
<path d="M22.04 5.25V9.15C22.04 10.64 21.28 11.76 20.04 12.2C19.66 12.33 19.24 12.4 18.79 12.4H16.19L13.3 14.33C12.87 14.61 12.29 14.3 12.29 13.79V12.4C11.32 12.4 10.5 12.08 9.93004 11.51C9.36004 10.94 9.04004 10.12 9.04004 9.15V5.25C9.04004 4.8 9.11004 4.38 9.24004 4C9.68004 2.76 10.8 2 12.29 2H18.79C20.74 2 22.04 3.3 22.04 5.25Z" fill="url(#paint2_linear_34694_68019)"/>
</g>
<defs>
<linearGradient id="paint0_linear_34694_68019" x1="2.04004" y1="13.375" x2="20.04" y2="13.3802" gradientUnits="userSpaceOnUse">
<stop stop-color="#9276FF"/>
<stop offset="1" stop-color="#652FFF"/>
</linearGradient>
<linearGradient id="paint1_linear_34694_68019" x1="9.04004" y1="8.21779" x2="22.04" y2="8.22191" gradientUnits="userSpaceOnUse">
<stop stop-color="#9276FF"/>
<stop offset="1" stop-color="#652FFF"/>
</linearGradient>
<linearGradient id="paint2_linear_34694_68019" x1="9.04004" y1="8.21779" x2="22.04" y2="8.22191" gradientUnits="userSpaceOnUse">
<stop stop-color="#9276FF"/>
<stop offset="1" stop-color="#652FFF"/>
</linearGradient>
<clipPath id="clip0_34694_68019">
<rect width="24" height="24" fill="white" transform="translate(0.0400391)"/>
</clipPath>
</defs>
</svg>
