<svg width="25" height="24" viewBox="0 0 25 24" fill="none" xmlns="http://www.w3.org/2000/svg">
<path d="M16.23 2H7.85004C4.21004 2 2.04004 4.17 2.04004 7.81V16.19C2.04004 19.83 4.21004 22 7.85004 22H16.23C19.87 22 22.04 19.83 22.04 16.19V7.81C22.04 4.17 19.87 2 16.23 2ZM10.01 14.9L7.76004 17.15C7.61004 17.3 7.42004 17.37 7.23004 17.37C7.04004 17.37 6.84004 17.3 6.70004 17.15L5.95004 16.4C5.65004 16.11 5.65004 15.63 5.95004 15.34C6.24004 15.05 6.71004 15.05 7.01004 15.34L7.23004 15.56L8.95004 13.84C9.24004 13.55 9.71004 13.55 10.01 13.84C10.3 14.13 10.3 14.61 10.01 14.9ZM10.01 7.9L7.76004 10.15C7.61004 10.3 7.42004 10.37 7.23004 10.37C7.04004 10.37 6.84004 10.3 6.70004 10.15L5.95004 9.4C5.65004 9.11 5.65004 8.63 5.95004 8.34C6.24004 8.05 6.71004 8.05 7.01004 8.34L7.23004 8.56L8.95004 6.84C9.24004 6.55 9.71004 6.55 10.01 6.84C10.3 7.13 10.3 7.61 10.01 7.9ZM17.6 16.62H12.35C11.94 16.62 11.6 16.28 11.6 15.87C11.6 15.46 11.94 15.12 12.35 15.12H17.6C18.02 15.12 18.35 15.46 18.35 15.87C18.35 16.28 18.02 16.62 17.6 16.62ZM17.6 9.62H12.35C11.94 9.62 11.6 9.28 11.6 8.87C11.6 8.46 11.94 8.12 12.35 8.12H17.6C18.02 8.12 18.35 8.46 18.35 8.87C18.35 9.28 18.02 9.62 17.6 9.62Z" fill="url(#paint0_linear_34694_68468)"/>
<defs>
<linearGradient id="paint0_linear_34694_68468" x1="2.04004" y1="12" x2="22.04" y2="12.006" gradientUnits="userSpaceOnUse">
<stop stop-color="#9276FF"/>
<stop offset="1" stop-color="#652FFF"/>
</linearGradient>
</defs>
</svg>
