<svg width="25" height="24" viewBox="0 0 25 24" fill="none" xmlns="http://www.w3.org/2000/svg">
<path d="M16.8315 1C15.6785 1.067 14.3549 1.70934 13.5679 2.52734C12.8569 3.27134 12.2959 4.37631 12.5249 5.44531C13.7779 5.47831 15.0356 4.81933 15.7886 3.98633C16.4916 3.20733 17.0245 2.12 16.8315 1ZM16.8999 5.44336C15.0909 5.44336 14.3345 6.55469 13.0815 6.55469C11.7925 6.55469 10.6142 5.51367 9.0542 5.51367C6.9322 5.51467 3.70654 7.48033 3.70654 12.1113C3.70654 16.3243 7.5242 21 9.6792 21C10.9882 21.013 11.3055 20.177 13.0815 20.168C14.8595 20.155 15.2432 21.011 16.5542 21C18.0302 20.989 19.1829 19.367 20.0249 18.082C20.6289 17.162 20.8772 16.6923 21.3452 15.6523C17.8722 14.7723 17.1812 9.17167 21.3452 8.01367C20.5592 6.67267 18.2649 5.44336 16.8999 5.44336Z" fill="url(#paint0_linear_4020_5302)"/>
<defs>
<linearGradient id="paint0_linear_4020_5302" x1="3.70654" y1="11.0001" x2="21.3452" y2="11.0048" gradientUnits="userSpaceOnUse">
<stop stop-color="#9276FF"/>
<stop offset="1" stop-color="#652FFF"/>
</linearGradient>
</defs>
</svg>
