<svg width="20" height="20" viewBox="0 0 20 20" fill="none" xmlns="http://www.w3.org/2000/svg">
<path d="M20 12C20 14.8003 20 16.2004 19.455 17.27C18.9757 18.2108 18.2108 18.9757 17.27 19.455C16.2004 20 14.8003 20 12 20H8C5.19974 20 3.79961 20 2.73005 19.455C1.78924 18.9757 1.02433 18.2108 0.544967 17.27C0 16.2004 0 14.8003 0 12V8C0 5.19974 0 3.79961 0.544967 2.73005C1.02433 1.78924 1.78924 1.02433 2.73005 0.544967C3.79961 0 5.19974 0 8 0H12C14.8003 0 16.2004 0 17.27 0.544967C18.2108 1.02433 18.9757 1.78924 19.455 2.73005C20 3.79961 20 5.19974 20 8V12ZM11.1338 2.79883C10.4072 2.79886 9.70927 3.08217 9.18848 3.58887L2.96191 9.69531C2.9109 9.74492 2.87046 9.80457 2.84277 9.87012C2.81512 9.93563 2.80078 10.006 2.80078 10.0771C2.80081 10.1482 2.81511 10.2187 2.84277 10.2842C2.87046 10.3496 2.91095 10.4094 2.96191 10.459C3.06604 10.56 3.20548 10.6162 3.35059 10.6162C3.49589 10.6162 3.63604 10.5603 3.74023 10.459L9.9668 4.35254C10.2793 4.04848 10.6978 3.87797 11.1338 3.87793C11.5699 3.87793 11.9892 4.04837 12.3018 4.35254C12.4544 4.50119 12.5762 4.67873 12.6592 4.875C12.7422 5.0714 12.785 5.28288 12.7852 5.49609C12.7853 5.70924 12.7428 5.92071 12.6602 6.11719C12.5775 6.31362 12.4562 6.49171 12.3037 6.64062L7.59863 11.2539C7.54762 11.3035 7.50718 11.3632 7.47949 11.4287C7.45183 11.4942 7.43752 11.5646 7.4375 11.6357C7.4375 11.7068 7.45188 11.7773 7.47949 11.8428C7.50716 11.9083 7.54767 11.968 7.59863 12.0176C7.70285 12.119 7.84283 12.1758 7.98828 12.1758C8.13374 12.1758 8.2737 12.119 8.37793 12.0176L8.44063 11.9558C8.44114 11.9553 8.44157 11.9547 8.44189 11.9541C8.44222 11.9535 8.44265 11.9529 8.44316 11.9524L13.082 7.40332C13.3947 7.10019 13.8135 6.9303 14.249 6.93066C14.6845 6.93114 15.1029 7.10152 15.415 7.40527L15.4473 7.4375C15.6001 7.58633 15.7217 7.7644 15.8047 7.96094C15.8876 8.15751 15.9307 8.36867 15.9307 8.58203C15.9307 8.79537 15.8876 9.00657 15.8047 9.20312C15.7217 9.39964 15.6001 9.57774 15.4473 9.72656L9.81543 15.25C9.6964 15.3657 9.60174 15.5043 9.53711 15.6572C9.4725 15.8102 9.43945 15.9746 9.43945 16.1406C9.43947 16.3067 9.47247 16.4711 9.53711 16.624C9.60175 16.777 9.69636 16.9155 9.81543 17.0312L10.9727 18.165C11.0768 18.2662 11.2161 18.3232 11.3613 18.3232C11.5066 18.3232 11.6458 18.2662 11.75 18.165C11.801 18.1154 11.8415 18.0558 11.8691 17.9902C11.8968 17.9247 11.9111 17.8543 11.9111 17.7832C11.9111 17.7122 11.8968 17.6416 11.8691 17.5762C11.8415 17.5108 11.8009 17.4519 11.75 17.4023L10.5938 16.2676C10.5768 16.2511 10.5629 16.2308 10.5537 16.209C10.5446 16.1874 10.5401 16.1641 10.54 16.1406C10.54 16.117 10.5445 16.0931 10.5537 16.0713C10.5629 16.0495 10.5768 16.0292 10.5938 16.0127L16.2256 10.4912C16.4806 10.2432 16.6829 9.94591 16.8213 9.61816C16.9596 9.29054 17.0312 8.93865 17.0312 8.58301C17.0313 8.22722 16.9597 7.87463 16.8213 7.54688C16.6829 7.21933 16.4805 6.92275 16.2256 6.6748L16.1934 6.64258C15.8886 6.34514 15.519 6.12159 15.1143 5.98926C15.109 5.98754 15.1037 5.98583 15.0984 5.98414C14.5011 5.79279 13.9461 5.23449 13.7441 4.64062C13.6088 4.24268 13.3814 3.88194 13.0801 3.58887C12.5592 3.08199 11.8606 2.79883 11.1338 2.79883ZM11.1338 4.95508C10.9883 4.95508 10.8484 5.01181 10.7441 5.11328L6.13965 9.62988C5.88461 9.87792 5.68141 10.1742 5.54297 10.502C5.40453 10.8297 5.33301 11.1823 5.33301 11.5381C5.33304 11.8937 5.40466 12.2457 5.54297 12.5732C5.68141 12.901 5.88458 13.1982 6.13965 13.4463C6.66051 13.9528 7.35841 14.2363 8.08496 14.2363C8.81169 14.2363 9.51032 13.953 10.0312 13.4463L14.6367 8.92969C14.6877 8.88011 14.7282 8.82036 14.7559 8.75488C14.7834 8.68944 14.7979 8.61888 14.7979 8.54785C14.7978 8.47678 14.7835 8.40629 14.7559 8.34082C14.7282 8.27529 14.6877 8.21561 14.6367 8.16602C14.5325 8.0646 14.3925 8.00782 14.2471 8.00781C14.1017 8.00781 13.9616 8.06462 13.8574 8.16602L9.25293 12.6826C8.94039 12.9868 8.52108 13.1572 8.08496 13.1572C7.64897 13.1572 7.23045 12.9867 6.91797 12.6826C6.76501 12.5337 6.64258 12.3558 6.55957 12.1592C6.47664 11.9627 6.4346 11.7514 6.43457 11.5381C6.43457 11.3246 6.47656 11.1127 6.55957 10.916C6.64258 10.7195 6.76507 10.5414 6.91797 10.3926L11.5234 5.87695C11.5745 5.82734 11.6149 5.7677 11.6426 5.70215C11.6702 5.63665 11.6846 5.56621 11.6846 5.49512C11.6846 5.42406 11.6702 5.35356 11.6426 5.28809C11.6149 5.22258 11.5744 5.16287 11.5234 5.11328C11.4192 5.01182 11.2792 4.95509 11.1338 4.95508Z" fill="url(#paint0_linear_36273_25532)"/>
<defs>
<linearGradient id="paint0_linear_36273_25532" x1="7.43403e-09" y1="9.99998" x2="20" y2="10.006" gradientUnits="userSpaceOnUse">
<stop stop-color="#9276FF"/>
<stop offset="1" stop-color="#652FFF"/>
</linearGradient>
</defs>
</svg>
