<svg width="24" height="24" viewBox="0 0 24 24" fill="none" xmlns="http://www.w3.org/2000/svg">
<path d="M22.0004 12.1C22.0004 14.0779 21.4138 16.0114 20.315 17.656C19.2161 19.3005 17.6543 20.5823 15.8269 21.3392C13.9996 22.0961 11.9888 22.2942 10.049 21.9083C8.10906 21.5224 6.32716 20.57 4.92857 19.1714C3.52999 17.7728 2.57754 15.9909 2.19167 14.051C1.8058 12.1111 2.00384 10.1004 2.76075 8.27304C3.51766 6.4457 4.79944 4.88384 6.444 3.78498C8.08856 2.68612 10.022 2.09961 11.9999 2.09961C13.3132 2.09961 14.6136 2.35828 15.8269 2.86085C17.0402 3.36341 18.1427 4.10004 19.0713 5.02867C19.9999 5.95729 20.7366 7.05973 21.2391 8.27304C21.7417 9.48634 22.0004 10.7868 22.0004 12.1ZM17.6197 6.55098C17.2698 6.20108 16.09 6.81371 15.7401 7.16361L13.5839 9.32108L13.565 9.31477L7.5372 7.67645C7.40545 7.64847 7.26895 7.65196 7.1388 7.68664C7.00865 7.72132 6.88851 7.7862 6.78815 7.87603L6.24752 8.41666C6.20686 8.45164 6.17565 8.49628 6.15678 8.54648C6.1379 8.59669 6.13197 8.65083 6.13952 8.70393C6.14707 8.75703 6.16786 8.80738 6.19998 8.85033C6.2321 8.89328 6.27451 8.92746 6.32331 8.94972L10.3326 11.1666L11.0361 11.8701L9.17678 13.727C8.98686 13.9399 8.82706 14.1779 8.70183 14.4343L7.33888 14.0213C7.20881 13.9898 7.07302 13.9903 6.9432 14.0229C6.81337 14.0554 6.69341 14.119 6.59362 14.2082L6.42688 14.3737C6.34281 14.4578 6.29557 14.5719 6.29557 14.6908C6.29557 14.8097 6.34281 14.9237 6.42688 15.0078L7.4071 15.988L7.42604 16.0057L8.16752 16.7485L8.18646 16.7674L9.16541 17.7476C9.24967 17.8314 9.36365 17.8784 9.48246 17.8784C9.60128 17.8784 9.71526 17.8314 9.79952 17.7476L9.96625 17.5809C10.0556 17.4811 10.1192 17.3612 10.1518 17.2313C10.1844 17.1015 10.1849 16.9657 10.1532 16.8356L9.73889 15.4714C9.99525 15.3456 10.2332 15.1854 10.4463 14.9952L12.3031 13.1371L13.0067 13.8394L15.221 17.8487C15.2432 17.8975 15.2774 17.9399 15.3204 17.972C15.3633 18.0041 15.4137 18.0249 15.4668 18.0325C15.5199 18.04 15.574 18.0341 15.6242 18.0152C15.6744 17.9963 15.7191 17.9651 15.754 17.9245L16.2947 17.3838C16.3847 17.2833 16.4497 17.163 16.4844 17.0326C16.5191 16.9022 16.5224 16.7655 16.4943 16.6335L14.8572 10.6082L14.8509 10.588L17.0071 8.43056C17.357 8.08066 17.9696 6.90214 17.6197 6.55098Z" fill="url(#paint0_linear_4023_6486)"/>
<defs>
<linearGradient id="paint0_linear_4023_6486" x1="1.99951" y1="12.1" x2="22.0004" y2="12.1061" gradientUnits="userSpaceOnUse">
<stop stop-color="#9276FF"/>
<stop offset="1" stop-color="#652FFF"/>
</linearGradient>
</defs>
</svg>
