<svg width="24" height="24" viewBox="0 0 24 24" fill="none" xmlns="http://www.w3.org/2000/svg">
<path d="M13.4303 14.9995H4.40034C2.58034 14.9995 1.42034 13.0495 2.30034 11.4495L4.63034 7.20945L6.81034 3.23945C7.72034 1.58945 10.1003 1.58945 11.0103 3.23945L13.2003 7.20945L14.2503 9.11945L15.5303 11.4495C16.4103 13.0495 15.2503 14.9995 13.4303 14.9995Z" fill="url(#paint0_linear_37703_100159)"/>
<path d="M22.65 16.0009C22.65 19.5909 19.74 22.5009 16.15 22.5009C13.1 22.5009 10.55 20.4109 9.83999 17.5709C9.76999 17.2709 9.99999 17.0009 10.31 17.0009H14.08C15.47 17.0009 16.73 16.2809 17.44 15.0909C18.14 13.8909 18.17 12.4509 17.49 11.2309L16.99 10.3109C16.8 9.97093 17.07 9.56093 17.45 9.63093C20.41 10.2309 22.65 12.8509 22.65 16.0009Z" fill="url(#paint1_linear_37703_100159)"/>
<defs>
<linearGradient id="paint0_linear_37703_100159" x1="2" y1="8.50069" x2="15.8307" y2="8.50516" gradientUnits="userSpaceOnUse">
<stop stop-color="#9276FF"/>
<stop offset="1" stop-color="#652FFF"/>
</linearGradient>
<linearGradient id="paint1_linear_37703_100159" x1="9.82736" y1="16.062" x2="22.65" y2="16.0659" gradientUnits="userSpaceOnUse">
<stop stop-color="#9276FF"/>
<stop offset="1" stop-color="#652FFF"/>
</linearGradient>
</defs>
</svg>
