<svg width="25" height="24" viewBox="0 0 25 24" fill="none" xmlns="http://www.w3.org/2000/svg">
<path d="M8.35658 20.9088C8.32658 20.9088 8.28658 20.9288 8.25658 20.9288C6.31659 19.9688 4.7366 18.3789 3.7666 16.4389C3.7666 16.4089 3.7866 16.3689 3.7866 16.3389C5.00659 16.6989 6.26659 16.9689 7.51658 17.1789C7.73658 18.4389 7.99658 19.6888 8.35658 20.9088Z" fill="url(#paint0_linear_4023_6451)"/>
<path d="M21.6466 16.4489C20.6566 18.4389 19.0066 20.0488 16.9966 21.0188C17.3766 19.7488 17.6966 18.4689 17.9066 17.1789C19.1666 16.9689 20.4066 16.6989 21.6266 16.3389C21.6166 16.3789 21.6466 16.4189 21.6466 16.4489Z" fill="url(#paint1_linear_4023_6451)"/>
<path d="M21.7266 7.71044C20.4666 7.33045 19.1966 7.02045 17.9066 6.80045C17.6966 5.51046 17.3866 4.23046 16.9966 2.98047C19.0666 3.97046 20.7366 5.64045 21.7266 7.71044Z" fill="url(#paint2_linear_4023_6451)"/>
<path d="M8.3565 3.08957C7.9965 4.30956 7.7365 5.54956 7.5265 6.80955C6.23651 7.00955 4.95652 7.32955 3.68652 7.70955C4.65652 5.69956 6.26651 4.04957 8.2565 3.05957C8.2865 3.05957 8.3265 3.08957 8.3565 3.08957Z" fill="url(#paint3_linear_4023_6451)"/>
<path d="M16.1968 6.58998C13.8768 6.32998 11.5368 6.32998 9.2168 6.58998C9.4668 5.21998 9.78679 3.84999 10.2368 2.53C10.2568 2.45 10.2468 2.39 10.2568 2.31C11.0468 2.12 11.8568 2 12.7068 2C13.5468 2 14.3668 2.12 15.1468 2.31C15.1568 2.39 15.1568 2.45 15.1768 2.53C15.6268 3.85999 15.9468 5.21998 16.1968 6.58998Z" fill="url(#paint4_linear_4023_6451)"/>
<path d="M7.29652 15.4897C5.91653 15.2397 4.55653 14.9197 3.23654 14.4697C3.15654 14.4497 3.09654 14.4597 3.01654 14.4497C2.82654 13.6597 2.70654 12.8497 2.70654 11.9997C2.70654 11.1598 2.82654 10.3398 3.01654 9.55976C3.09654 9.54976 3.15654 9.54976 3.23654 9.52976C4.56653 9.08976 5.91653 8.75976 7.29652 8.50977C7.04652 10.8298 7.04652 13.1697 7.29652 15.4897Z" fill="url(#paint5_linear_4023_6451)"/>
<path d="M22.7067 11.9997C22.7067 12.8497 22.5867 13.6597 22.3967 14.4497C22.3167 14.4597 22.2567 14.4497 22.1767 14.4697C20.8467 14.9097 19.4867 15.2397 18.1167 15.4897C18.3767 13.1697 18.3767 10.8298 18.1167 8.50977C19.4867 8.75976 20.8567 9.07976 22.1767 9.52976C22.2567 9.54976 22.3167 9.55976 22.3967 9.55976C22.5867 10.3498 22.7067 11.1598 22.7067 11.9997Z" fill="url(#paint6_linear_4023_6451)"/>
<path d="M16.1968 17.4102C15.9468 18.7901 15.6268 20.1501 15.1768 21.4701C15.1568 21.5501 15.1568 21.6101 15.1468 21.6901C14.3668 21.8801 13.5468 22.0001 12.7068 22.0001C11.8568 22.0001 11.0468 21.8801 10.2568 21.6901C10.2468 21.6101 10.2568 21.5501 10.2368 21.4701C9.79679 20.1401 9.4668 18.7901 9.2168 17.4102C10.3768 17.5402 11.5368 17.6302 12.7068 17.6302C13.8768 17.6302 15.0468 17.5402 16.1968 17.4102Z" fill="url(#paint7_linear_4023_6451)"/>
<path d="M16.4698 15.7633C13.9688 16.0788 11.4443 16.0788 8.94321 15.7633C8.62765 13.2622 8.62765 10.7378 8.94321 8.23667C11.4443 7.92111 13.9688 7.92111 16.4698 8.23667C16.7854 10.7378 16.7854 13.2622 16.4698 15.7633Z" fill="url(#paint8_linear_4023_6451)"/>
<defs>
<linearGradient id="paint0_linear_4023_6451" x1="3.7666" y1="18.6338" x2="8.35658" y2="18.6352" gradientUnits="userSpaceOnUse">
<stop stop-color="#9276FF"/>
<stop offset="1" stop-color="#652FFF"/>
</linearGradient>
<linearGradient id="paint1_linear_4023_6451" x1="16.9966" y1="18.6788" x2="21.6466" y2="18.6803" gradientUnits="userSpaceOnUse">
<stop stop-color="#9276FF"/>
<stop offset="1" stop-color="#652FFF"/>
</linearGradient>
<linearGradient id="paint2_linear_4023_6451" x1="16.9966" y1="5.34545" x2="21.7266" y2="5.34689" gradientUnits="userSpaceOnUse">
<stop stop-color="#9276FF"/>
<stop offset="1" stop-color="#652FFF"/>
</linearGradient>
<linearGradient id="paint3_linear_4023_6451" x1="3.68652" y1="5.38455" x2="8.3565" y2="5.38598" gradientUnits="userSpaceOnUse">
<stop stop-color="#9276FF"/>
<stop offset="1" stop-color="#652FFF"/>
</linearGradient>
<linearGradient id="paint4_linear_4023_6451" x1="9.2168" y1="4.29498" x2="16.1968" y2="4.29821" gradientUnits="userSpaceOnUse">
<stop stop-color="#9276FF"/>
<stop offset="1" stop-color="#652FFF"/>
</linearGradient>
<linearGradient id="paint5_linear_4023_6451" x1="2.70654" y1="11.9997" x2="7.29652" y2="12.0007" gradientUnits="userSpaceOnUse">
<stop stop-color="#9276FF"/>
<stop offset="1" stop-color="#652FFF"/>
</linearGradient>
<linearGradient id="paint6_linear_4023_6451" x1="18.1167" y1="11.9997" x2="22.7067" y2="12.0007" gradientUnits="userSpaceOnUse">
<stop stop-color="#9276FF"/>
<stop offset="1" stop-color="#652FFF"/>
</linearGradient>
<linearGradient id="paint7_linear_4023_6451" x1="9.2168" y1="19.7051" x2="16.1968" y2="19.7084" gradientUnits="userSpaceOnUse">
<stop stop-color="#9276FF"/>
<stop offset="1" stop-color="#652FFF"/>
</linearGradient>
<linearGradient id="paint8_linear_4023_6451" x1="8.70654" y1="12" x2="16.7065" y2="12.0024" gradientUnits="userSpaceOnUse">
<stop stop-color="#9276FF"/>
<stop offset="1" stop-color="#652FFF"/>
</linearGradient>
</defs>
</svg>
