<svg width="25" height="24" viewBox="0 0 25 24" fill="none" xmlns="http://www.w3.org/2000/svg">
<path d="M22.6867 11.4104C22.3467 5.61044 17.0767 1.14045 11.0067 2.14045C6.82671 2.83045 3.47671 6.22043 2.82671 10.4004C2.44671 12.8204 2.94674 15.1104 4.03674 17.0004L3.14672 20.3104C2.94672 21.0604 3.6367 21.7404 4.3767 21.5304L7.63671 20.6304C9.11671 21.5004 10.8467 22.0004 12.6967 22.0004C18.3367 22.0004 23.0167 17.0304 22.6867 11.4104ZM17.5867 15.7204C17.4967 15.9004 17.3867 16.0704 17.2467 16.2304C16.9967 16.5004 16.7267 16.7004 16.4267 16.8204C16.1267 16.9504 15.7967 17.0104 15.4467 17.0104C14.9367 17.0104 14.3867 16.8905 13.8167 16.6405C13.2367 16.3905 12.6667 16.0604 12.0967 15.6504C11.5167 15.2304 10.9767 14.7604 10.4567 14.2504C9.93672 13.7304 9.47669 13.1804 9.05669 12.6104C8.64669 12.0404 8.31671 11.4704 8.07671 10.9004C7.83671 10.3304 7.71673 9.78045 7.71673 9.26045C7.71673 8.92044 7.77672 8.59044 7.89672 8.29044C8.01672 7.98044 8.20674 7.70045 8.47674 7.45045C8.79674 7.13045 9.14672 6.98045 9.51672 6.98045C9.65672 6.98045 9.79669 7.01044 9.92669 7.07044C10.0567 7.13044 10.1767 7.22044 10.2667 7.35044L11.4267 8.99043C11.5167 9.12043 11.5867 9.23043 11.6267 9.34043C11.6767 9.45043 11.6967 9.55043 11.6967 9.65043C11.6967 9.77043 11.6567 9.89045 11.5867 10.0104C11.5167 10.1304 11.4267 10.2504 11.3067 10.3704L10.9267 10.7704C10.8667 10.8304 10.8467 10.8904 10.8467 10.9704C10.8467 11.0104 10.8567 11.0504 10.8667 11.0904C10.8867 11.1304 10.8967 11.1604 10.9067 11.1904C10.9967 11.3604 11.1567 11.5704 11.3767 11.8304C11.6067 12.0904 11.8467 12.3604 12.1067 12.6204C12.3767 12.8904 12.6367 13.1304 12.9067 13.3604C13.1667 13.5804 13.3867 13.7304 13.5567 13.8204C13.5867 13.8304 13.6167 13.8504 13.6467 13.8604C13.6867 13.8804 13.7267 13.8804 13.7767 13.8804C13.8667 13.8804 13.9267 13.8504 13.9867 13.7904L14.3667 13.4104C14.4967 13.2804 14.6167 13.1904 14.7267 13.1304C14.8467 13.0604 14.9567 13.0204 15.0867 13.0204C15.1867 13.0204 15.2867 13.0404 15.3967 13.0904C15.5067 13.1404 15.6267 13.2004 15.7467 13.2904L17.4067 14.4704C17.5367 14.5604 17.6267 14.6704 17.6867 14.7904C17.7367 14.9204 17.7667 15.0404 17.7667 15.1804C17.7067 15.3504 17.6667 15.5404 17.5867 15.7204Z" fill="url(#paint0_linear_34694_68069)"/>
<defs>
<linearGradient id="paint0_linear_34694_68069" x1="2.70056" y1="12.0002" x2="22.7031" y2="12.0063" gradientUnits="userSpaceOnUse">
<stop stop-color="#9276FF"/>
<stop offset="1" stop-color="#652FFF"/>
</linearGradient>
</defs>
</svg>
