<svg width="20" height="20" viewBox="0 0 20 20" fill="none" xmlns="http://www.w3.org/2000/svg">
<path d="M14.1971 0H5.8129C2.17108 0 0 2.17 0 5.81V14.18C0 17.83 2.17108 20 5.8129 20H14.1871C17.8289 20 20 17.83 20 14.19V5.81C20.01 2.17 17.8389 0 14.1971 0ZM14.2071 16.25C13.0765 16.25 12.1561 15.33 12.1561 14.2C12.1561 13.54 12.4762 12.96 12.9665 12.58C12.5463 11.48 11.4957 10.72 10.3151 10.76L8.25411 10.77H8.24411C7.6338 10.77 7.05351 10.59 6.56327 10.28V12.3C7.32365 12.6 7.86392 13.34 7.86392 14.2C7.86392 15.33 6.94346 16.25 5.8129 16.25C4.68233 16.25 3.76187 15.33 3.76187 14.2C3.76187 13.33 4.30214 12.6 5.06252 12.3V7.95C4.30214 7.6 3.76187 6.84 3.76187 5.95C3.76187 4.74 4.75237 3.75 5.96297 3.75C7.17357 3.75 8.16407 4.74 8.16407 5.95C8.16407 6.93 7.51374 7.75 6.6233 8.04C6.8234 8.77 7.48373 9.28 8.24411 9.28C8.24411 9.28 8.24411 9.28 8.25411 9.28L10.3151 9.27C10.3251 9.27 10.3251 9.27 10.3351 9.27C12.1761 9.27 13.8269 10.44 14.4272 12.18C15.4577 12.29 16.2681 13.15 16.2681 14.21C16.2581 15.33 15.3376 16.25 14.2071 16.25Z" fill="url(#paint0_linear_36273_30161)"/>
<defs>
<linearGradient id="paint0_linear_36273_30161" x1="7.43403e-09" y1="9.99998" x2="20" y2="10.006" gradientUnits="userSpaceOnUse">
<stop stop-color="#9276FF"/>
<stop offset="1" stop-color="#652FFF"/>
</linearGradient>
</defs>
</svg>
